M48
; DRILL file {KiCad 9.0.3+dfsg-1} date 2026-05-09T19:23:00-0500
; FORMAT={-:-/ absolute / metric / decimal}
; #@! TF.CreationDate,2026-05-09T19:23:00-05:00
; #@! TF.GenerationSoftware,Kicad,Pcbnew,9.0.3+dfsg-1
; #@! TF.FileFunction,Plated,1,4,PTH
FMAT,2
METRIC
; #@! TA.AperFunction,Plated,PTH,ViaDrill
T1C0.300
; #@! TA.AperFunction,Plated,PTH,ComponentDrill
T2C0.600
; #@! TA.AperFunction,Plated,PTH,ComponentDrill
T3C1.200
%
G90
G05
T1
X203.706Y-108.204
X203.962Y-106.172
X203.962Y-111.887
X204.343Y-101.346
X204.696Y-112.649
X204.978Y-109.474
X204.984Y-90.864
X204.984Y-92.134
X204.984Y-93.404
X204.984Y-94.674
X205.985Y-109.093
X205.994Y-104.168
X206.34Y-102.302
X207.264Y-111.379
X207.684Y-92.769
X208.211Y-102.177
X208.305Y-105.906
X208.407Y-111.642
X208.788Y-104.521
X208.798Y-105.483
X208.809Y-101.483
X208.826Y-103.378
X209.296Y-113.985
X209.296Y-115.885
X209.362Y-87.382
X209.362Y-89.656
X210.312Y-87.382
X210.384Y-90.864
X210.384Y-92.134
X210.384Y-93.404
X210.384Y-94.674
X211.262Y-87.382
X211.455Y-99.568
X211.455Y-104.394
X211.963Y-100.584
X211.963Y-107.95
X212.573Y-109.604
X212.598Y-112.903
X212.695Y-90.82
X212.695Y-91.47
X212.695Y-92.77
X213.0Y-114.575
X213.343Y-106.131
X213.36Y-101.6
X213.369Y-97.221
X213.614Y-102.235
X213.95Y-93.375
X214.085Y-104.538
X214.122Y-103.378
X214.382Y-98.673
X214.6Y-88.87
X214.6Y-90.17
X214.6Y-91.47
X214.876Y-94.107
X215.119Y-110.921
X215.519Y-98.298
X215.519Y-99.06
X215.9Y-88.87
X216.154Y-101.981
X216.3Y-99.105
X216.535Y-105.791
X216.579Y-110.915
X216.662Y-105.154
X217.043Y-97.536
X217.1Y-99.105
X217.17Y-91.44
X217.2Y-88.87
X217.2Y-90.17
X217.322Y-105.639
X217.398Y-113.427
X217.805Y-108.458
X217.85Y-86.965
X218.059Y-97.663
X218.26Y-105.336
X218.313Y-102.743
X218.567Y-94.234
X218.838Y-101.376
X218.948Y-100.076
X218.948Y-100.726
X218.973Y-109.604
X219.094Y-103.929
X219.964Y-104.775
X220.058Y-102.964
X220.091Y-105.537
X220.397Y-99.075
X220.472Y-88.844
X220.726Y-93.091
X220.726Y-96.012
X220.731Y-90.551
X220.853Y-105.791
X220.98Y-111.633
X221.378Y-106.316
X221.505Y-110.995
X221.628Y-111.685
X221.681Y-92.426
X221.751Y-114.148
X221.935Y-95.425
X222.311Y-113.538
X222.517Y-106.807
X222.631Y-90.551
X222.758Y-88.844
X222.758Y-103.85
X222.885Y-102.489
X222.885Y-108.331
X223.012Y-98.552
X223.012Y-99.314
X223.266Y-115.443
X223.52Y-114.808
X223.835Y-95.425
X224.155Y-93.599
X224.155Y-113.03
X224.348Y-91.645
X224.458Y-88.359
X224.518Y-107.823
X224.585Y-114.968
X225.044Y-107.332
X225.171Y-113.03
X225.794Y-113.411
X225.806Y-109.474
X226.248Y-91.645
X226.949Y-108.077
X226.949Y-112.395
X227.076Y-105.819
X227.408Y-88.359
X227.457Y-107.315
X227.535Y-114.968
X227.711Y-110.49
T3
X207.137Y-97.536
X207.137Y-100.076
X224.507Y-97.663
X224.507Y-100.203
X224.507Y-102.743
X224.507Y-105.283
T2
G00X211.453Y-110.729
M15
G01X211.453Y-109.629
M16
G05
G00X211.453Y-114.759
M15
G01X211.453Y-113.959
M16
G05
G00X220.093Y-110.729
M15
G01X220.093Y-109.629
M16
G05
G00X220.093Y-114.759
M15
G01X220.093Y-113.959
M16
G05
M30
