%TF.GenerationSoftware,KiCad,Pcbnew,9.0.3+dfsg-1*%
%TF.CreationDate,2026-05-09T19:23:03-05:00*%
%TF.ProjectId,RocketryFlightComputer_v0.1,526f636b-6574-4727-9946-6c6967687443,rev?*%
%TF.SameCoordinates,Original*%
%TF.FileFunction,Copper,L4,Bot*%
%TF.FilePolarity,Positive*%
%FSLAX46Y46*%
G04 Gerber Fmt 4.6, Leading zero omitted, Abs format (unit mm)*
G04 Created by KiCad (PCBNEW 9.0.3+dfsg-1) date 2026-05-09 19:23:03*
%MOMM*%
%LPD*%
G01*
G04 APERTURE LIST*
G04 Aperture macros list*
%AMRoundRect*
0 Rectangle with rounded corners*
0 $1 Rounding radius*
0 $2 $3 $4 $5 $6 $7 $8 $9 X,Y pos of 4 corners*
0 Add a 4 corners polygon primitive as box body*
4,1,4,$2,$3,$4,$5,$6,$7,$8,$9,$2,$3,0*
0 Add four circle primitives for the rounded corners*
1,1,$1+$1,$2,$3*
1,1,$1+$1,$4,$5*
1,1,$1+$1,$6,$7*
1,1,$1+$1,$8,$9*
0 Add four rect primitives between the rounded corners*
20,1,$1+$1,$2,$3,$4,$5,0*
20,1,$1+$1,$4,$5,$6,$7,0*
20,1,$1+$1,$6,$7,$8,$9,0*
20,1,$1+$1,$8,$9,$2,$3,0*%
G04 Aperture macros list end*
%TA.AperFunction,SMDPad,CuDef*%
%ADD10C,0.304800*%
%TD*%
%TA.AperFunction,SMDPad,CuDef*%
%ADD11RoundRect,0.100000X0.130000X0.100000X-0.130000X0.100000X-0.130000X-0.100000X0.130000X-0.100000X0*%
%TD*%
%TA.AperFunction,SMDPad,CuDef*%
%ADD12RoundRect,0.100000X-0.100000X0.130000X-0.100000X-0.130000X0.100000X-0.130000X0.100000X0.130000X0*%
%TD*%
%TA.AperFunction,SMDPad,CuDef*%
%ADD13RoundRect,0.150000X-0.150000X0.587500X-0.150000X-0.587500X0.150000X-0.587500X0.150000X0.587500X0*%
%TD*%
%TA.AperFunction,SMDPad,CuDef*%
%ADD14RoundRect,0.150000X0.150000X-0.587500X0.150000X0.587500X-0.150000X0.587500X-0.150000X-0.587500X0*%
%TD*%
%TA.AperFunction,SMDPad,CuDef*%
%ADD15RoundRect,0.140000X0.170000X-0.140000X0.170000X0.140000X-0.170000X0.140000X-0.170000X-0.140000X0*%
%TD*%
%TA.AperFunction,SMDPad,CuDef*%
%ADD16R,1.750000X0.600000*%
%TD*%
%TA.AperFunction,SMDPad,CuDef*%
%ADD17R,1.250000X0.600000*%
%TD*%
%TA.AperFunction,SMDPad,CuDef*%
%ADD18R,1.000000X0.500000*%
%TD*%
%TA.AperFunction,SMDPad,CuDef*%
%ADD19RoundRect,0.140000X0.140000X0.170000X-0.140000X0.170000X-0.140000X-0.170000X0.140000X-0.170000X0*%
%TD*%
%TA.AperFunction,SMDPad,CuDef*%
%ADD20RoundRect,0.200000X-0.200000X0.300000X-0.200000X-0.300000X0.200000X-0.300000X0.200000X0.300000X0*%
%TD*%
%TA.AperFunction,SMDPad,CuDef*%
%ADD21RoundRect,0.135000X0.135000X0.185000X-0.135000X0.185000X-0.135000X-0.185000X0.135000X-0.185000X0*%
%TD*%
%TA.AperFunction,SMDPad,CuDef*%
%ADD22RoundRect,0.135000X0.185000X-0.135000X0.185000X0.135000X-0.185000X0.135000X-0.185000X-0.135000X0*%
%TD*%
%TA.AperFunction,ComponentPad*%
%ADD23RoundRect,0.250000X-0.750000X0.750000X-0.750000X-0.750000X0.750000X-0.750000X0.750000X0.750000X0*%
%TD*%
%TA.AperFunction,ComponentPad*%
%ADD24C,2.000000*%
%TD*%
%TA.AperFunction,ComponentPad*%
%ADD25RoundRect,0.250000X0.750000X-0.750000X0.750000X0.750000X-0.750000X0.750000X-0.750000X-0.750000X0*%
%TD*%
%TA.AperFunction,SMDPad,CuDef*%
%ADD26RoundRect,0.075000X-0.075000X0.700000X-0.075000X-0.700000X0.075000X-0.700000X0.075000X0.700000X0*%
%TD*%
%TA.AperFunction,SMDPad,CuDef*%
%ADD27RoundRect,0.075000X-0.700000X0.075000X-0.700000X-0.075000X0.700000X-0.075000X0.700000X0.075000X0*%
%TD*%
%TA.AperFunction,SMDPad,CuDef*%
%ADD28RoundRect,0.250000X0.475000X-0.250000X0.475000X0.250000X-0.475000X0.250000X-0.475000X-0.250000X0*%
%TD*%
%TA.AperFunction,SMDPad,CuDef*%
%ADD29RoundRect,0.125000X-0.250000X-0.125000X0.250000X-0.125000X0.250000X0.125000X-0.250000X0.125000X0*%
%TD*%
%TA.AperFunction,HeatsinkPad*%
%ADD30R,3.400000X4.300000*%
%TD*%
%TA.AperFunction,SMDPad,CuDef*%
%ADD31RoundRect,0.150000X0.150000X0.425000X-0.150000X0.425000X-0.150000X-0.425000X0.150000X-0.425000X0*%
%TD*%
%TA.AperFunction,SMDPad,CuDef*%
%ADD32RoundRect,0.075000X0.075000X0.500000X-0.075000X0.500000X-0.075000X-0.500000X0.075000X-0.500000X0*%
%TD*%
%TA.AperFunction,HeatsinkPad*%
%ADD33O,1.000000X1.800000*%
%TD*%
%TA.AperFunction,HeatsinkPad*%
%ADD34O,1.000000X2.100000*%
%TD*%
%TA.AperFunction,BGAPad,CuDef*%
%ADD35C,0.250000*%
%TD*%
%TA.AperFunction,ViaPad*%
%ADD36C,0.450000*%
%TD*%
%TA.AperFunction,Conductor*%
%ADD37C,0.200000*%
%TD*%
%TA.AperFunction,Conductor*%
%ADD38C,0.156500*%
%TD*%
%TA.AperFunction,Conductor*%
%ADD39C,0.150000*%
%TD*%
%TA.AperFunction,Conductor*%
%ADD40C,0.500000*%
%TD*%
G04 APERTURE END LIST*
D10*
%TO.P,XTAL1,1,GND*%
%TO.N,GND*%
X214875999Y-94361000D03*
%TO.P,XTAL1,2,CLK_OUT*%
%TO.N,Net-(U1-PC14)*%
X213876001Y-94361000D03*
%TO.P,XTAL1,3,VDD*%
%TO.N,VDD*%
X213876001Y-93951000D03*
%TO.P,XTAL1,4,GND*%
%TO.N,GND*%
X214875999Y-93951000D03*
%TD*%
D11*
%TO.P,L5,1,1*%
%TO.N,RFI_P*%
X222189000Y-112649000D03*
%TO.P,L5,2,2*%
%TO.N,GND*%
X221549000Y-112649000D03*
%TD*%
D12*
%TO.P,C21,1*%
%TO.N,RFI_N*%
X224409000Y-114234000D03*
%TO.P,C21,2*%
%TO.N,GND*%
X224409000Y-114874000D03*
%TD*%
D11*
%TO.P,C19,1*%
%TO.N,Net-(U10-RF1)*%
X222758000Y-114300000D03*
%TO.P,C19,2*%
%TO.N,GND*%
X222118000Y-114300000D03*
%TD*%
%TO.P,C18,1*%
%TO.N,Net-(C18-Pad1)*%
X222225000Y-113538000D03*
%TO.P,C18,2*%
%TO.N,GND*%
X221585000Y-113538000D03*
%TD*%
D13*
%TO.P,Q3,3,D*%
%TO.N,Net-(J3-Pin_4)*%
X225298000Y-93520500D03*
%TO.P,Q3,2,S*%
%TO.N,GND*%
X226248000Y-91645500D03*
%TO.P,Q3,1,G*%
%TO.N,Net-(Q3-G)*%
X224348000Y-91645500D03*
%TD*%
D14*
%TO.P,Q2,3,D*%
%TO.N,Net-(J3-Pin_3)*%
X222885000Y-93550500D03*
%TO.P,Q2,2,S*%
%TO.N,GND*%
X221935000Y-95425500D03*
%TO.P,Q2,1,G*%
%TO.N,Net-(Q2-G)*%
X223835000Y-95425500D03*
%TD*%
D13*
%TO.P,Q1,3,D*%
%TO.N,Net-(J3-Pin_2)*%
X221681000Y-92426000D03*
%TO.P,Q1,2,S*%
%TO.N,GND*%
X222631000Y-90551000D03*
%TO.P,Q1,1,G*%
%TO.N,Net-(Q1-G)*%
X220731000Y-90551000D03*
%TD*%
D15*
%TO.P,C13,1*%
%TO.N,Net-(U2-VREG)*%
X227076000Y-106779000D03*
%TO.P,C13,2*%
%TO.N,GND*%
X227076000Y-105819000D03*
%TD*%
D16*
%TO.P,J1,1,Pin_1*%
%TO.N,VDD*%
X206375000Y-102299000D03*
%TO.P,J1,2,Pin_2*%
%TO.N,SWCLK*%
X204625000Y-103299000D03*
%TO.P,J1,3,Pin_3*%
%TO.N,GND*%
X206375000Y-104299000D03*
%TO.P,J1,4,Pin_4*%
%TO.N,SWDIO*%
X204625000Y-105299000D03*
%TO.P,J1,5,Pin_5*%
%TO.N,NRST*%
X206375000Y-106299000D03*
%TO.P,J1,6,Pin_6*%
%TO.N,SWO*%
X204625000Y-107299000D03*
%TD*%
D17*
%TO.P,S1,1*%
%TO.N,VDD*%
X206147000Y-112506000D03*
%TO.P,S1,3*%
%TO.N,BOOT0*%
X206147000Y-110506000D03*
%TO.P,S1,2*%
%TO.N,VDD*%
X209397000Y-112506000D03*
%TO.P,S1,4*%
%TO.N,BOOT0*%
X209397000Y-110506000D03*
D18*
%TO.P,S1,SH1*%
%TO.N,N/C*%
X207772000Y-113156000D03*
%TO.P,S1,SH2*%
X207772000Y-109856000D03*
%TD*%
D19*
%TO.P,R15,2*%
%TO.N,GND*%
X207038000Y-108839000D03*
%TO.P,R15,1*%
%TO.N,BOOT0*%
X207998000Y-108839000D03*
%TD*%
D20*
%TO.P,Y2,1,NC*%
%TO.N,unconnected-(Y2-NC-Pad1)*%
X223706000Y-109474000D03*
%TO.P,Y2,2,GND*%
%TO.N,GND*%
X225806000Y-109474000D03*
%TO.P,Y2,3,OUT*%
%TO.N,Net-(Y2-OUT)*%
X225806000Y-110874000D03*
%TO.P,Y2,4,Vcc*%
%TO.N,Net-(U2-DIO3)*%
X223706000Y-110874000D03*
%TD*%
D21*
%TO.P,R13,1*%
%TO.N,Net-(C11-Pad1)*%
X226062000Y-112141000D03*
%TO.P,R13,2*%
%TO.N,Net-(Y2-OUT)*%
X225042000Y-112141000D03*
%TD*%
%TO.P,C12,1*%
%TO.N,Net-(U2-DIO3)*%
X226951000Y-108077000D03*
%TO.P,C12,2*%
%TO.N,GND*%
X225931000Y-108077000D03*
%TD*%
D22*
%TO.P,C11,1*%
%TO.N,Net-(C11-Pad1)*%
X227076000Y-111508000D03*
%TO.P,C11,2*%
%TO.N,Net-(U2-XTA)*%
X227076000Y-110488000D03*
%TD*%
D23*
%TO.P,J4,1,Pin_1*%
%TO.N,GND*%
X207137000Y-97536000D03*
D24*
%TO.P,J4,2,Pin_2*%
%TO.N,+BATT*%
X207137000Y-100076000D03*
%TD*%
D25*
%TO.P,J3,1,Pin_1*%
%TO.N,+BATT*%
X224507500Y-105283000D03*
D24*
%TO.P,J3,2,Pin_2*%
%TO.N,Net-(J3-Pin_2)*%
X224507500Y-102743000D03*
%TO.P,J3,3,Pin_3*%
%TO.N,Net-(J3-Pin_3)*%
X224507500Y-100203000D03*
%TO.P,J3,4,Pin_4*%
%TO.N,Net-(J3-Pin_4)*%
X224507500Y-97663000D03*
%TD*%
D26*
%TO.P,U1,1,VBAT*%
%TO.N,VDD*%
X212150000Y-95925000D03*
%TO.P,U1,2,PC13*%
%TO.N,unconnected-(U1-PC13-Pad2)*%
X212650000Y-95925000D03*
%TO.P,U1,3,PC14*%
%TO.N,Net-(U1-PC14)*%
X213150000Y-95925000D03*
%TO.P,U1,4,PC15*%
%TO.N,unconnected-(U1-PC15-Pad4)*%
X213650000Y-95925000D03*
%TO.P,U1,5,PH0*%
%TO.N,Net-(U1-PH0)*%
X214150000Y-95925000D03*
%TO.P,U1,6,PH1*%
%TO.N,unconnected-(U1-PH1-Pad6)*%
X214650000Y-95925000D03*
%TO.P,U1,7,NRST*%
%TO.N,NRST*%
X215150000Y-95925000D03*
%TO.P,U1,8,PC0*%
%TO.N,SCL*%
X215650000Y-95925000D03*
%TO.P,U1,9,PC1*%
%TO.N,SDA*%
X216150000Y-95925000D03*
%TO.P,U1,10,PC2*%
%TO.N,unconnected-(U1-PC2-Pad10)*%
X216650000Y-95925000D03*
%TO.P,U1,11,PC3*%
%TO.N,unconnected-(U1-PC3-Pad11)*%
X217150000Y-95925000D03*
%TO.P,U1,12,VSSA*%
%TO.N,GND*%
X217650000Y-95925000D03*
%TO.P,U1,13,VDDA*%
%TO.N,VDD*%
X218150000Y-95925000D03*
%TO.P,U1,14,PA0*%
%TO.N,unconnected-(U1-PA0-Pad14)*%
X218650000Y-95925000D03*
%TO.P,U1,15,PA1*%
%TO.N,unconnected-(U1-PA1-Pad15)*%
X219150000Y-95925000D03*
%TO.P,U1,16,PA2*%
%TO.N,QSPI_CSN*%
X219650000Y-95925000D03*
D27*
%TO.P,U1,17,PA3*%
%TO.N,QSPI_CLK*%
X221575000Y-97850000D03*
%TO.P,U1,18,VSS*%
%TO.N,GND*%
X221575000Y-98350000D03*
%TO.P,U1,19,VDD*%
%TO.N,VDD*%
X221575000Y-98850000D03*
%TO.P,U1,20,PA4*%
%TO.N,unconnected-(U1-PA4-Pad20)*%
X221575000Y-99350000D03*
%TO.P,U1,21,PA5*%
%TO.N,unconnected-(U1-PA5-Pad21)*%
X221575000Y-99850000D03*
%TO.P,U1,22,PA6*%
%TO.N,QSPI_D3*%
X221575000Y-100350000D03*
%TO.P,U1,23,PA7*%
%TO.N,QSPI_D2*%
X221575000Y-100850000D03*
%TO.P,U1,24,PB0*%
%TO.N,QSPI_D1*%
X221575000Y-101350000D03*
%TO.P,U1,25,PB1*%
%TO.N,QSPI_D0*%
X221575000Y-101850000D03*
%TO.P,U1,26,PB2*%
%TO.N,SX_NRST*%
X221575000Y-102350000D03*
%TO.P,U1,27,PB10*%
%TO.N,SX_BUSY*%
X221575000Y-102850000D03*
%TO.P,U1,28,VLXSMPS*%
%TO.N,V_SMPS*%
X221575000Y-103350000D03*
%TO.P,U1,29,VDDSMPS*%
%TO.N,VDD*%
X221575000Y-103850000D03*
%TO.P,U1,30,VSSSMPS*%
%TO.N,GND*%
X221575000Y-104350000D03*
%TO.P,U1,31,VDD11*%
%TO.N,Net-(C10-Pad1)*%
X221575000Y-104850000D03*
%TO.P,U1,32,VSS*%
%TO.N,GND*%
X221575000Y-105350000D03*
D26*
%TO.P,U1,33,VDD*%
%TO.N,VDD*%
X219650000Y-107275000D03*
%TO.P,U1,34,PB13*%
%TO.N,SCK*%
X219150000Y-107275000D03*
%TO.P,U1,35,PB14*%
%TO.N,MISO*%
X218650000Y-107275000D03*
%TO.P,U1,36,PB15*%
%TO.N,MOSI*%
X218150000Y-107275000D03*
%TO.P,U1,37,PC6*%
%TO.N,SX_CSN*%
X217650000Y-107275000D03*
%TO.P,U1,38,PC7*%
%TO.N,unconnected-(U1-PC7-Pad38)*%
X217150000Y-107275000D03*
%TO.P,U1,39,PC8*%
%TO.N,unconnected-(U1-PC8-Pad39)*%
X216650000Y-107275000D03*
%TO.P,U1,40,PC9*%
%TO.N,unconnected-(U1-PC9-Pad40)*%
X216150000Y-107275000D03*
%TO.P,U1,41,PA8*%
%TO.N,unconnected-(U1-PA8-Pad41)*%
X215650000Y-107275000D03*
%TO.P,U1,42,PA9*%
%TO.N,unconnected-(U1-PA9-Pad42)*%
X215150000Y-107275000D03*
%TO.P,U1,43,PA10*%
%TO.N,unconnected-(U1-PA10-Pad43)*%
X214650000Y-107275000D03*
%TO.P,U1,44,PA11*%
%TO.N,USB_D-*%
X214150000Y-107275000D03*
%TO.P,U1,45,PA12*%
%TO.N,USB_D+*%
X213650000Y-107275000D03*
%TO.P,U1,46,PA13*%
%TO.N,SWDIO*%
X213150000Y-107275000D03*
%TO.P,U1,47,VSS*%
%TO.N,GND*%
X212650000Y-107275000D03*
%TO.P,U1,48,VDDUSB*%
%TO.N,VDD*%
X212150000Y-107275000D03*
D27*
%TO.P,U1,49,PA14*%
%TO.N,SWCLK*%
X210225000Y-105350000D03*
%TO.P,U1,50,PA15*%
%TO.N,unconnected-(U1-PA15-Pad50)*%
X210225000Y-104850000D03*
%TO.P,U1,51,PC10*%
%TO.N,unconnected-(U1-PC10-Pad51)*%
X210225000Y-104350000D03*
%TO.P,U1,52,PC11*%
%TO.N,unconnected-(U1-PC11-Pad52)*%
X210225000Y-103850000D03*
%TO.P,U1,53,PC12*%
%TO.N,unconnected-(U1-PC12-Pad53)*%
X210225000Y-103350000D03*
%TO.P,U1,54,PD2*%
%TO.N,unconnected-(U1-PD2-Pad54)*%
X210225000Y-102850000D03*
%TO.P,U1,55,PB3*%
%TO.N,SWO*%
X210225000Y-102350000D03*
%TO.P,U1,56,PB4*%
%TO.N,unconnected-(U1-PB4-Pad56)*%
X210225000Y-101850000D03*
%TO.P,U1,57,PB5*%
%TO.N,unconnected-(U1-PB5-Pad57)*%
X210225000Y-101350000D03*
%TO.P,U1,58,PB6*%
%TO.N,unconnected-(U1-PB6-Pad58)*%
X210225000Y-100850000D03*
%TO.P,U1,59,PB7*%
%TO.N,unconnected-(U1-PB7-Pad59)*%
X210225000Y-100350000D03*
%TO.P,U1,60,PH3*%
%TO.N,BOOT0*%
X210225000Y-99850000D03*
%TO.P,U1,61,PB8*%
%TO.N,unconnected-(U1-PB8-Pad61)*%
X210225000Y-99350000D03*
%TO.P,U1,62,VDD11*%
%TO.N,Net-(C10-Pad1)*%
X210225000Y-98850000D03*
%TO.P,U1,63,VSS*%
%TO.N,GND*%
X210225000Y-98350000D03*
%TO.P,U1,64,VDD*%
%TO.N,VDD*%
X210225000Y-97850000D03*
%TD*%
D28*
%TO.P,L2,1,1*%
%TO.N,V_SMPS*%
X209423000Y-108519000D03*
%TO.P,L2,2,2*%
%TO.N,Net-(C10-Pad1)*%
X209423000Y-106619000D03*
%TD*%
D22*
%TO.P,C10,1*%
%TO.N,Net-(C10-Pad1)*%
X208915000Y-97030000D03*
%TO.P,C10,2*%
%TO.N,GND*%
X208915000Y-96010000D03*
%TD*%
D29*
%TO.P,U3,1,~{CS}*%
%TO.N,QSPI_CSN*%
X204984000Y-94674000D03*
%TO.P,U3,2,DO/IO_{1}*%
%TO.N,QSPI_D1*%
X204984000Y-93404000D03*
%TO.P,U3,3,~{WP}/IO_{2}*%
%TO.N,QSPI_D2*%
X204984000Y-92134000D03*
%TO.P,U3,4,GND*%
%TO.N,GND*%
X204984000Y-90864000D03*
%TO.P,U3,5,DI/IO_{0}*%
%TO.N,QSPI_D0*%
X210384000Y-90864000D03*
%TO.P,U3,6,CLK*%
%TO.N,QSPI_CLK*%
X210384000Y-92134000D03*
%TO.P,U3,7,~{HOLD}/~{RESET}/IO_{3}*%
%TO.N,QSPI_D3*%
X210384000Y-93404000D03*
%TO.P,U3,8,VCC*%
%TO.N,VDD*%
X210384000Y-94674000D03*
D30*
%TO.P,U3,9,EP*%
%TO.N,GND*%
X207684000Y-92769000D03*
%TD*%
D31*
%TO.P,J5,A1,GND*%
%TO.N,GND*%
X218973000Y-109604000D03*
%TO.P,J5,A4,VBUS*%
%TO.N,USB_VBUS*%
X218173000Y-109604000D03*
D32*
%TO.P,J5,A5,CC1*%
%TO.N,Net-(J5-CC1)*%
X217023000Y-109604000D03*
%TO.P,J5,A6,D+*%
%TO.N,USB_D+*%
X216023000Y-109604000D03*
%TO.P,J5,A7,D-*%
%TO.N,USB_D-*%
X215523000Y-109604000D03*
%TO.P,J5,A8,SBU1*%
%TO.N,unconnected-(J5-SBU1-PadA8)*%
X214523000Y-109604000D03*
D31*
%TO.P,J5,A9,VBUS*%
%TO.N,USB_VBUS*%
X213373000Y-109604000D03*
%TO.P,J5,A12,GND*%
%TO.N,GND*%
X212573000Y-109604000D03*
%TO.P,J5,B1,GND*%
X212573000Y-109604000D03*
%TO.P,J5,B4,VBUS*%
%TO.N,USB_VBUS*%
X213373000Y-109604000D03*
D32*
%TO.P,J5,B5,CC2*%
%TO.N,Net-(J5-CC2)*%
X214023000Y-109604000D03*
%TO.P,J5,B6,D+*%
%TO.N,USB_D+*%
X215023000Y-109604000D03*
%TO.P,J5,B7,D-*%
%TO.N,USB_D-*%
X216523000Y-109604000D03*
%TO.P,J5,B8,SBU2*%
%TO.N,unconnected-(J5-SBU2-PadB8)*%
X217523000Y-109604000D03*
D31*
%TO.P,J5,B9,VBUS*%
%TO.N,USB_VBUS*%
X218173000Y-109604000D03*
%TO.P,J5,B12,GND*%
%TO.N,GND*%
X218973000Y-109604000D03*
D33*
%TO.P,J5,S1,SHIELD*%
X220093000Y-114359000D03*
D34*
X220093000Y-110179000D03*
D33*
X211453000Y-114359000D03*
D34*
X211453000Y-110179000D03*
%TD*%
D35*
%TO.P,U5,A1,VSA*%
%TO.N,GND*%
X216100000Y-89970000D03*
%TO.P,U5,A2,SCL*%
%TO.N,SCL*%
X215700000Y-89970000D03*
%TO.P,U5,B1,VDD*%
%TO.N,VDD*%
X216100000Y-90370000D03*
%TO.P,U5,B2,SDA*%
%TO.N,SDA*%
X215700000Y-90370000D03*
%TD*%
D21*
%TO.P,C9,1*%
%TO.N,Net-(C10-Pad1)*%
X221871000Y-107569000D03*
%TO.P,C9,2*%
%TO.N,GND*%
X220851000Y-107569000D03*
%TD*%
D36*
%TO.N,GND*%
X221751500Y-114147600D03*
%TO.N,Net-(C18-Pad1)*%
X222311000Y-113538000D03*
%TO.N,VDD*%
X226949000Y-112395000D03*
X223266000Y-115443000D03*
%TO.N,Net-(U10-RF1)*%
X223520000Y-114808000D03*
%TO.N,RFI_P*%
X224155000Y-113030000D03*
%TO.N,RF_O*%
X225794000Y-113411000D03*
%TO.N,RFI_N*%
X225171000Y-113030000D03*
%TO.N,SX_CSN*%
X221627880Y-111685443D03*
%TO.N,GND*%
X222758000Y-88844000D03*
X220472000Y-88844000D03*
%TO.N,RF_SW_CTRL*%
X222885000Y-108331000D03*
X220980000Y-111633000D03*
%TO.N,GND*%
X224585000Y-114968000D03*
X227535000Y-114968000D03*
X224458000Y-88359000D03*
X227408000Y-88359000D03*
%TO.N,SX_BUSY*%
X222517000Y-106807000D03*
%TO.N,GND*%
X227076000Y-105819000D03*
%TO.N,Net-(U2-VREG)*%
X227457000Y-107315000D03*
%TO.N,SX_NRST*%
X222885000Y-102489000D03*
%TO.N,+BATT*%
X212598000Y-112903000D03*
%TO.N,VDD*%
X224518000Y-107823000D03*
%TO.N,SX_CSN*%
X217805000Y-108458000D03*
%TO.N,NRST*%
X213000000Y-114575000D03*
%TO.N,VDD*%
X208788000Y-104521000D03*
%TO.N,SWCLK*%
X208798135Y-105482783D03*
X208210686Y-102177314D03*
%TO.N,Net-(C10-Pad1)*%
X208809287Y-101482659D03*
X208305003Y-105906250D03*
%TO.N,SWO*%
X214122000Y-103378000D03*
X204696000Y-112649000D03*
%TO.N,SWDIO*%
X208826000Y-103378000D03*
%TO.N,BOOT0*%
X208407000Y-111642002D03*
%TO.N,SWDIO*%
X213342753Y-106130958D03*
%TO.N,GND*%
X205985001Y-109093000D03*
X203962000Y-106172000D03*
X204343000Y-101346000D03*
%TO.N,VDD*%
X206339806Y-102301956D03*
%TO.N,NRST*%
X217043000Y-97536000D03*
X214085000Y-104538000D03*
X217398000Y-113427000D03*
%TO.N,BOOT0*%
X211455000Y-99568000D03*
%TO.N,GND*%
X225806000Y-109474000D03*
X225044000Y-107332000D03*
%TO.N,Net-(U2-DIO3)*%
X226949000Y-108077000D03*
%TO.N,Net-(U2-XTA)*%
X227711000Y-110490000D03*
%TO.N,MISO*%
X218260206Y-105335794D03*
X213614000Y-102235000D03*
X212695000Y-91470000D03*
X217100000Y-99104500D03*
%TO.N,Net-(J3-Pin_2)*%
X221681000Y-92426000D03*
%TO.N,Net-(J3-Pin_3)*%
X224155000Y-93599000D03*
%TO.N,Net-(J5-CC2)*%
X215118575Y-110920717D03*
%TO.N,Net-(J5-CC1)*%
X216578680Y-110914680D03*
%TO.N,Net-(Q1-G)*%
X220731000Y-90551000D03*
%TO.N,Net-(Q2-G)*%
X223835000Y-95425500D03*
%TO.N,Net-(Q3-G)*%
X224348000Y-91645500D03*
%TO.N,VDD*%
X218567000Y-94234000D03*
X223012000Y-99314000D03*
X211963000Y-107950000D03*
X216300000Y-99104500D03*
X209296000Y-115885000D03*
X213950000Y-93375000D03*
X204978000Y-109474000D03*
X214381793Y-98673207D03*
X203706000Y-108204000D03*
X222758000Y-103850000D03*
X220091000Y-105537000D03*
X217170000Y-91440000D03*
X211262000Y-87381500D03*
X210384000Y-94674000D03*
X209362000Y-87381500D03*
%TO.N,MOSI*%
X217322412Y-105638588D03*
X213360000Y-101600000D03*
X215519000Y-98298000D03*
X212695000Y-90820000D03*
%TO.N,SCK*%
X218059000Y-97663000D03*
X221505000Y-110995462D03*
X216154000Y-101981000D03*
X220726000Y-93091000D03*
X220726000Y-96012000D03*
%TO.N,QSPI_CSN*%
X204984000Y-94674000D03*
X218313000Y-102743000D03*
%TO.N,QSPI_D2*%
X218948000Y-100726003D03*
X204984000Y-92134000D03*
%TO.N,QSPI_D0*%
X210384000Y-90864000D03*
X220057874Y-102963874D03*
%TO.N,QSPI_D3*%
X210384000Y-93404000D03*
X220396758Y-99074649D03*
%TO.N,QSPI_D1*%
X204984000Y-93404000D03*
X218838000Y-101376006D03*
%TO.N,QSPI_CLK*%
X210384000Y-92134000D03*
X218948000Y-100076000D03*
%TO.N,GND*%
X212573000Y-109604000D03*
X210312000Y-87381500D03*
X209296000Y-113985000D03*
X217850000Y-86965000D03*
X215519000Y-99060000D03*
X205994000Y-104168000D03*
X221935000Y-95425500D03*
X207264000Y-111379000D03*
X209362000Y-89656500D03*
X211455000Y-104394000D03*
X214600000Y-88870000D03*
X223012000Y-98552000D03*
X203962000Y-111887000D03*
X212695000Y-92770000D03*
X226248000Y-91645500D03*
X214875999Y-94107000D03*
X204984000Y-90864000D03*
X222631000Y-90551000D03*
X219964000Y-104775000D03*
X217200000Y-90170000D03*
X218973000Y-109604000D03*
X214600000Y-91470000D03*
X220853000Y-105791000D03*
X214600000Y-90170000D03*
X215900000Y-88870000D03*
X217200000Y-88870000D03*
X207684000Y-92769000D03*
X211963000Y-100584000D03*
%TO.N,Net-(C10-Pad1)*%
X221378000Y-106316000D03*
X216662476Y-105153620D03*
%TO.N,V_SMPS*%
X216535000Y-105791000D03*
X219093713Y-103929233D03*
%TO.N,Net-(U1-PH0)*%
X213369174Y-97221207D03*
%TD*%
D37*
%TO.N,GND*%
X221585000Y-113538000D02*
X221585000Y-113981100D01*
X221585000Y-113981100D02*
X221751500Y-114147600D01*
X221751500Y-114147600D02*
X221599100Y-114300000D01*
X221599100Y-114300000D02*
X220152000Y-114300000D01*
X220152000Y-114300000D02*
X220093000Y-114359000D01*
X222118000Y-114300000D02*
X221903900Y-114300000D01*
X221903900Y-114300000D02*
X221751500Y-114147600D01*
X221549000Y-112649000D02*
X220726000Y-112649000D01*
X220726000Y-112649000D02*
X220093000Y-113282000D01*
X220093000Y-113282000D02*
X220093000Y-114359000D01*
D38*
%TO.N,Net-(U10-RF1)*%
X223520000Y-114808000D02*
X223266000Y-114808000D01*
X223266000Y-114808000D02*
X222758000Y-114300000D01*
%TO.N,RFI_P*%
X224155000Y-113030000D02*
X223774000Y-112649000D01*
X223774000Y-112649000D02*
X222189000Y-112649000D01*
%TO.N,RFI_N*%
X225171000Y-113030000D02*
X225171000Y-113472000D01*
X225171000Y-113472000D02*
X224409000Y-114234000D01*
D37*
%TO.N,SCK*%
X219651176Y-108585000D02*
X219150000Y-108083824D01*
X221505000Y-110995462D02*
X221361000Y-110851462D01*
X221361000Y-110851462D02*
X221361000Y-109601000D01*
X221361000Y-109601000D02*
X220345000Y-108585000D01*
X220345000Y-108585000D02*
X219651176Y-108585000D01*
X219150000Y-108083824D02*
X219150000Y-107275000D01*
%TO.N,VDD*%
X211963000Y-107950000D02*
X210323000Y-109590000D01*
X210323000Y-109590000D02*
X210323000Y-111580000D01*
X210323000Y-111580000D02*
X209397000Y-112506000D01*
X212150000Y-107275000D02*
X212150000Y-107763000D01*
X212150000Y-107763000D02*
X211963000Y-107950000D01*
%TO.N,BOOT0*%
X211300000Y-99850000D02*
X210225000Y-99850000D01*
X211455000Y-99695000D02*
X211300000Y-99850000D01*
X211455000Y-99568000D02*
X211455000Y-99695000D01*
%TO.N,GND*%
X210225000Y-98350000D02*
X211033824Y-98350000D01*
X211033824Y-98350000D02*
X212217000Y-99533176D01*
X212217000Y-100330000D02*
X211963000Y-100584000D01*
X212217000Y-99533176D02*
X212217000Y-100330000D01*
%TO.N,Net-(U2-DIO3)*%
X222631000Y-107569000D02*
X223393000Y-106807000D01*
X223706000Y-110874000D02*
X223650000Y-110874000D01*
X223650000Y-110874000D02*
X221869000Y-109093000D01*
X221869000Y-109093000D02*
X221869000Y-108511340D01*
X221869000Y-108511340D02*
X222631000Y-107749340D01*
X222631000Y-107749340D02*
X222631000Y-107569000D01*
X226951000Y-107757001D02*
X226951000Y-108077000D01*
X223393000Y-106807000D02*
X226000999Y-106807000D01*
X226000999Y-106807000D02*
X226951000Y-107757001D01*
%TO.N,SX_BUSY*%
X223284000Y-103632123D02*
X222501877Y-102850000D01*
X223052000Y-106513000D02*
X223052000Y-104299877D01*
X222517000Y-106807000D02*
X222758000Y-106807000D01*
X222758000Y-106807000D02*
X223052000Y-106513000D01*
X223284000Y-104067877D02*
X223284000Y-103632123D01*
X223052000Y-104299877D02*
X223284000Y-104067877D01*
X222501877Y-102850000D02*
X221575000Y-102850000D01*
%TO.N,Net-(U2-VREG)*%
X227457000Y-107315000D02*
X227457000Y-107160000D01*
X227457000Y-107160000D02*
X227076000Y-106779000D01*
%TO.N,SX_NRST*%
X222746000Y-102350000D02*
X222885000Y-102489000D01*
X221575000Y-102350000D02*
X222746000Y-102350000D01*
%TO.N,VDD*%
X222758000Y-103850000D02*
X221575000Y-103850000D01*
%TO.N,BOOT0*%
X208915000Y-111581000D02*
X209397000Y-111099000D01*
X208407000Y-111642002D02*
X208468002Y-111581000D01*
X209397000Y-111099000D02*
X209397000Y-110506000D01*
X208468002Y-111581000D02*
X208915000Y-111581000D01*
%TO.N,VDD*%
X206375000Y-102299000D02*
X205105000Y-101029000D01*
X205105000Y-96901000D02*
X206756000Y-95250000D01*
X205105000Y-101029000D02*
X205105000Y-96901000D01*
X206756000Y-95250000D02*
X209808000Y-95250000D01*
X209808000Y-95250000D02*
X210384000Y-94674000D01*
%TO.N,SX_CSN*%
X217650000Y-108303000D02*
X217805000Y-108458000D01*
X217650000Y-107275000D02*
X217650000Y-108303000D01*
%TO.N,SWDIO*%
X213150000Y-106382000D02*
X213150000Y-107275000D01*
X213342753Y-106130958D02*
X213342753Y-106189247D01*
X213342753Y-106189247D02*
X213150000Y-106382000D01*
%TO.N,Net-(C10-Pad1)*%
X208818946Y-101473000D02*
X208818946Y-99441000D01*
X208818946Y-98444878D02*
X208915000Y-98348824D01*
X208818946Y-101473000D02*
X208818946Y-98444878D01*
X208915000Y-98348824D02*
X208915000Y-97030000D01*
X208809287Y-101482659D02*
X208818946Y-101473000D01*
X208818946Y-99441000D02*
X209409946Y-98850000D01*
X209409946Y-98850000D02*
X210225000Y-98850000D01*
%TO.N,SWCLK*%
X208153000Y-102235000D02*
X208153000Y-102298000D01*
X208153000Y-102298000D02*
X207152000Y-103299000D01*
X208210686Y-102177314D02*
X208153000Y-102235000D01*
X207152000Y-103299000D02*
X204625000Y-103299000D01*
%TO.N,SWO*%
X204597000Y-112550000D02*
X204597000Y-111760000D01*
X204343000Y-108712000D02*
X204343000Y-107581000D01*
X204696000Y-112649000D02*
X204597000Y-112550000D01*
X204343000Y-107581000D02*
X204625000Y-107299000D01*
X204597000Y-111760000D02*
X203962000Y-111125000D01*
X203962000Y-109093000D02*
X204343000Y-108712000D01*
X203962000Y-111125000D02*
X203962000Y-109093000D01*
%TO.N,NRST*%
X205451000Y-108239000D02*
X205827877Y-108239000D01*
X204452000Y-109238000D02*
X205451000Y-108239000D01*
X204452000Y-110980000D02*
X204452000Y-109238000D01*
X205232000Y-111760000D02*
X204452000Y-110980000D01*
X211878000Y-115697000D02*
X210693000Y-115697000D01*
X205221000Y-112965000D02*
X205221000Y-111771000D01*
X205540000Y-113284000D02*
X205221000Y-112965000D01*
X208280000Y-114935000D02*
X206629000Y-113284000D01*
X209931000Y-114935000D02*
X208280000Y-114935000D01*
X210693000Y-115697000D02*
X209931000Y-114935000D01*
X205221000Y-111771000D02*
X205232000Y-111760000D01*
X206629000Y-113284000D02*
X205540000Y-113284000D01*
X213000000Y-114575000D02*
X211878000Y-115697000D01*
X205827877Y-108239000D02*
X206375000Y-107691877D01*
X206375000Y-107691877D02*
X206375000Y-106299000D01*
%TO.N,GND*%
X207038000Y-108839000D02*
X206239001Y-108839000D01*
X206239001Y-108839000D02*
X205985001Y-109093000D01*
%TO.N,SWCLK*%
X208798135Y-105482783D02*
X208969217Y-105482783D01*
X208969217Y-105482783D02*
X209102000Y-105350000D01*
X209102000Y-105350000D02*
X210225000Y-105350000D01*
%TO.N,Net-(C10-Pad1)*%
X209423000Y-106619000D02*
X209017753Y-106619000D01*
X209017753Y-106619000D02*
X208305003Y-105906250D01*
X208305003Y-105906250D02*
X208305003Y-105911402D01*
X208305003Y-105911402D02*
X208377601Y-105984000D01*
%TO.N,SWDIO*%
X208280000Y-103924000D02*
X208280000Y-104171000D01*
X208280000Y-104171000D02*
X207152000Y-105299000D01*
X208826000Y-103378000D02*
X208280000Y-103924000D01*
X207152000Y-105299000D02*
X204625000Y-105299000D01*
%TO.N,Net-(C10-Pad1)*%
X209042000Y-106238000D02*
X209423000Y-106619000D01*
%TO.N,SWO*%
X214122000Y-103378000D02*
X212114000Y-103378000D01*
X212114000Y-103378000D02*
X211086000Y-102350000D01*
X211086000Y-102350000D02*
X210225000Y-102350000D01*
%TO.N,MOSI*%
X217322412Y-105638588D02*
X217322412Y-105054412D01*
X217322412Y-105054412D02*
X214904000Y-102636000D01*
X214904000Y-102636000D02*
X213956877Y-102636000D01*
X213106000Y-102616000D02*
X212979000Y-102489000D01*
X213956877Y-102636000D02*
X213831877Y-102761000D01*
X213831877Y-102761000D02*
X213396123Y-102761000D01*
X213251123Y-102616000D02*
X213106000Y-102616000D01*
X213396123Y-102761000D02*
X213251123Y-102616000D01*
X212979000Y-102489000D02*
X212979000Y-101981000D01*
X212979000Y-101981000D02*
X213360000Y-101600000D01*
%TO.N,Net-(C10-Pad1)*%
X209423000Y-106619000D02*
X210754000Y-106619000D01*
X213360000Y-104013000D02*
X215521856Y-104013000D01*
X210754000Y-106619000D02*
X213360000Y-104013000D01*
X215521856Y-104013000D02*
X216662476Y-105153620D01*
%TO.N,VDD*%
X205481000Y-111107000D02*
X206147000Y-111773000D01*
X204978000Y-109474000D02*
X204978000Y-110604000D01*
X204978000Y-110604000D02*
X205221000Y-110847000D01*
X205221000Y-111107000D02*
X205481000Y-111107000D01*
X205221000Y-110847000D02*
X205221000Y-111107000D01*
X206147000Y-111773000D02*
X206147000Y-112506000D01*
X206147000Y-112506000D02*
X209397000Y-112506000D01*
%TO.N,GND*%
X205994000Y-104168000D02*
X206244000Y-104168000D01*
X206244000Y-104168000D02*
X206375000Y-104299000D01*
%TO.N,V_SMPS*%
X216535000Y-105791000D02*
X215900000Y-105156000D01*
X215900000Y-105156000D02*
X212786000Y-105156000D01*
X212786000Y-105156000D02*
X209423000Y-108519000D01*
%TO.N,BOOT0*%
X209397000Y-110506000D02*
X209397000Y-110238000D01*
X209397000Y-110238000D02*
X207998000Y-108839000D01*
X206147000Y-110506000D02*
X209397000Y-110506000D01*
%TO.N,NRST*%
X217043000Y-97536000D02*
X216789000Y-97282000D01*
X216789000Y-97282000D02*
X215698176Y-97282000D01*
X215698176Y-97282000D02*
X215150000Y-96733824D01*
X215150000Y-96733824D02*
X215150000Y-95925000D01*
%TO.N,SCK*%
X216154000Y-101981000D02*
X217626000Y-100509000D01*
X217626000Y-100509000D02*
X217626000Y-98096000D01*
X217626000Y-98096000D02*
X218059000Y-97663000D01*
%TO.N,Net-(J5-CC2)*%
X215118575Y-110920717D02*
X214730893Y-110920717D01*
X214730893Y-110920717D02*
X214023000Y-110212824D01*
X214023000Y-110212824D02*
X214023000Y-109604000D01*
%TO.N,Net-(J5-CC1)*%
X216578680Y-110914680D02*
X216578680Y-110700320D01*
X216578680Y-110700320D02*
X217023000Y-110256000D01*
X217023000Y-110256000D02*
X217023000Y-109604000D01*
%TO.N,GND*%
X225806000Y-109474000D02*
X225806000Y-108202000D01*
X225806000Y-108202000D02*
X225931000Y-108077000D01*
X225931000Y-107444000D02*
X225931000Y-108077000D01*
X225044000Y-107332000D02*
X225819000Y-107332000D01*
X225819000Y-107332000D02*
X225931000Y-107444000D01*
%TO.N,Net-(Y2-OUT)*%
X225042000Y-112141000D02*
X225042000Y-111638000D01*
X225042000Y-111638000D02*
X225806000Y-110874000D01*
%TO.N,Net-(C11-Pad1)*%
X227076000Y-111508000D02*
X226695000Y-111508000D01*
X226695000Y-111508000D02*
X226062000Y-112141000D01*
%TO.N,Net-(U2-XTA)*%
X227076000Y-110492000D02*
X227709000Y-110492000D01*
D39*
%TO.N,USB_D-*%
X216112824Y-108585000D02*
X215265000Y-108585000D01*
X214249000Y-108361000D02*
X214150000Y-108262000D01*
X214150000Y-108262000D02*
X214150000Y-107275000D01*
X215041000Y-108361000D02*
X214249000Y-108361000D01*
X216523000Y-109604000D02*
X216523000Y-108995176D01*
X215265000Y-108585000D02*
X215041000Y-108361000D01*
X216523000Y-108995176D02*
X216112824Y-108585000D01*
X215523000Y-108843000D02*
X215265000Y-108585000D01*
%TO.N,USB_D+*%
X213650000Y-107275000D02*
X213650000Y-108494000D01*
X213868000Y-108712000D02*
X214705999Y-108712000D01*
X215300532Y-110455000D02*
X215800000Y-110455000D01*
X215800000Y-110455000D02*
X216023000Y-110232000D01*
X216023000Y-110232000D02*
X216023000Y-109604000D01*
X215023000Y-109029001D02*
X215023000Y-109604000D01*
X215023000Y-109604000D02*
X215023000Y-110177468D01*
X213650000Y-108494000D02*
X213868000Y-108712000D01*
X214705999Y-108712000D02*
X215023000Y-109029001D01*
D37*
%TO.N,USB_VBUS*%
X214954002Y-111760000D02*
X213373000Y-110178998D01*
X213373000Y-110178998D02*
X213373000Y-109604000D01*
X218173000Y-110062824D02*
X216475824Y-111760000D01*
X218173000Y-109604000D02*
X218173000Y-110062824D01*
X216475824Y-111760000D02*
X214954002Y-111760000D01*
%TO.N,MISO*%
X212554207Y-97746207D02*
X211582000Y-96774000D01*
X214503000Y-102235000D02*
X213614000Y-102235000D01*
X211582000Y-96774000D02*
X211582000Y-92583000D01*
X217100000Y-99104500D02*
X217100000Y-98651649D01*
X215560100Y-97772000D02*
X215534307Y-97746207D01*
X213614000Y-102235000D02*
X215159412Y-102235000D01*
X215736877Y-97772000D02*
X215560100Y-97772000D01*
X216238351Y-97790000D02*
X215754877Y-97790000D01*
X218260206Y-105335794D02*
X218650000Y-105725588D01*
X217100000Y-99104500D02*
X217100000Y-99638000D01*
X217100000Y-99638000D02*
X214503000Y-102235000D01*
X215754877Y-97790000D02*
X215736877Y-97772000D01*
X217100000Y-98651649D02*
X216238351Y-97790000D01*
X218650000Y-105725588D02*
X218650000Y-107275000D01*
X211582000Y-92583000D02*
X212695000Y-91470000D01*
X215534307Y-97746207D02*
X212554207Y-97746207D01*
X215159412Y-102235000D02*
X218260206Y-105335794D01*
D40*
%TO.N,Net-(J3-Pin_4)*%
X226568000Y-95602500D02*
X224507500Y-97663000D01*
X225298000Y-93520500D02*
X226568000Y-94790500D01*
X226568000Y-94790500D02*
X226568000Y-95602500D01*
%TO.N,Net-(J3-Pin_3)*%
X223339468Y-93550500D02*
X224106500Y-93550500D01*
X224106500Y-93550500D02*
X224155000Y-93599000D01*
X222885000Y-93550500D02*
X223339468Y-93550500D01*
D37*
%TO.N,VDD*%
X220218000Y-105664000D02*
X220218000Y-106707000D01*
X212150000Y-95925000D02*
X212150000Y-93793000D01*
X216100000Y-90370000D02*
X217170000Y-91440000D01*
X218150000Y-95925000D02*
X218150000Y-94651000D01*
X213950000Y-93877001D02*
X213919401Y-93907600D01*
X210384000Y-97691000D02*
X210225000Y-97850000D01*
X220218000Y-106707000D02*
X219650000Y-107275000D01*
X221575000Y-98850000D02*
X222548000Y-98850000D01*
X210384000Y-94674000D02*
X210384000Y-97691000D01*
X220091000Y-105537000D02*
X220091000Y-105525176D01*
X218150000Y-94651000D02*
X218567000Y-94234000D01*
X212150000Y-93793000D02*
X212568000Y-93375000D01*
X213950000Y-93375000D02*
X213950000Y-93877001D01*
X212568000Y-93375000D02*
X213950000Y-93375000D01*
X213919401Y-93907600D02*
X213876001Y-93907600D01*
X222548000Y-98850000D02*
X223012000Y-99314000D01*
X220091000Y-105537000D02*
X220218000Y-105664000D01*
%TO.N,MOSI*%
X215368207Y-98147207D02*
X215519000Y-98298000D01*
X218150000Y-106466176D02*
X217322412Y-105638588D01*
X213360000Y-100457000D02*
X213360000Y-101600000D01*
X212695000Y-90820000D02*
X212215000Y-90820000D01*
X215519000Y-98298000D02*
X213360000Y-100457000D01*
X212320207Y-98147207D02*
X215368207Y-98147207D01*
X212215000Y-90820000D02*
X211181000Y-91854000D01*
X211181000Y-91854000D02*
X211181000Y-97008000D01*
X211181000Y-97008000D02*
X212320207Y-98147207D01*
X218150000Y-107275000D02*
X218150000Y-106466176D01*
%TO.N,SCK*%
X220726000Y-93091000D02*
X220726000Y-96012000D01*
X219150000Y-107275000D02*
X219150000Y-104977000D01*
X219150000Y-104977000D02*
X216154000Y-101981000D01*
%TO.N,QSPI_CSN*%
X218313000Y-98933000D02*
X219650000Y-97596000D01*
X219650000Y-97596000D02*
X219650000Y-95925000D01*
X218313000Y-102743000D02*
X218313000Y-98933000D01*
%TO.N,SCL*%
X215650000Y-91952000D02*
X215265000Y-91567000D01*
X215265000Y-91499100D02*
X215118000Y-91352100D01*
X215118000Y-91352100D02*
X215118000Y-90395877D01*
X215650000Y-95925000D02*
X215650000Y-91952000D01*
X215126000Y-90387877D02*
X215126000Y-90182000D01*
X215118000Y-90395877D02*
X215126000Y-90387877D01*
X215338000Y-89970000D02*
X215700000Y-89970000D01*
X215265000Y-91567000D02*
X215265000Y-91499100D01*
X215126000Y-90182000D02*
X215338000Y-89970000D01*
%TO.N,SDA*%
X216150000Y-91817000D02*
X216150000Y-95925000D01*
X215519000Y-91186000D02*
X216150000Y-91817000D01*
X215700000Y-90370000D02*
X215519000Y-90551000D01*
X215519000Y-90551000D02*
X215519000Y-91186000D01*
%TO.N,QSPI_D2*%
X220087997Y-100850000D02*
X221575000Y-100850000D01*
X218948000Y-100726003D02*
X219964000Y-100726003D01*
X219964000Y-100726003D02*
X220087997Y-100850000D01*
%TO.N,QSPI_D0*%
X220233883Y-101850000D02*
X221575000Y-101850000D01*
X220057874Y-102963874D02*
X220057874Y-102026009D01*
X220057874Y-102026009D02*
X220233883Y-101850000D01*
%TO.N,QSPI_D3*%
X220091000Y-100109126D02*
X220331874Y-100350000D01*
X220331874Y-100350000D02*
X221575000Y-100350000D01*
X220396758Y-99074649D02*
X220396758Y-99147627D01*
X220396758Y-99147627D02*
X220091000Y-99453385D01*
X220091000Y-99453385D02*
X220091000Y-100109126D01*
%TO.N,QSPI_D1*%
X218838085Y-101375921D02*
X219964085Y-101375921D01*
X219964085Y-101375921D02*
X219990006Y-101350000D01*
X218838000Y-101376006D02*
X218838085Y-101375921D01*
X219990006Y-101350000D02*
X221575000Y-101350000D01*
%TO.N,QSPI_CLK*%
X218948000Y-100076000D02*
X218948000Y-99668176D01*
X220766176Y-97850000D02*
X221575000Y-97850000D01*
X218948000Y-99668176D02*
X220766176Y-97850000D01*
%TO.N,GND*%
X219518000Y-109604000D02*
X220093000Y-110179000D01*
X208663000Y-96010000D02*
X207137000Y-97536000D01*
X221575000Y-104350000D02*
X220389000Y-104350000D01*
X211453000Y-110179000D02*
X211453000Y-114359000D01*
X222810000Y-98350000D02*
X223012000Y-98552000D01*
X220853000Y-106426000D02*
X220851000Y-106428000D01*
X208915000Y-96010000D02*
X208663000Y-96010000D01*
X214875999Y-94107000D02*
X214875999Y-93951000D01*
X212028000Y-109604000D02*
X211453000Y-110179000D01*
X221575000Y-105704000D02*
X221575000Y-105350000D01*
X220853000Y-105791000D02*
X221488000Y-105791000D01*
X212650000Y-109527000D02*
X212573000Y-109604000D01*
X212573000Y-109604000D02*
X212028000Y-109604000D01*
X214875999Y-94361000D02*
X214875999Y-94107000D01*
X220851000Y-106428000D02*
X220851000Y-107569000D01*
X220853000Y-105791000D02*
X220853000Y-106426000D01*
X218059000Y-92202000D02*
X218059000Y-91029000D01*
X220389000Y-104350000D02*
X219964000Y-104775000D01*
X221488000Y-105791000D02*
X221575000Y-105704000D01*
X218059000Y-91029000D02*
X217200000Y-90170000D01*
X221575000Y-98350000D02*
X222810000Y-98350000D01*
X216100000Y-89970000D02*
X217200000Y-88870000D01*
X218973000Y-109604000D02*
X219518000Y-109604000D01*
X220093000Y-114359000D02*
X220093000Y-110179000D01*
X217650000Y-92611000D02*
X218059000Y-92202000D01*
X212650000Y-107275000D02*
X212650000Y-109527000D01*
X217650000Y-95925000D02*
X217650000Y-92611000D01*
%TO.N,Net-(C10-Pad1)*%
X221378000Y-106316000D02*
X222233000Y-106316000D01*
X222233000Y-106316000D02*
X222651000Y-105898000D01*
X221509000Y-106316000D02*
X221871000Y-106678000D01*
X221871000Y-106678000D02*
X221871000Y-107569000D01*
X222383824Y-104850000D02*
X221575000Y-104850000D01*
X222651000Y-105898000D02*
X222651000Y-105117176D01*
X222651000Y-105117176D02*
X222383824Y-104850000D01*
X221378000Y-106316000D02*
X221509000Y-106316000D01*
%TO.N,V_SMPS*%
X220218000Y-103886000D02*
X219075000Y-103886000D01*
X221575000Y-103350000D02*
X220754000Y-103350000D01*
X221547000Y-103378000D02*
X221575000Y-103350000D01*
X220754000Y-103350000D02*
X220218000Y-103886000D01*
%TO.N,Net-(U1-PC14)*%
X213832601Y-94404400D02*
X213876001Y-94404400D01*
X213150000Y-95087001D02*
X213832601Y-94404400D01*
X213150000Y-95925000D02*
X213150000Y-95087001D01*
%TO.N,Net-(U1-PH0)*%
X213435381Y-97155000D02*
X213728824Y-97155000D01*
X213369174Y-97221207D02*
X213435381Y-97155000D01*
X214150000Y-96733824D02*
X214150000Y-95925000D01*
X213728824Y-97155000D02*
X214150000Y-96733824D01*
D39*
%TO.N,USB_D+*%
X215023000Y-110177468D02*
X215300532Y-110455000D01*
%TO.N,USB_D-*%
X215523000Y-109604000D02*
X215523000Y-108843000D01*
%TD*%
M02*
