%TF.GenerationSoftware,KiCad,Pcbnew,9.0.3+dfsg-1*%
%TF.CreationDate,2026-05-09T19:23:04-05:00*%
%TF.ProjectId,RocketryFlightComputer_v0.1,526f636b-6574-4727-9946-6c6967687443,rev?*%
%TF.SameCoordinates,Original*%
%TF.FileFunction,Soldermask,Top*%
%TF.FilePolarity,Negative*%
%FSLAX46Y46*%
G04 Gerber Fmt 4.6, Leading zero omitted, Abs format (unit mm)*
G04 Created by KiCad (PCBNEW 9.0.3+dfsg-1) date 2026-05-09 19:23:04*
%MOMM*%
%LPD*%
G01*
G04 APERTURE LIST*
G04 Aperture macros list*
%AMRoundRect*
0 Rectangle with rounded corners*
0 $1 Rounding radius*
0 $2 $3 $4 $5 $6 $7 $8 $9 X,Y pos of 4 corners*
0 Add a 4 corners polygon primitive as box body*
4,1,4,$2,$3,$4,$5,$6,$7,$8,$9,$2,$3,0*
0 Add four circle primitives for the rounded corners*
1,1,$1+$1,$2,$3*
1,1,$1+$1,$4,$5*
1,1,$1+$1,$6,$7*
1,1,$1+$1,$8,$9*
0 Add four rect primitives between the rounded corners*
20,1,$1+$1,$2,$3,$4,$5,0*
20,1,$1+$1,$4,$5,$6,$7,0*
20,1,$1+$1,$6,$7,$8,$9,0*
20,1,$1+$1,$8,$9,$2,$3,0*%
G04 Aperture macros list end*
%ADD10C,0.000000*%
%ADD11RoundRect,0.100000X-0.130000X-0.100000X0.130000X-0.100000X0.130000X0.100000X-0.130000X0.100000X0*%
%ADD12RoundRect,0.100000X0.130000X0.100000X-0.130000X0.100000X-0.130000X-0.100000X0.130000X-0.100000X0*%
%ADD13R,0.228600X0.254000*%
%ADD14R,0.254000X0.406400*%
%ADD15RoundRect,0.135000X-0.135000X-0.185000X0.135000X-0.185000X0.135000X0.185000X-0.135000X0.185000X0*%
%ADD16RoundRect,0.140000X-0.170000X0.140000X-0.170000X-0.140000X0.170000X-0.140000X0.170000X0.140000X0*%
%ADD17RoundRect,0.140000X0.140000X0.170000X-0.140000X0.170000X-0.140000X-0.170000X0.140000X-0.170000X0*%
%ADD18RoundRect,0.250000X-0.250000X0.275000X-0.250000X-0.275000X0.250000X-0.275000X0.250000X0.275000X0*%
%ADD19RoundRect,0.250000X-0.275000X0.850000X-0.275000X-0.850000X0.275000X-0.850000X0.275000X0.850000X0*%
%ADD20RoundRect,0.250000X0.250000X-0.275000X0.250000X0.275000X-0.250000X0.275000X-0.250000X-0.275000X0*%
%ADD21RoundRect,0.250000X0.275000X-0.850000X0.275000X0.850000X-0.275000X0.850000X-0.275000X-0.850000X0*%
%ADD22RoundRect,0.102000X-0.250000X0.250000X-0.250000X-0.250000X0.250000X-0.250000X0.250000X0.250000X0*%
%ADD23RoundRect,0.102000X-0.280000X0.215000X-0.280000X-0.215000X0.280000X-0.215000X0.280000X0.215000X0*%
%ADD24RoundRect,0.102000X-0.215000X0.280000X-0.215000X-0.280000X0.215000X-0.280000X0.215000X0.280000X0*%
%ADD25R,2.600000X2.600000*%
%ADD26RoundRect,0.062500X0.062500X0.350000X-0.062500X0.350000X-0.062500X-0.350000X0.062500X-0.350000X0*%
%ADD27RoundRect,0.062500X0.350000X0.062500X-0.350000X0.062500X-0.350000X-0.062500X0.350000X-0.062500X0*%
%ADD28RoundRect,0.250000X0.475000X-0.250000X0.475000X0.250000X-0.475000X0.250000X-0.475000X-0.250000X0*%
%ADD29RoundRect,0.102000X0.500000X0.250000X-0.500000X0.250000X-0.500000X-0.250000X0.500000X-0.250000X0*%
%ADD30RoundRect,0.102000X0.625000X0.300000X-0.625000X0.300000X-0.625000X-0.300000X0.625000X-0.300000X0*%
%ADD31RoundRect,0.140000X-0.140000X-0.170000X0.140000X-0.170000X0.140000X0.170000X-0.140000X0.170000X0*%
%ADD32RoundRect,0.225000X0.250000X-0.225000X0.250000X0.225000X-0.250000X0.225000X-0.250000X-0.225000X0*%
%ADD33RoundRect,0.250000X-0.250000X-0.475000X0.250000X-0.475000X0.250000X0.475000X-0.250000X0.475000X0*%
%ADD34RoundRect,0.225000X-0.250000X0.225000X-0.250000X-0.225000X0.250000X-0.225000X0.250000X0.225000X0*%
%ADD35RoundRect,0.135000X-0.185000X0.135000X-0.185000X-0.135000X0.185000X-0.135000X0.185000X0.135000X0*%
%ADD36R,0.240000X0.599999*%
%ADD37R,0.599999X0.240000*%
%ADD38R,0.700001X0.850001*%
%ADD39R,0.349999X1.450000*%
%ADD40R,0.349999X1.799999*%
%ADD41RoundRect,0.087500X-0.187500X-0.087500X0.187500X-0.087500X0.187500X0.087500X-0.187500X0.087500X0*%
%ADD42RoundRect,0.087500X-0.087500X-0.187500X0.087500X-0.187500X0.087500X0.187500X-0.087500X0.187500X0*%
%ADD43C,2.200000*%
%ADD44RoundRect,0.102000X-0.373000X-0.323000X0.373000X-0.323000X0.373000X0.323000X-0.373000X0.323000X0*%
%ADD45RoundRect,0.250000X-0.750000X0.750000X-0.750000X-0.750000X0.750000X-0.750000X0.750000X0.750000X0*%
%ADD46C,2.000000*%
%ADD47RoundRect,0.135000X0.135000X0.185000X-0.135000X0.185000X-0.135000X-0.185000X0.135000X-0.185000X0*%
%ADD48RoundRect,0.250000X0.750000X-0.750000X0.750000X0.750000X-0.750000X0.750000X-0.750000X-0.750000X0*%
%ADD49RoundRect,0.125000X-0.125000X-0.137500X0.125000X-0.137500X0.125000X0.137500X-0.125000X0.137500X0*%
%ADD50RoundRect,0.150000X-0.150000X0.512500X-0.150000X-0.512500X0.150000X-0.512500X0.150000X0.512500X0*%
%ADD51R,1.500000X1.200000*%
%ADD52C,0.650000*%
%ADD53O,1.000000X1.800000*%
%ADD54O,1.000000X2.100000*%
G04 APERTURE END LIST*
%TO.C,J6*%
G36*
X226873000Y-87369000D02*
G01*
X224993000Y-87369000D01*
X224993000Y-89459000D01*
X226873000Y-89459000D01*
X226873000Y-87369000D01*
G37*
%TO.C,J2*%
G36*
X225120000Y-115958000D02*
G01*
X227000000Y-115958000D01*
X227000000Y-113868000D01*
X225120000Y-113868000D01*
X225120000Y-115958000D01*
G37*
D10*
%TO.C,U8*%
G36*
X205869756Y-107338960D02*
G01*
X205879136Y-107341805D01*
X205887780Y-107346427D01*
X205895357Y-107352645D01*
X205901574Y-107360222D01*
X205906195Y-107368866D01*
X205909040Y-107378246D01*
X205910000Y-107388000D01*
X205910000Y-108038001D01*
X205909040Y-108047754D01*
X205906195Y-108057135D01*
X205901574Y-108065778D01*
X205895357Y-108073355D01*
X205887780Y-108079573D01*
X205879136Y-108084196D01*
X205869756Y-108087041D01*
X205860000Y-108088001D01*
X205710000Y-108088001D01*
X205700246Y-108087041D01*
X205690866Y-108084196D01*
X205682223Y-108079573D01*
X205674646Y-108073355D01*
X205668428Y-108065778D01*
X205663808Y-108057135D01*
X205660963Y-108047754D01*
X205660000Y-108038001D01*
X205660000Y-107388000D01*
X205660963Y-107378246D01*
X205663808Y-107368866D01*
X205668428Y-107360222D01*
X205674646Y-107352645D01*
X205682223Y-107346427D01*
X205690866Y-107341805D01*
X205700246Y-107338960D01*
X205710000Y-107338000D01*
X205860000Y-107338000D01*
X205869756Y-107338960D01*
G37*
G36*
X205869753Y-107338960D02*
G01*
X205879134Y-107341805D01*
X205887777Y-107346425D01*
X205895354Y-107352643D01*
X205901572Y-107360220D01*
X205906195Y-107368863D01*
X205909040Y-107378243D01*
X205910000Y-107388000D01*
X205910000Y-107537999D01*
X205909040Y-107547753D01*
X205906195Y-107557133D01*
X205901572Y-107565777D01*
X205895354Y-107573354D01*
X205887777Y-107579571D01*
X205879134Y-107584192D01*
X205869753Y-107587037D01*
X205860000Y-107587999D01*
X205360001Y-107587999D01*
X205350247Y-107587037D01*
X205340867Y-107584192D01*
X205332223Y-107579571D01*
X205324646Y-107573354D01*
X205318429Y-107565777D01*
X205313806Y-107557133D01*
X205310961Y-107547753D01*
X205310001Y-107537999D01*
X205310001Y-107388000D01*
X205310961Y-107378243D01*
X205313806Y-107368863D01*
X205318429Y-107360220D01*
X205324646Y-107352643D01*
X205332223Y-107346425D01*
X205340867Y-107341805D01*
X205350247Y-107338960D01*
X205360001Y-107338000D01*
X205860000Y-107338000D01*
X205869753Y-107338960D01*
G37*
G36*
X205869753Y-107838964D02*
G01*
X205879134Y-107841809D01*
X205887777Y-107846429D01*
X205895354Y-107852647D01*
X205901572Y-107860224D01*
X205906195Y-107868867D01*
X205909040Y-107878248D01*
X205910000Y-107888001D01*
X205910000Y-108038001D01*
X205909040Y-108047757D01*
X205906195Y-108057137D01*
X205901572Y-108065781D01*
X205895354Y-108073358D01*
X205887777Y-108079576D01*
X205879134Y-108084196D01*
X205869753Y-108087041D01*
X205860000Y-108088001D01*
X205360001Y-108088001D01*
X205350247Y-108087041D01*
X205340867Y-108084196D01*
X205332223Y-108079576D01*
X205324646Y-108073358D01*
X205318429Y-108065781D01*
X205313806Y-108057137D01*
X205310961Y-108047757D01*
X205310001Y-108038001D01*
X205310001Y-107888001D01*
X205310961Y-107878248D01*
X205313806Y-107868867D01*
X205318429Y-107860224D01*
X205324646Y-107852647D01*
X205332223Y-107846429D01*
X205340867Y-107841809D01*
X205350247Y-107838964D01*
X205360001Y-107838001D01*
X205860000Y-107838001D01*
X205869753Y-107838964D01*
G37*
G36*
X208669753Y-107338960D02*
G01*
X208679133Y-107341805D01*
X208687777Y-107346425D01*
X208695354Y-107352643D01*
X208701571Y-107360220D01*
X208706194Y-107368863D01*
X208709039Y-107378243D01*
X208709999Y-107388000D01*
X208709999Y-107537999D01*
X208709039Y-107547753D01*
X208706194Y-107557133D01*
X208701571Y-107565777D01*
X208695354Y-107573354D01*
X208687777Y-107579571D01*
X208679133Y-107584192D01*
X208669753Y-107587037D01*
X208659999Y-107587999D01*
X208160000Y-107587999D01*
X208150247Y-107587037D01*
X208140866Y-107584192D01*
X208132223Y-107579571D01*
X208124646Y-107573354D01*
X208118428Y-107565777D01*
X208113805Y-107557133D01*
X208110960Y-107547753D01*
X208110000Y-107537999D01*
X208110000Y-107388000D01*
X208110960Y-107378243D01*
X208113805Y-107368863D01*
X208118428Y-107360220D01*
X208124646Y-107352643D01*
X208132223Y-107346425D01*
X208140866Y-107341805D01*
X208150247Y-107338960D01*
X208160000Y-107338000D01*
X208659999Y-107338000D01*
X208669753Y-107338960D01*
G37*
G36*
X208669753Y-107838964D02*
G01*
X208679133Y-107841809D01*
X208687777Y-107846429D01*
X208695354Y-107852647D01*
X208701571Y-107860224D01*
X208706194Y-107868867D01*
X208709039Y-107878248D01*
X208709999Y-107888001D01*
X208709999Y-108038001D01*
X208709039Y-108047757D01*
X208706194Y-108057137D01*
X208701571Y-108065781D01*
X208695354Y-108073358D01*
X208687777Y-108079576D01*
X208679133Y-108084196D01*
X208669753Y-108087041D01*
X208659999Y-108088001D01*
X208160000Y-108088001D01*
X208150247Y-108087041D01*
X208140866Y-108084196D01*
X208132223Y-108079576D01*
X208124646Y-108073358D01*
X208118428Y-108065781D01*
X208113805Y-108057137D01*
X208110960Y-108047757D01*
X208110000Y-108038001D01*
X208110000Y-107888001D01*
X208110960Y-107878248D01*
X208113805Y-107868867D01*
X208118428Y-107860224D01*
X208124646Y-107852647D01*
X208132223Y-107846429D01*
X208140866Y-107841809D01*
X208150247Y-107838964D01*
X208160000Y-107838001D01*
X208659999Y-107838001D01*
X208669753Y-107838964D01*
G37*
G36*
X208319754Y-107338960D02*
G01*
X208329134Y-107341805D01*
X208337777Y-107346427D01*
X208345354Y-107352645D01*
X208351572Y-107360222D01*
X208356192Y-107368866D01*
X208359037Y-107378246D01*
X208360000Y-107388000D01*
X208360000Y-108038001D01*
X208359037Y-108047754D01*
X208356192Y-108057135D01*
X208351572Y-108065778D01*
X208345354Y-108073355D01*
X208337777Y-108079573D01*
X208329134Y-108084196D01*
X208319754Y-108087041D01*
X208310000Y-108088001D01*
X208160000Y-108088001D01*
X208150244Y-108087041D01*
X208140864Y-108084196D01*
X208132220Y-108079573D01*
X208124643Y-108073355D01*
X208118426Y-108065778D01*
X208113805Y-108057135D01*
X208110960Y-108047754D01*
X208110000Y-108038001D01*
X208110000Y-107388000D01*
X208110960Y-107378246D01*
X208113805Y-107368866D01*
X208118426Y-107360222D01*
X208124643Y-107352645D01*
X208132220Y-107346427D01*
X208140864Y-107341805D01*
X208150244Y-107338960D01*
X208160000Y-107338000D01*
X208310000Y-107338000D01*
X208319754Y-107338960D01*
G37*
%TD*%
D11*
%TO.C,L4*%
X222438000Y-113919000D03*
X223078000Y-113919000D03*
%TD*%
D12*
%TO.C,L3*%
X222951000Y-113157000D03*
X222311000Y-113157000D03*
%TD*%
D11*
%TO.C,C20*%
X221712000Y-112395000D03*
X222352000Y-112395000D03*
%TD*%
D13*
%TO.C,U10*%
X222631000Y-115316000D03*
X222631000Y-114815874D03*
D14*
X222247501Y-114773438D03*
D13*
X221864002Y-114815874D03*
X221864002Y-115316000D03*
D14*
X222247501Y-115358436D03*
%TD*%
D15*
%TO.C,R17*%
X220978000Y-86868000D03*
X221998000Y-86868000D03*
%TD*%
D16*
%TO.C,C17*%
X220472000Y-87884000D03*
X220472000Y-88844000D03*
%TD*%
%TO.C,C16*%
X222758000Y-87884000D03*
X222758000Y-88844000D03*
%TD*%
D15*
%TO.C,R16*%
X221867000Y-116332000D03*
X222887000Y-116332000D03*
%TD*%
D17*
%TO.C,C15*%
X220825000Y-115570000D03*
X219865000Y-115570000D03*
%TD*%
%TO.C,C14*%
X220825000Y-116586000D03*
X219865000Y-116586000D03*
%TD*%
D18*
%TO.C,J6*%
X225933000Y-86834000D03*
D19*
X227408000Y-88359000D03*
X224458000Y-88359000D03*
%TD*%
D20*
%TO.C,J2*%
X226060000Y-116493000D03*
D21*
X224585000Y-114968000D03*
X227535000Y-114968000D03*
%TD*%
D22*
%TO.C,U9*%
X214600000Y-91470000D03*
X214600000Y-90170000D03*
X215900000Y-90170000D03*
X217200000Y-90170000D03*
X214600000Y-88870000D03*
X215900000Y-88870000D03*
X217200000Y-88870000D03*
D23*
X219105000Y-87570000D03*
X219105000Y-88220000D03*
X219105000Y-88870000D03*
X219105000Y-89520000D03*
X219105000Y-90170000D03*
X219105000Y-90820000D03*
X219105000Y-91470000D03*
X219105000Y-92120000D03*
X219105000Y-92770000D03*
D24*
X218555000Y-93375000D03*
X217850000Y-93375000D03*
X217200000Y-93375000D03*
X216550000Y-93375000D03*
X215900000Y-93375000D03*
X215250000Y-93375000D03*
X214600000Y-93375000D03*
X213950000Y-93375000D03*
X213300000Y-93375000D03*
D23*
X212695000Y-92770000D03*
X212695000Y-92120000D03*
X212695000Y-91470000D03*
X212695000Y-90820000D03*
X212695000Y-90170000D03*
X212695000Y-89520000D03*
X212695000Y-88870000D03*
X212695000Y-88220000D03*
X212695000Y-87570000D03*
D24*
X213300000Y-86965000D03*
X213950000Y-86965000D03*
X214600000Y-86965000D03*
X215250000Y-86965000D03*
X215900000Y-86965000D03*
X216550000Y-86965000D03*
X217200000Y-86965000D03*
X217850000Y-86965000D03*
X218500000Y-86965000D03*
%TD*%
D25*
%TO.C,U2*%
X225044000Y-110236000D03*
D26*
X226294000Y-112173500D03*
X225794000Y-112173500D03*
X225294000Y-112173500D03*
X224794000Y-112173500D03*
X224294000Y-112173500D03*
X223794000Y-112173500D03*
D27*
X223106500Y-111486000D03*
X223106500Y-110986000D03*
X223106500Y-110486000D03*
X223106500Y-109986000D03*
X223106500Y-109486000D03*
X223106500Y-108986000D03*
D26*
X223794000Y-108298500D03*
X224294000Y-108298500D03*
X224794000Y-108298500D03*
X225294000Y-108298500D03*
X225794000Y-108298500D03*
X226294000Y-108298500D03*
D27*
X226981500Y-108986000D03*
X226981500Y-109486000D03*
X226981500Y-109986000D03*
X226981500Y-110486000D03*
X226981500Y-110986000D03*
X226981500Y-111486000D03*
%TD*%
D28*
%TO.C,C5*%
X204216000Y-102936000D03*
X204216000Y-104836000D03*
%TD*%
D29*
%TO.C,S2*%
X215773000Y-112777000D03*
X215773000Y-116077000D03*
D30*
X214148000Y-113427000D03*
X214148000Y-115427000D03*
X217398000Y-113427000D03*
X217398000Y-115427000D03*
%TD*%
D31*
%TO.C,R14*%
X212316000Y-116078000D03*
X211356000Y-116078000D03*
%TD*%
D32*
%TO.C,C3*%
X209677000Y-107963000D03*
X209677000Y-106413000D03*
%TD*%
D33*
%TO.C,C6*%
X209555000Y-104394000D03*
X211455000Y-104394000D03*
%TD*%
D16*
%TO.C,C4*%
X205994000Y-104168000D03*
X205994000Y-105128000D03*
%TD*%
D15*
%TO.C,R12*%
X224788000Y-91313000D03*
X225808000Y-91313000D03*
%TD*%
D34*
%TO.C,C8*%
X203962000Y-109588000D03*
X203962000Y-111138000D03*
%TD*%
D35*
%TO.C,R4*%
X207010000Y-103630000D03*
X207010000Y-104650000D03*
%TD*%
D36*
%TO.C,U8*%
X207760001Y-106038000D03*
X207260002Y-106038000D03*
X206760000Y-106038000D03*
X206260002Y-106038000D03*
D37*
X205610000Y-106463000D03*
X205610000Y-106962999D03*
D38*
X205610000Y-107713000D03*
X205610000Y-107713000D03*
D39*
X206510001Y-107963000D03*
D40*
X207010000Y-107787999D03*
D39*
X207509999Y-107963000D03*
D38*
X208410000Y-107713000D03*
X208410000Y-107713000D03*
D37*
X208410000Y-106962999D03*
X208410000Y-106463000D03*
%TD*%
D41*
%TO.C,U7*%
X214675000Y-100600000D03*
X214675000Y-101100000D03*
X214675000Y-101600000D03*
X214675000Y-102100000D03*
X214675000Y-102600000D03*
D42*
X215400000Y-102825000D03*
X215900000Y-102825000D03*
X216400000Y-102825000D03*
D41*
X217125000Y-102600000D03*
X217125000Y-102100000D03*
X217125000Y-101600000D03*
X217125000Y-101100000D03*
X217125000Y-100600000D03*
D42*
X216400000Y-100375000D03*
X215900000Y-100375000D03*
X215400000Y-100375000D03*
%TD*%
D43*
%TO.C,REF\u002A\u002A*%
X205740000Y-114935000D03*
%TD*%
D44*
%TO.C,Y1*%
X211919174Y-98561174D03*
X213369174Y-98561174D03*
X213369174Y-97411174D03*
X211919174Y-97411174D03*
%TD*%
D15*
%TO.C,R10*%
X221105000Y-90678000D03*
X222125000Y-90678000D03*
%TD*%
D43*
%TO.C,REF\u002A\u002A*%
X205740000Y-88265000D03*
%TD*%
D33*
%TO.C,C2*%
X213111000Y-104394000D03*
X215011000Y-104394000D03*
%TD*%
D45*
%TO.C,J4*%
X207137000Y-97536000D03*
D46*
X207137000Y-100076000D03*
%TD*%
D15*
%TO.C,R2*%
X203706000Y-108204000D03*
X204726000Y-108204000D03*
%TD*%
D28*
%TO.C,C1*%
X211963000Y-102484000D03*
X211963000Y-100584000D03*
%TD*%
D47*
%TO.C,R5*%
X218950000Y-111760000D03*
X217930000Y-111760000D03*
%TD*%
%TO.C,R7*%
X222127000Y-91694000D03*
X221107000Y-91694000D03*
%TD*%
%TO.C,R6*%
X213616000Y-111760000D03*
X212596000Y-111760000D03*
%TD*%
D48*
%TO.C,J3*%
X224507500Y-105283000D03*
D46*
X224507500Y-102743000D03*
X224507500Y-100203000D03*
X224507500Y-97663000D03*
%TD*%
D49*
%TO.C,U4*%
X214700000Y-96729500D03*
X215500000Y-96729500D03*
X216300000Y-96729500D03*
X217100000Y-96729500D03*
X217100000Y-99104500D03*
X216300000Y-99104500D03*
X215500000Y-99104500D03*
X214700000Y-99104500D03*
%TD*%
D47*
%TO.C,R11*%
X223393000Y-94996000D03*
X222373000Y-94996000D03*
%TD*%
D15*
%TO.C,R8*%
X222375000Y-93980000D03*
X223395000Y-93980000D03*
%TD*%
D35*
%TO.C,R1*%
X208026000Y-104138000D03*
X208026000Y-105158000D03*
%TD*%
D50*
%TO.C,U6*%
X211262000Y-87381500D03*
X210312000Y-87381500D03*
X209362000Y-87381500D03*
X209362000Y-89656500D03*
X211262000Y-89656500D03*
%TD*%
D28*
%TO.C,C7*%
X209296000Y-115885000D03*
X209296000Y-113985000D03*
%TD*%
D51*
%TO.C,L1*%
X205787000Y-110617000D03*
X208487000Y-110617000D03*
%TD*%
D47*
%TO.C,R9*%
X225808000Y-92329000D03*
X224788000Y-92329000D03*
%TD*%
D15*
%TO.C,R3*%
X203704000Y-106172000D03*
X204724000Y-106172000D03*
%TD*%
D52*
%TO.C,J5*%
X218663000Y-110679000D03*
X212883000Y-110679000D03*
D53*
X220093000Y-114359000D03*
D54*
X220093000Y-110179000D03*
D53*
X211453000Y-114359000D03*
D54*
X211453000Y-110179000D03*
%TD*%
M02*
