%TF.GenerationSoftware,KiCad,Pcbnew,9.0.3+dfsg-1*%
%TF.CreationDate,2026-05-09T19:23:02-05:00*%
%TF.ProjectId,RocketryFlightComputer_v0.1,526f636b-6574-4727-9946-6c6967687443,rev?*%
%TF.SameCoordinates,Original*%
%TF.FileFunction,Copper,L2,Inr*%
%TF.FilePolarity,Positive*%
%FSLAX46Y46*%
G04 Gerber Fmt 4.6, Leading zero omitted, Abs format (unit mm)*
G04 Created by KiCad (PCBNEW 9.0.3+dfsg-1) date 2026-05-09 19:23:02*
%MOMM*%
%LPD*%
G01*
G04 APERTURE LIST*
G04 Aperture macros list*
%AMRoundRect*
0 Rectangle with rounded corners*
0 $1 Rounding radius*
0 $2 $3 $4 $5 $6 $7 $8 $9 X,Y pos of 4 corners*
0 Add a 4 corners polygon primitive as box body*
4,1,4,$2,$3,$4,$5,$6,$7,$8,$9,$2,$3,0*
0 Add four circle primitives for the rounded corners*
1,1,$1+$1,$2,$3*
1,1,$1+$1,$4,$5*
1,1,$1+$1,$6,$7*
1,1,$1+$1,$8,$9*
0 Add four rect primitives between the rounded corners*
20,1,$1+$1,$2,$3,$4,$5,0*
20,1,$1+$1,$4,$5,$6,$7,0*
20,1,$1+$1,$6,$7,$8,$9,0*
20,1,$1+$1,$8,$9,$2,$3,0*%
G04 Aperture macros list end*
%TA.AperFunction,ComponentPad*%
%ADD10RoundRect,0.250000X-0.750000X0.750000X-0.750000X-0.750000X0.750000X-0.750000X0.750000X0.750000X0*%
%TD*%
%TA.AperFunction,ComponentPad*%
%ADD11C,2.000000*%
%TD*%
%TA.AperFunction,ComponentPad*%
%ADD12RoundRect,0.250000X0.750000X-0.750000X0.750000X0.750000X-0.750000X0.750000X-0.750000X-0.750000X0*%
%TD*%
%TA.AperFunction,HeatsinkPad*%
%ADD13O,1.000000X1.800000*%
%TD*%
%TA.AperFunction,HeatsinkPad*%
%ADD14O,1.000000X2.100000*%
%TD*%
%TA.AperFunction,ViaPad*%
%ADD15C,0.450000*%
%TD*%
G04 APERTURE END LIST*
D10*
%TO.N,GND*%
%TO.C,J4*%
X207137000Y-97536000D03*
D11*
%TO.N,+BATT*%
X207137000Y-100076000D03*
%TD*%
D12*
%TO.N,+BATT*%
%TO.C,J3*%
X224507500Y-105283000D03*
D11*
%TO.N,Net-(J3-Pin_2)*%
X224507500Y-102743000D03*
%TO.N,Net-(J3-Pin_3)*%
X224507500Y-100203000D03*
%TO.N,Net-(J3-Pin_4)*%
X224507500Y-97663000D03*
%TD*%
D13*
%TO.N,GND*%
%TO.C,J5*%
X220093000Y-114359000D03*
D14*
X220093000Y-110179000D03*
D13*
X211453000Y-114359000D03*
D14*
X211453000Y-110179000D03*
%TD*%
D15*
%TO.N,GND*%
X221751500Y-114147600D03*
%TO.N,Net-(C18-Pad1)*%
X222311000Y-113538000D03*
%TO.N,VDD*%
X226949000Y-112395000D03*
X223266000Y-115443000D03*
%TO.N,Net-(U10-RF1)*%
X223520000Y-114808000D03*
%TO.N,RFI_P*%
X224155000Y-113030000D03*
%TO.N,RF_O*%
X225794000Y-113411000D03*
%TO.N,RFI_N*%
X225171000Y-113030000D03*
%TO.N,SX_CSN*%
X221627880Y-111685443D03*
%TO.N,GND*%
X222758000Y-88844000D03*
X220472000Y-88844000D03*
%TO.N,RF_SW_CTRL*%
X222885000Y-108331000D03*
X220980000Y-111633000D03*
%TO.N,GND*%
X224585000Y-114968000D03*
X227535000Y-114968000D03*
X224458000Y-88359000D03*
X227408000Y-88359000D03*
%TO.N,SX_BUSY*%
X222517000Y-106807000D03*
%TO.N,GND*%
X227076000Y-105819000D03*
%TO.N,Net-(U2-VREG)*%
X227457000Y-107315000D03*
%TO.N,SX_NRST*%
X222885000Y-102489000D03*
%TO.N,+BATT*%
X212598000Y-112903000D03*
%TO.N,VDD*%
X224518000Y-107823000D03*
%TO.N,SX_CSN*%
X217805000Y-108458000D03*
%TO.N,NRST*%
X213000000Y-114575000D03*
%TO.N,VDD*%
X208788000Y-104521000D03*
%TO.N,SWCLK*%
X208798135Y-105482783D03*
X208210686Y-102177314D03*
%TO.N,Net-(C10-Pad1)*%
X208809287Y-101482659D03*
X208305003Y-105906250D03*
%TO.N,SWO*%
X214122000Y-103378000D03*
X204696000Y-112649000D03*
%TO.N,SWDIO*%
X208826000Y-103378000D03*
%TO.N,BOOT0*%
X208407000Y-111642002D03*
%TO.N,SWDIO*%
X213342753Y-106130958D03*
%TO.N,GND*%
X205985001Y-109093000D03*
X203962000Y-106172000D03*
X204343000Y-101346000D03*
%TO.N,VDD*%
X206339806Y-102301956D03*
%TO.N,NRST*%
X217043000Y-97536000D03*
X214085000Y-104538000D03*
X217398000Y-113427000D03*
%TO.N,BOOT0*%
X211455000Y-99568000D03*
%TO.N,GND*%
X225806000Y-109474000D03*
X225044000Y-107332000D03*
%TO.N,Net-(U2-DIO3)*%
X226949000Y-108077000D03*
%TO.N,Net-(U2-XTA)*%
X227711000Y-110490000D03*
%TO.N,MISO*%
X218260206Y-105335794D03*
X213614000Y-102235000D03*
X212695000Y-91470000D03*
X217100000Y-99104500D03*
%TO.N,Net-(J3-Pin_2)*%
X221681000Y-92426000D03*
%TO.N,Net-(J3-Pin_3)*%
X224155000Y-93599000D03*
%TO.N,Net-(J5-CC2)*%
X215118575Y-110920717D03*
%TO.N,Net-(J5-CC1)*%
X216578680Y-110914680D03*
%TO.N,Net-(Q1-G)*%
X220731000Y-90551000D03*
%TO.N,Net-(Q2-G)*%
X223835000Y-95425500D03*
%TO.N,Net-(Q3-G)*%
X224348000Y-91645500D03*
%TO.N,VDD*%
X218567000Y-94234000D03*
X223012000Y-99314000D03*
X211963000Y-107950000D03*
X216300000Y-99104500D03*
X209296000Y-115885000D03*
X213950000Y-93375000D03*
X204978000Y-109474000D03*
X214381793Y-98673207D03*
X203706000Y-108204000D03*
X222758000Y-103850000D03*
X220091000Y-105537000D03*
X217170000Y-91440000D03*
X211262000Y-87381500D03*
X210384000Y-94674000D03*
X209362000Y-87381500D03*
%TO.N,MOSI*%
X217322412Y-105638588D03*
X213360000Y-101600000D03*
X215519000Y-98298000D03*
X212695000Y-90820000D03*
%TO.N,SCK*%
X218059000Y-97663000D03*
X221505000Y-110995462D03*
X216154000Y-101981000D03*
X220726000Y-93091000D03*
X220726000Y-96012000D03*
%TO.N,QSPI_CSN*%
X204984000Y-94674000D03*
X218313000Y-102743000D03*
%TO.N,QSPI_D2*%
X218948000Y-100726003D03*
X204984000Y-92134000D03*
%TO.N,QSPI_D0*%
X210384000Y-90864000D03*
X220057874Y-102963874D03*
%TO.N,QSPI_D3*%
X210384000Y-93404000D03*
X220396758Y-99074649D03*
%TO.N,QSPI_D1*%
X204984000Y-93404000D03*
X218838000Y-101376006D03*
%TO.N,QSPI_CLK*%
X210384000Y-92134000D03*
X218948000Y-100076000D03*
%TO.N,GND*%
X212573000Y-109604000D03*
X210312000Y-87381500D03*
X209296000Y-113985000D03*
X217850000Y-86965000D03*
X215519000Y-99060000D03*
X205994000Y-104168000D03*
X221935000Y-95425500D03*
X207264000Y-111379000D03*
X209362000Y-89656500D03*
X211455000Y-104394000D03*
X214600000Y-88870000D03*
X223012000Y-98552000D03*
X203962000Y-111887000D03*
X212695000Y-92770000D03*
X226248000Y-91645500D03*
X214875999Y-94107000D03*
X204984000Y-90864000D03*
X222631000Y-90551000D03*
X219964000Y-104775000D03*
X217200000Y-90170000D03*
X218973000Y-109604000D03*
X214600000Y-91470000D03*
X220853000Y-105791000D03*
X214600000Y-90170000D03*
X215900000Y-88870000D03*
X217200000Y-88870000D03*
X207684000Y-92769000D03*
X211963000Y-100584000D03*
%TO.N,Net-(C10-Pad1)*%
X221378000Y-106316000D03*
X216662476Y-105153620D03*
%TO.N,V_SMPS*%
X216535000Y-105791000D03*
X219093713Y-103929233D03*
%TO.N,Net-(U1-PH0)*%
X213369174Y-97221207D03*
%TD*%
%TA.AperFunction,Conductor*%
%TO.N,GND*%
G36*
X227781039Y-86379685D02*
G01*
X227826794Y-86432489D01*
X227838000Y-86484000D01*
X227838000Y-106501961D01*
X227818315Y-106569000D01*
X227765511Y-106614755D01*
X227696353Y-106624699D01*
X227674575Y-106618725D01*
X227674447Y-106619149D01*
X227668614Y-106617379D01*
X227528457Y-106589500D01*
X227528455Y-106589500D01*
X227385545Y-106589500D01*
X227385543Y-106589500D01*
X227245385Y-106617379D01*
X227245379Y-106617381D01*
X227113349Y-106672069D01*
X227113340Y-106672074D01*
X226994521Y-106751467D01*
X226994517Y-106751470D01*
X226893470Y-106852517D01*
X226893467Y-106852521D01*
X226814074Y-106971340D01*
X226814069Y-106971349D01*
X226759381Y-107103379D01*
X226759379Y-107103385D01*
X226731500Y-107243542D01*
X226731500Y-107298962D01*
X226711815Y-107366001D01*
X226659011Y-107411756D01*
X226654953Y-107413523D01*
X226605350Y-107434069D01*
X226605340Y-107434074D01*
X226486521Y-107513467D01*
X226486517Y-107513470D01*
X226385470Y-107614517D01*
X226385467Y-107614521D01*
X226306074Y-107733340D01*
X226306069Y-107733349D01*
X226251381Y-107865379D01*
X226251379Y-107865385D01*
X226223500Y-108005542D01*
X226223500Y-108005545D01*
X226223500Y-108148455D01*
X226223500Y-108148457D01*
X226223499Y-108148457D01*
X226251379Y-108288614D01*
X226251381Y-108288620D01*
X226306069Y-108420650D01*
X226306074Y-108420659D01*
X226385467Y-108539478D01*
X226385470Y-108539482D01*
X226486517Y-108640529D01*
X226486521Y-108640532D01*
X226605340Y-108719925D01*
X226605346Y-108719928D01*
X226605347Y-108719929D01*
X226737380Y-108774619D01*
X226737384Y-108774619D01*
X226737385Y-108774620D01*
X226877542Y-108802500D01*
X226877545Y-108802500D01*
X227020457Y-108802500D01*
X227114751Y-108783742D01*
X227160620Y-108774619D01*
X227292653Y-108719929D01*
X227411479Y-108640532D01*
X227512532Y-108539479D01*
X227591929Y-108420653D01*
X227599439Y-108402521D01*
X227643279Y-108348120D01*
X227709573Y-108326054D01*
X227777272Y-108343333D01*
X227824883Y-108394469D01*
X227838000Y-108449975D01*
X227838000Y-109640500D01*
X227818315Y-109707539D01*
X227765511Y-109753294D01*
X227714000Y-109764500D01*
X227639543Y-109764500D01*
X227499385Y-109792379D01*
X227499379Y-109792381D01*
X227367349Y-109847069D01*
X227367340Y-109847074D01*
X227248521Y-109926467D01*
X227248517Y-109926470D01*
X227147470Y-110027517D01*
X227147467Y-110027521D01*
X227068074Y-110146340D01*
X227068069Y-110146349D01*
X227013381Y-110278379D01*
X227013379Y-110278385D01*
X226985500Y-110418542D01*
X226985500Y-110418545D01*
X226985500Y-110561455D01*
X226985500Y-110561457D01*
X226985499Y-110561457D01*
X227013379Y-110701614D01*
X227013381Y-110701620D01*
X227068069Y-110833650D01*
X227068074Y-110833659D01*
X227147467Y-110952478D01*
X227147470Y-110952482D01*
X227248517Y-111053529D01*
X227248521Y-111053532D01*
X227367340Y-111132925D01*
X227367346Y-111132928D01*
X227367347Y-111132929D01*
X227499380Y-111187619D01*
X227499384Y-111187619D01*
X227499385Y-111187620D01*
X227639542Y-111215500D01*
X227714000Y-111215500D01*
X227781039Y-111235185D01*
X227826794Y-111287989D01*
X227838000Y-111339500D01*
X227838000Y-112022024D01*
X227818315Y-112089063D01*
X227765511Y-112134818D01*
X227696353Y-112144762D01*
X227632797Y-112115737D01*
X227599439Y-112069477D01*
X227591930Y-112051350D01*
X227591930Y-112051349D01*
X227591929Y-112051347D01*
X227591927Y-112051344D01*
X227591925Y-112051340D01*
X227512532Y-111932521D01*
X227512529Y-111932517D01*
X227411482Y-111831470D01*
X227411478Y-111831467D01*
X227292659Y-111752074D01*
X227292650Y-111752069D01*
X227160620Y-111697381D01*
X227160614Y-111697379D01*
X227020457Y-111669500D01*
X227020455Y-111669500D01*
X226877545Y-111669500D01*
X226877543Y-111669500D01*
X226737385Y-111697379D01*
X226737379Y-111697381D01*
X226605349Y-111752069D01*
X226605340Y-111752074D01*
X226486521Y-111831467D01*
X226486517Y-111831470D01*
X226385470Y-111932517D01*
X226385467Y-111932521D01*
X226306074Y-112051340D01*
X226306069Y-112051349D01*
X226251381Y-112183379D01*
X226251379Y-112183385D01*
X226223500Y-112323542D01*
X226223500Y-112466459D01*
X226251331Y-112606375D01*
X226245104Y-112675966D01*
X226202241Y-112731144D01*
X226136351Y-112754388D01*
X226082261Y-112745127D01*
X226066636Y-112738655D01*
X226005620Y-112713381D01*
X226005614Y-112713379D01*
X225859480Y-112684311D01*
X225859851Y-112682443D01*
X225803265Y-112659590D01*
X225777111Y-112631245D01*
X225734532Y-112567521D01*
X225734530Y-112567518D01*
X225633482Y-112466470D01*
X225633478Y-112466467D01*
X225514659Y-112387074D01*
X225514650Y-112387069D01*
X225382620Y-112332381D01*
X225382614Y-112332379D01*
X225242457Y-112304500D01*
X225242455Y-112304500D01*
X225099545Y-112304500D01*
X225099543Y-112304500D01*
X224959385Y-112332379D01*
X224959379Y-112332381D01*
X224827349Y-112387069D01*
X224827340Y-112387074D01*
X224731891Y-112450852D01*
X224665213Y-112471730D01*
X224597833Y-112453245D01*
X224594109Y-112450852D01*
X224498659Y-112387074D01*
X224498650Y-112387069D01*
X224366620Y-112332381D01*
X224366614Y-112332379D01*
X224226457Y-112304500D01*
X224226455Y-112304500D01*
X224083545Y-112304500D01*
X224083543Y-112304500D01*
X223943385Y-112332379D01*
X223943379Y-112332381D01*
X223811349Y-112387069D01*
X223811340Y-112387074D01*
X223692521Y-112466467D01*
X223692517Y-112466470D01*
X223591470Y-112567517D01*
X223591467Y-112567521D01*
X223512074Y-112686340D01*
X223512069Y-112686349D01*
X223457381Y-112818379D01*
X223457379Y-112818385D01*
X223429500Y-112958542D01*
X223429500Y-112958545D01*
X223429500Y-113101455D01*
X223429500Y-113101457D01*
X223429499Y-113101457D01*
X223457379Y-113241614D01*
X223457381Y-113241620D01*
X223512069Y-113373650D01*
X223512074Y-113373659D01*
X223591467Y-113492478D01*
X223591470Y-113492482D01*
X223692517Y-113593529D01*
X223692521Y-113593532D01*
X223811340Y-113672925D01*
X223811349Y-113672930D01*
X223839282Y-113684500D01*
X223943380Y-113727619D01*
X223943384Y-113727619D01*
X223943385Y-113727620D01*
X224083542Y-113755500D01*
X224083545Y-113755500D01*
X224226457Y-113755500D01*
X224320751Y-113736742D01*
X224366620Y-113727619D01*
X224498653Y-113672929D01*
X224594109Y-113609146D01*
X224660786Y-113588269D01*
X224728166Y-113606753D01*
X224731877Y-113609138D01*
X224761121Y-113628678D01*
X224827341Y-113672925D01*
X224827349Y-113672930D01*
X224855282Y-113684500D01*
X224959380Y-113727619D01*
X225010192Y-113737726D01*
X225072102Y-113770110D01*
X225106676Y-113830826D01*
X225110000Y-113859343D01*
X225110000Y-113868000D01*
X225110000Y-115958000D01*
X227010000Y-115958000D01*
X227010000Y-113868000D01*
X226575558Y-113868000D01*
X226508519Y-113848315D01*
X226462764Y-113795511D01*
X226452820Y-113726353D01*
X226460997Y-113696547D01*
X226465987Y-113684500D01*
X226491619Y-113622620D01*
X226516317Y-113498457D01*
X226519500Y-113482457D01*
X226519500Y-113339542D01*
X226491668Y-113199625D01*
X226497895Y-113130033D01*
X226540758Y-113074856D01*
X226606647Y-113051611D01*
X226660734Y-113060871D01*
X226737380Y-113092619D01*
X226737384Y-113092619D01*
X226737385Y-113092620D01*
X226877542Y-113120500D01*
X226877545Y-113120500D01*
X227020457Y-113120500D01*
X227116199Y-113101455D01*
X227160620Y-113092619D01*
X227292653Y-113037929D01*
X227411479Y-112958532D01*
X227512532Y-112857479D01*
X227591929Y-112738653D01*
X227599439Y-112720521D01*
X227643279Y-112666120D01*
X227709573Y-112644054D01*
X227777272Y-112661333D01*
X227824883Y-112712469D01*
X227838000Y-112767975D01*
X227838000Y-116716000D01*
X227818315Y-116783039D01*
X227765511Y-116828794D01*
X227714000Y-116840000D01*
X222504000Y-116840000D01*
X222123000Y-116840000D01*
X209472673Y-116840000D01*
X209405634Y-116820315D01*
X209359879Y-116767511D01*
X209349935Y-116698353D01*
X209378960Y-116634797D01*
X209437738Y-116597023D01*
X209448481Y-116594383D01*
X209485860Y-116586947D01*
X209507620Y-116582619D01*
X209639653Y-116527929D01*
X209758479Y-116448532D01*
X209859532Y-116347479D01*
X209938929Y-116228653D01*
X209993619Y-116096620D01*
X210011540Y-116006529D01*
X210021500Y-115956457D01*
X210021500Y-115813542D01*
X209993620Y-115673385D01*
X209993619Y-115673384D01*
X209993619Y-115673380D01*
X209938929Y-115541347D01*
X209938928Y-115541346D01*
X209938925Y-115541340D01*
X209859532Y-115422521D01*
X209859529Y-115422517D01*
X209758482Y-115321470D01*
X209758478Y-115321467D01*
X209639659Y-115242074D01*
X209639650Y-115242069D01*
X209507620Y-115187381D01*
X209507614Y-115187379D01*
X209367457Y-115159500D01*
X209367455Y-115159500D01*
X209224545Y-115159500D01*
X209224543Y-115159500D01*
X209084385Y-115187379D01*
X209084379Y-115187381D01*
X208952349Y-115242069D01*
X208952340Y-115242074D01*
X208833521Y-115321467D01*
X208833517Y-115321470D01*
X208732470Y-115422517D01*
X208732467Y-115422521D01*
X208653074Y-115541340D01*
X208653069Y-115541349D01*
X208598381Y-115673379D01*
X208598379Y-115673385D01*
X208570500Y-115813542D01*
X208570500Y-115813545D01*
X208570500Y-115956455D01*
X208570500Y-115956457D01*
X208570499Y-115956457D01*
X208598379Y-116096614D01*
X208598381Y-116096620D01*
X208653069Y-116228650D01*
X208653074Y-116228659D01*
X208732467Y-116347478D01*
X208732470Y-116347482D01*
X208833517Y-116448529D01*
X208833521Y-116448532D01*
X208952340Y-116527925D01*
X208952346Y-116527928D01*
X208952347Y-116527929D01*
X209084380Y-116582619D01*
X209084384Y-116582619D01*
X209084385Y-116582620D01*
X209143519Y-116594383D01*
X209205430Y-116626768D01*
X209240004Y-116687484D01*
X209236264Y-116757253D01*
X209195397Y-116813925D01*
X209130379Y-116839507D01*
X209119327Y-116840000D01*
X204086000Y-116840000D01*
X204018961Y-116820315D01*
X203973206Y-116767511D01*
X203962000Y-116716000D01*
X203962000Y-114836577D01*
X204489500Y-114836577D01*
X204489500Y-115033422D01*
X204520290Y-115227826D01*
X204581117Y-115415029D01*
X204645476Y-115541340D01*
X204670476Y-115590405D01*
X204786172Y-115749646D01*
X204925354Y-115888828D01*
X205084595Y-116004524D01*
X205167455Y-116046743D01*
X205259970Y-116093882D01*
X205259972Y-116093882D01*
X205259975Y-116093884D01*
X205360317Y-116126487D01*
X205447173Y-116154709D01*
X205641578Y-116185500D01*
X205641583Y-116185500D01*
X205838422Y-116185500D01*
X206032826Y-116154709D01*
X206076193Y-116140618D01*
X206220025Y-116093884D01*
X206395405Y-116004524D01*
X206554646Y-115888828D01*
X206693828Y-115749646D01*
X206809524Y-115590405D01*
X206898884Y-115415025D01*
X206959709Y-115227826D01*
X206971773Y-115151659D01*
X206990500Y-115033422D01*
X206990500Y-114836577D01*
X206959709Y-114642173D01*
X206944831Y-114596385D01*
X206898884Y-114454975D01*
X206898882Y-114454972D01*
X206898882Y-114454970D01*
X206809523Y-114279594D01*
X206797830Y-114263500D01*
X206693828Y-114120354D01*
X206554646Y-113981172D01*
X206395405Y-113865476D01*
X206385647Y-113860504D01*
X210453000Y-113860504D01*
X210453000Y-114109000D01*
X211153000Y-114109000D01*
X211153000Y-114609000D01*
X210453000Y-114609000D01*
X210453000Y-114857495D01*
X210491427Y-115050681D01*
X210491430Y-115050693D01*
X210566807Y-115232671D01*
X210566814Y-115232684D01*
X210676248Y-115396462D01*
X210676251Y-115396466D01*
X210815533Y-115535748D01*
X210815537Y-115535751D01*
X210979315Y-115645185D01*
X210979328Y-115645192D01*
X211161308Y-115720569D01*
X211203000Y-115728862D01*
X211203000Y-114925988D01*
X211212940Y-114943205D01*
X211268795Y-114999060D01*
X211337204Y-115038556D01*
X211413504Y-115059000D01*
X211492496Y-115059000D01*
X211568796Y-115038556D01*
X211637205Y-114999060D01*
X211693060Y-114943205D01*
X211703000Y-114925988D01*
X211703000Y-115728862D01*
X211744690Y-115720569D01*
X211744692Y-115720569D01*
X211926671Y-115645192D01*
X211926684Y-115645185D01*
X212090462Y-115535751D01*
X212090466Y-115535748D01*
X212229748Y-115396466D01*
X212229751Y-115396462D01*
X212339185Y-115232684D01*
X212339190Y-115232674D01*
X212354902Y-115194742D01*
X212398742Y-115140337D01*
X212465036Y-115118271D01*
X212532735Y-115135549D01*
X212538355Y-115139090D01*
X212656340Y-115217925D01*
X212656346Y-115217928D01*
X212656347Y-115217929D01*
X212788380Y-115272619D01*
X212788384Y-115272619D01*
X212788385Y-115272620D01*
X212928542Y-115300500D01*
X212928545Y-115300500D01*
X213071457Y-115300500D01*
X213165751Y-115281742D01*
X213211620Y-115272619D01*
X213343653Y-115217929D01*
X213462479Y-115138532D01*
X213563532Y-115037479D01*
X213642929Y-114918653D01*
X213697619Y-114786620D01*
X213725500Y-114646455D01*
X213725500Y-114503545D01*
X213725500Y-114503542D01*
X213697620Y-114363385D01*
X213697619Y-114363384D01*
X213697619Y-114363380D01*
X213648364Y-114244468D01*
X213642930Y-114231349D01*
X213642925Y-114231340D01*
X213563532Y-114112521D01*
X213563529Y-114112517D01*
X213462482Y-114011470D01*
X213462478Y-114011467D01*
X213343659Y-113932074D01*
X213343650Y-113932069D01*
X213211620Y-113877381D01*
X213211614Y-113877379D01*
X213071457Y-113849500D01*
X213071455Y-113849500D01*
X212928545Y-113849500D01*
X212928543Y-113849500D01*
X212788385Y-113877379D01*
X212788379Y-113877381D01*
X212656349Y-113932069D01*
X212656339Y-113932075D01*
X212643721Y-113940506D01*
X212612416Y-113950307D01*
X212581470Y-113961224D01*
X212579234Y-113960695D01*
X212577043Y-113961382D01*
X212545397Y-113952699D01*
X212513473Y-113945156D01*
X212511878Y-113943503D01*
X212509663Y-113942896D01*
X212487737Y-113918484D01*
X212464957Y-113894877D01*
X212463937Y-113891988D01*
X212462974Y-113890915D01*
X212453216Y-113861593D01*
X212436328Y-113776691D01*
X212442555Y-113707100D01*
X212485418Y-113651922D01*
X212551308Y-113628678D01*
X212557945Y-113628500D01*
X212669457Y-113628500D01*
X212765199Y-113609455D01*
X212809620Y-113600619D01*
X212941653Y-113545929D01*
X213012700Y-113498457D01*
X216672499Y-113498457D01*
X216700379Y-113638614D01*
X216700381Y-113638620D01*
X216755069Y-113770650D01*
X216755074Y-113770659D01*
X216834467Y-113889478D01*
X216834470Y-113889482D01*
X216935517Y-113990529D01*
X216935521Y-113990532D01*
X217054340Y-114069925D01*
X217054346Y-114069928D01*
X217054347Y-114069929D01*
X217186380Y-114124619D01*
X217186384Y-114124619D01*
X217186385Y-114124620D01*
X217326542Y-114152500D01*
X217326545Y-114152500D01*
X217469457Y-114152500D01*
X217563751Y-114133742D01*
X217609620Y-114124619D01*
X217741653Y-114069929D01*
X217860479Y-113990532D01*
X217961532Y-113889479D01*
X217980893Y-113860504D01*
X219093000Y-113860504D01*
X219093000Y-114109000D01*
X219793000Y-114109000D01*
X219793000Y-114609000D01*
X219093000Y-114609000D01*
X219093000Y-114857495D01*
X219131427Y-115050681D01*
X219131430Y-115050693D01*
X219206807Y-115232671D01*
X219206814Y-115232684D01*
X219316248Y-115396462D01*
X219316251Y-115396466D01*
X219455533Y-115535748D01*
X219455537Y-115535751D01*
X219619315Y-115645185D01*
X219619328Y-115645192D01*
X219801308Y-115720569D01*
X219843000Y-115728862D01*
X219843000Y-114925988D01*
X219852940Y-114943205D01*
X219908795Y-114999060D01*
X219977204Y-115038556D01*
X220053504Y-115059000D01*
X220132496Y-115059000D01*
X220208796Y-115038556D01*
X220277205Y-114999060D01*
X220333060Y-114943205D01*
X220343000Y-114925988D01*
X220343000Y-115728862D01*
X220384690Y-115720569D01*
X220384692Y-115720569D01*
X220566671Y-115645192D01*
X220566684Y-115645185D01*
X220730462Y-115535751D01*
X220730466Y-115535748D01*
X220751757Y-115514457D01*
X222540499Y-115514457D01*
X222568379Y-115654614D01*
X222568381Y-115654620D01*
X222623069Y-115786650D01*
X222623074Y-115786659D01*
X222702467Y-115905478D01*
X222702470Y-115905482D01*
X222803517Y-116006529D01*
X222803521Y-116006532D01*
X222922340Y-116085925D01*
X222922346Y-116085928D01*
X222922347Y-116085929D01*
X223054380Y-116140619D01*
X223054384Y-116140619D01*
X223054385Y-116140620D01*
X223194542Y-116168500D01*
X223194545Y-116168500D01*
X223337457Y-116168500D01*
X223431751Y-116149742D01*
X223477620Y-116140619D01*
X223609653Y-116085929D01*
X223728479Y-116006532D01*
X223829532Y-115905479D01*
X223908929Y-115786653D01*
X223963619Y-115654620D01*
X223976392Y-115590405D01*
X223991500Y-115514457D01*
X223991500Y-115413873D01*
X224011185Y-115346834D01*
X224027819Y-115326192D01*
X224053511Y-115300500D01*
X224083532Y-115270479D01*
X224162929Y-115151653D01*
X224217619Y-115019620D01*
X224240585Y-114904164D01*
X224245500Y-114879457D01*
X224245500Y-114736542D01*
X224217620Y-114596385D01*
X224217619Y-114596384D01*
X224217619Y-114596380D01*
X224162929Y-114464347D01*
X224162928Y-114464346D01*
X224162925Y-114464340D01*
X224083532Y-114345521D01*
X224083529Y-114345517D01*
X223982482Y-114244470D01*
X223982478Y-114244467D01*
X223863659Y-114165074D01*
X223863650Y-114165069D01*
X223731620Y-114110381D01*
X223731614Y-114110379D01*
X223591457Y-114082500D01*
X223591455Y-114082500D01*
X223448545Y-114082500D01*
X223448543Y-114082500D01*
X223308385Y-114110379D01*
X223308379Y-114110381D01*
X223176349Y-114165069D01*
X223176340Y-114165074D01*
X223057521Y-114244467D01*
X223057517Y-114244470D01*
X222956470Y-114345517D01*
X222956467Y-114345521D01*
X222877074Y-114464340D01*
X222877069Y-114464349D01*
X222822381Y-114596379D01*
X222822379Y-114596385D01*
X222794500Y-114736542D01*
X222794500Y-114837125D01*
X222774815Y-114904164D01*
X222758183Y-114924805D01*
X222702465Y-114980524D01*
X222623074Y-115099340D01*
X222623069Y-115099349D01*
X222568381Y-115231379D01*
X222568379Y-115231385D01*
X222540500Y-115371542D01*
X222540500Y-115371545D01*
X222540500Y-115514455D01*
X222540500Y-115514457D01*
X222540499Y-115514457D01*
X220751757Y-115514457D01*
X220869748Y-115396466D01*
X220869751Y-115396462D01*
X220936503Y-115296562D01*
X220979185Y-115232683D01*
X220979192Y-115232671D01*
X221054569Y-115050693D01*
X221054572Y-115050681D01*
X221092999Y-114857495D01*
X221093000Y-114857492D01*
X221093000Y-114609000D01*
X220393000Y-114609000D01*
X220393000Y-114109000D01*
X221093000Y-114109000D01*
X221093000Y-113860508D01*
X221092999Y-113860504D01*
X221054572Y-113667318D01*
X221054569Y-113667306D01*
X221030608Y-113609457D01*
X221585499Y-113609457D01*
X221613379Y-113749614D01*
X221613381Y-113749620D01*
X221668069Y-113881650D01*
X221668074Y-113881659D01*
X221747467Y-114000478D01*
X221747470Y-114000482D01*
X221848517Y-114101529D01*
X221848521Y-114101532D01*
X221967340Y-114180925D01*
X221967346Y-114180928D01*
X221967347Y-114180929D01*
X222099380Y-114235619D01*
X222099384Y-114235619D01*
X222099385Y-114235620D01*
X222239542Y-114263500D01*
X222239545Y-114263500D01*
X222382457Y-114263500D01*
X222478139Y-114244467D01*
X222522620Y-114235619D01*
X222654653Y-114180929D01*
X222773479Y-114101532D01*
X222874532Y-114000479D01*
X222953929Y-113881653D01*
X223008619Y-113749620D01*
X223030700Y-113638614D01*
X223036500Y-113609457D01*
X223036500Y-113466542D01*
X223008620Y-113326385D01*
X223008619Y-113326384D01*
X223008619Y-113326380D01*
X222962641Y-113215379D01*
X222953930Y-113194349D01*
X222953925Y-113194340D01*
X222874532Y-113075521D01*
X222874529Y-113075517D01*
X222773482Y-112974470D01*
X222773478Y-112974467D01*
X222654659Y-112895074D01*
X222654650Y-112895069D01*
X222522620Y-112840381D01*
X222522614Y-112840379D01*
X222382457Y-112812500D01*
X222382455Y-112812500D01*
X222239545Y-112812500D01*
X222239543Y-112812500D01*
X222099385Y-112840379D01*
X222099379Y-112840381D01*
X221967349Y-112895069D01*
X221967340Y-112895074D01*
X221848521Y-112974467D01*
X221848517Y-112974470D01*
X221747470Y-113075517D01*
X221747467Y-113075521D01*
X221668074Y-113194340D01*
X221668069Y-113194349D01*
X221613381Y-113326379D01*
X221613379Y-113326385D01*
X221585500Y-113466542D01*
X221585500Y-113466545D01*
X221585500Y-113609455D01*
X221585500Y-113609457D01*
X221585499Y-113609457D01*
X221030608Y-113609457D01*
X220988544Y-113507905D01*
X220979190Y-113485325D01*
X220979185Y-113485315D01*
X220869751Y-113321537D01*
X220869748Y-113321533D01*
X220730466Y-113182251D01*
X220730462Y-113182248D01*
X220566684Y-113072814D01*
X220566671Y-113072807D01*
X220384691Y-112997429D01*
X220384683Y-112997427D01*
X220343000Y-112989135D01*
X220343000Y-113792011D01*
X220333060Y-113774795D01*
X220277205Y-113718940D01*
X220208796Y-113679444D01*
X220132496Y-113659000D01*
X220053504Y-113659000D01*
X219977204Y-113679444D01*
X219908795Y-113718940D01*
X219852940Y-113774795D01*
X219843000Y-113792011D01*
X219843000Y-112989136D01*
X219842999Y-112989135D01*
X219801316Y-112997427D01*
X219801308Y-112997429D01*
X219619328Y-113072807D01*
X219619315Y-113072814D01*
X219455537Y-113182248D01*
X219455533Y-113182251D01*
X219316251Y-113321533D01*
X219316248Y-113321537D01*
X219206814Y-113485315D01*
X219206807Y-113485328D01*
X219131430Y-113667306D01*
X219131427Y-113667318D01*
X219093000Y-113860504D01*
X217980893Y-113860504D01*
X218000723Y-113830826D01*
X218030992Y-113785526D01*
X218040926Y-113770657D01*
X218040929Y-113770653D01*
X218095619Y-113638620D01*
X218113643Y-113548011D01*
X218123500Y-113498457D01*
X218123500Y-113355542D01*
X218095620Y-113215385D01*
X218095619Y-113215384D01*
X218095619Y-113215380D01*
X218040929Y-113083347D01*
X218040928Y-113083346D01*
X218040925Y-113083340D01*
X217961532Y-112964520D01*
X217860482Y-112863470D01*
X217860478Y-112863467D01*
X217741659Y-112784074D01*
X217741650Y-112784069D01*
X217609620Y-112729381D01*
X217609614Y-112729379D01*
X217469457Y-112701500D01*
X217469455Y-112701500D01*
X217326545Y-112701500D01*
X217326543Y-112701500D01*
X217186385Y-112729379D01*
X217186379Y-112729381D01*
X217054349Y-112784069D01*
X217054340Y-112784074D01*
X216935521Y-112863467D01*
X216935517Y-112863470D01*
X216834470Y-112964517D01*
X216834468Y-112964520D01*
X216755074Y-113083340D01*
X216755069Y-113083349D01*
X216700381Y-113215379D01*
X216700379Y-113215385D01*
X216672500Y-113355542D01*
X216672500Y-113355545D01*
X216672500Y-113498455D01*
X216672500Y-113498457D01*
X216672499Y-113498457D01*
X213012700Y-113498457D01*
X213060479Y-113466532D01*
X213161532Y-113365479D01*
X213240929Y-113246653D01*
X213295619Y-113114620D01*
X213306310Y-113060872D01*
X213323500Y-112974457D01*
X213323500Y-112831542D01*
X213295620Y-112691385D01*
X213295619Y-112691384D01*
X213295619Y-112691380D01*
X213240929Y-112559347D01*
X213240928Y-112559346D01*
X213240925Y-112559340D01*
X213161532Y-112440521D01*
X213161529Y-112440517D01*
X213060482Y-112339470D01*
X213060478Y-112339467D01*
X212941659Y-112260074D01*
X212941650Y-112260069D01*
X212809620Y-112205381D01*
X212809614Y-112205379D01*
X212669457Y-112177500D01*
X212669455Y-112177500D01*
X212526545Y-112177500D01*
X212526543Y-112177500D01*
X212386385Y-112205379D01*
X212386379Y-112205381D01*
X212254349Y-112260069D01*
X212254340Y-112260074D01*
X212135521Y-112339467D01*
X212135517Y-112339470D01*
X212034470Y-112440517D01*
X212034467Y-112440521D01*
X211955074Y-112559340D01*
X211955069Y-112559349D01*
X211900381Y-112691379D01*
X211900379Y-112691385D01*
X211872500Y-112831542D01*
X211872500Y-112871757D01*
X211865864Y-112894353D01*
X211863634Y-112917803D01*
X211856202Y-112927259D01*
X211852815Y-112938796D01*
X211835016Y-112954218D01*
X211820462Y-112972739D01*
X211803604Y-112981437D01*
X211800011Y-112984551D01*
X211796627Y-112985037D01*
X211789097Y-112988923D01*
X211703000Y-113018755D01*
X211703000Y-113792011D01*
X211693060Y-113774795D01*
X211637205Y-113718940D01*
X211568796Y-113679444D01*
X211492496Y-113659000D01*
X211413504Y-113659000D01*
X211337204Y-113679444D01*
X211268795Y-113718940D01*
X211212940Y-113774795D01*
X211203000Y-113792011D01*
X211203000Y-112989136D01*
X211202999Y-112989135D01*
X211161316Y-112997427D01*
X211161308Y-112997429D01*
X210979328Y-113072807D01*
X210979315Y-113072814D01*
X210815537Y-113182248D01*
X210815533Y-113182251D01*
X210676251Y-113321533D01*
X210676248Y-113321537D01*
X210566814Y-113485315D01*
X210566807Y-113485328D01*
X210491430Y-113667306D01*
X210491427Y-113667318D01*
X210453000Y-113860504D01*
X206385647Y-113860504D01*
X206364050Y-113849500D01*
X206220029Y-113776117D01*
X206032826Y-113715290D01*
X205838422Y-113684500D01*
X205838417Y-113684500D01*
X205641583Y-113684500D01*
X205641578Y-113684500D01*
X205447173Y-113715290D01*
X205259970Y-113776117D01*
X205084594Y-113865476D01*
X205044128Y-113894877D01*
X204925354Y-113981172D01*
X204925352Y-113981174D01*
X204925351Y-113981174D01*
X204786174Y-114120351D01*
X204786174Y-114120352D01*
X204786172Y-114120354D01*
X204742161Y-114180930D01*
X204670476Y-114279594D01*
X204581117Y-114454970D01*
X204520290Y-114642173D01*
X204489500Y-114836577D01*
X203962000Y-114836577D01*
X203962000Y-113240374D01*
X203981685Y-113173335D01*
X204034489Y-113127580D01*
X204103647Y-113117636D01*
X204167203Y-113146661D01*
X204173681Y-113152693D01*
X204233517Y-113212529D01*
X204233521Y-113212532D01*
X204352340Y-113291925D01*
X204352346Y-113291928D01*
X204352347Y-113291929D01*
X204484380Y-113346619D01*
X204484384Y-113346619D01*
X204484385Y-113346620D01*
X204624542Y-113374500D01*
X204624545Y-113374500D01*
X204767457Y-113374500D01*
X204862762Y-113355542D01*
X204907620Y-113346619D01*
X205039653Y-113291929D01*
X205158479Y-113212532D01*
X205259532Y-113111479D01*
X205338929Y-112992653D01*
X205393619Y-112860620D01*
X205408846Y-112784069D01*
X205421500Y-112720457D01*
X205421500Y-112577542D01*
X205393620Y-112437385D01*
X205393619Y-112437384D01*
X205393619Y-112437380D01*
X205338929Y-112305347D01*
X205338928Y-112305346D01*
X205338925Y-112305340D01*
X205259532Y-112186521D01*
X205259529Y-112186517D01*
X205158482Y-112085470D01*
X205158478Y-112085467D01*
X205039659Y-112006074D01*
X205039650Y-112006069D01*
X204907620Y-111951381D01*
X204907614Y-111951379D01*
X204767457Y-111923500D01*
X204767455Y-111923500D01*
X204624545Y-111923500D01*
X204624543Y-111923500D01*
X204484385Y-111951379D01*
X204484379Y-111951381D01*
X204352349Y-112006069D01*
X204352340Y-112006074D01*
X204233521Y-112085467D01*
X204233517Y-112085470D01*
X204173681Y-112145307D01*
X204112358Y-112178792D01*
X204042666Y-112173808D01*
X203986733Y-112131936D01*
X203962316Y-112066472D01*
X203962000Y-112057626D01*
X203962000Y-111713459D01*
X207681499Y-111713459D01*
X207709379Y-111853616D01*
X207709381Y-111853622D01*
X207764069Y-111985652D01*
X207764074Y-111985661D01*
X207843467Y-112104480D01*
X207843470Y-112104484D01*
X207944517Y-112205531D01*
X207944521Y-112205534D01*
X208063340Y-112284927D01*
X208063346Y-112284930D01*
X208063347Y-112284931D01*
X208195380Y-112339621D01*
X208195384Y-112339621D01*
X208195385Y-112339622D01*
X208335542Y-112367502D01*
X208335545Y-112367502D01*
X208478457Y-112367502D01*
X208572751Y-112348744D01*
X208618620Y-112339621D01*
X208750653Y-112284931D01*
X208869479Y-112205534D01*
X208970532Y-112104481D01*
X209049929Y-111985655D01*
X209104619Y-111853622D01*
X209123859Y-111756898D01*
X209132500Y-111713459D01*
X209132500Y-111570544D01*
X209104620Y-111430387D01*
X209104619Y-111430386D01*
X209104619Y-111430382D01*
X209049929Y-111298349D01*
X209049928Y-111298348D01*
X209049925Y-111298342D01*
X208970532Y-111179523D01*
X208970529Y-111179519D01*
X208869482Y-111078472D01*
X208869478Y-111078469D01*
X208750659Y-110999076D01*
X208750650Y-110999071D01*
X208618620Y-110944383D01*
X208618614Y-110944381D01*
X208478457Y-110916502D01*
X208478455Y-110916502D01*
X208335545Y-110916502D01*
X208335543Y-110916502D01*
X208195385Y-110944381D01*
X208195379Y-110944383D01*
X208063349Y-110999071D01*
X208063340Y-110999076D01*
X207944521Y-111078469D01*
X207944517Y-111078472D01*
X207843470Y-111179519D01*
X207843467Y-111179523D01*
X207764074Y-111298342D01*
X207764069Y-111298351D01*
X207709381Y-111430381D01*
X207709379Y-111430387D01*
X207681500Y-111570544D01*
X207681500Y-111570547D01*
X207681500Y-111713457D01*
X207681500Y-111713459D01*
X207681499Y-111713459D01*
X203962000Y-111713459D01*
X203962000Y-109545457D01*
X204252499Y-109545457D01*
X204280379Y-109685614D01*
X204280381Y-109685620D01*
X204335069Y-109817650D01*
X204335074Y-109817659D01*
X204414467Y-109936478D01*
X204414470Y-109936482D01*
X204515517Y-110037529D01*
X204515521Y-110037532D01*
X204634340Y-110116925D01*
X204634346Y-110116928D01*
X204634347Y-110116929D01*
X204766380Y-110171619D01*
X204766384Y-110171619D01*
X204766385Y-110171620D01*
X204906542Y-110199500D01*
X204906545Y-110199500D01*
X205049457Y-110199500D01*
X205143751Y-110180742D01*
X205189620Y-110171619D01*
X205321653Y-110116929D01*
X205440479Y-110037532D01*
X205541532Y-109936479D01*
X205620929Y-109817653D01*
X205675619Y-109685620D01*
X205703500Y-109545455D01*
X205703500Y-109530504D01*
X210453000Y-109530504D01*
X210453000Y-109929000D01*
X211153000Y-109929000D01*
X211153000Y-110429000D01*
X210453000Y-110429000D01*
X210453000Y-110827495D01*
X210491427Y-111020681D01*
X210491430Y-111020693D01*
X210566807Y-111202671D01*
X210566814Y-111202684D01*
X210676248Y-111366462D01*
X210676251Y-111366466D01*
X210815533Y-111505748D01*
X210815537Y-111505751D01*
X210979315Y-111615185D01*
X210979328Y-111615192D01*
X211161308Y-111690569D01*
X211203000Y-111698862D01*
X211203000Y-110895988D01*
X211212940Y-110913205D01*
X211268795Y-110969060D01*
X211337204Y-111008556D01*
X211413504Y-111029000D01*
X211492496Y-111029000D01*
X211568796Y-111008556D01*
X211637205Y-110969060D01*
X211693060Y-110913205D01*
X211703000Y-110895988D01*
X211703000Y-111698862D01*
X211744690Y-111690569D01*
X211744692Y-111690569D01*
X211926671Y-111615192D01*
X211926684Y-111615185D01*
X212090462Y-111505751D01*
X212090466Y-111505748D01*
X212229748Y-111366466D01*
X212229751Y-111366462D01*
X212339185Y-111202684D01*
X212339187Y-111202680D01*
X212383871Y-111094802D01*
X212427712Y-111040399D01*
X212494006Y-111018333D01*
X212561705Y-111035612D01*
X212586114Y-111054573D01*
X212591036Y-111059495D01*
X212699464Y-111122095D01*
X212820399Y-111154500D01*
X212820401Y-111154500D01*
X212945599Y-111154500D01*
X212945601Y-111154500D01*
X213066536Y-111122095D01*
X213174964Y-111059495D01*
X213242285Y-110992174D01*
X214393074Y-110992174D01*
X214420954Y-111132331D01*
X214420956Y-111132337D01*
X214475644Y-111264367D01*
X214475649Y-111264376D01*
X214555042Y-111383195D01*
X214555045Y-111383199D01*
X214656092Y-111484246D01*
X214656096Y-111484249D01*
X214774915Y-111563642D01*
X214774921Y-111563645D01*
X214774922Y-111563646D01*
X214906955Y-111618336D01*
X214906959Y-111618336D01*
X214906960Y-111618337D01*
X215047117Y-111646217D01*
X215047120Y-111646217D01*
X215190032Y-111646217D01*
X215284326Y-111627459D01*
X215330195Y-111618336D01*
X215462228Y-111563646D01*
X215581054Y-111484249D01*
X215682107Y-111383196D01*
X215747542Y-111285264D01*
X215801153Y-111240460D01*
X215870478Y-111231753D01*
X215933506Y-111261907D01*
X215953746Y-111285265D01*
X216015147Y-111377158D01*
X216015150Y-111377162D01*
X216116197Y-111478209D01*
X216116201Y-111478212D01*
X216235020Y-111557605D01*
X216235029Y-111557610D01*
X216249604Y-111563647D01*
X216367060Y-111612299D01*
X216367064Y-111612299D01*
X216367065Y-111612300D01*
X216507222Y-111640180D01*
X216507225Y-111640180D01*
X216650137Y-111640180D01*
X216759955Y-111618335D01*
X216790300Y-111612299D01*
X216922333Y-111557609D01*
X217041159Y-111478212D01*
X217142212Y-111377159D01*
X217221609Y-111258333D01*
X217276299Y-111126300D01*
X217294338Y-111035612D01*
X217304180Y-110986137D01*
X217304180Y-110843222D01*
X217276300Y-110703065D01*
X217276299Y-110703064D01*
X217276299Y-110703060D01*
X217275700Y-110701614D01*
X217256692Y-110655723D01*
X217240403Y-110616399D01*
X218187500Y-110616399D01*
X218187500Y-110741601D01*
X218219905Y-110862536D01*
X218282505Y-110970964D01*
X218371036Y-111059495D01*
X218479464Y-111122095D01*
X218600399Y-111154500D01*
X218600401Y-111154500D01*
X218725599Y-111154500D01*
X218725601Y-111154500D01*
X218846536Y-111122095D01*
X218954964Y-111059495D01*
X218959883Y-111054575D01*
X219021202Y-111021089D01*
X219090894Y-111026070D01*
X219146830Y-111067939D01*
X219162127Y-111094802D01*
X219206807Y-111202671D01*
X219206814Y-111202684D01*
X219316248Y-111366462D01*
X219316251Y-111366466D01*
X219455533Y-111505748D01*
X219455537Y-111505751D01*
X219619315Y-111615185D01*
X219619328Y-111615192D01*
X219801308Y-111690569D01*
X219843000Y-111698862D01*
X219843000Y-110895988D01*
X219852940Y-110913205D01*
X219908795Y-110969060D01*
X219977204Y-111008556D01*
X220053504Y-111029000D01*
X220132496Y-111029000D01*
X220208796Y-111008556D01*
X220277205Y-110969060D01*
X220333060Y-110913205D01*
X220343000Y-110895988D01*
X220343000Y-111250368D01*
X220333561Y-111297821D01*
X220282381Y-111421379D01*
X220282379Y-111421385D01*
X220254500Y-111561542D01*
X220254500Y-111561545D01*
X220254500Y-111704455D01*
X220254500Y-111704457D01*
X220254499Y-111704457D01*
X220282379Y-111844614D01*
X220282381Y-111844620D01*
X220337069Y-111976650D01*
X220337074Y-111976659D01*
X220416467Y-112095478D01*
X220416470Y-112095482D01*
X220517517Y-112196529D01*
X220517521Y-112196532D01*
X220636340Y-112275925D01*
X220636346Y-112275928D01*
X220636347Y-112275929D01*
X220768380Y-112330619D01*
X220768384Y-112330619D01*
X220768385Y-112330620D01*
X220908542Y-112358500D01*
X220908545Y-112358500D01*
X221051457Y-112358500D01*
X221147139Y-112339467D01*
X221191620Y-112330619D01*
X221193167Y-112329977D01*
X221194044Y-112329883D01*
X221197451Y-112328850D01*
X221197646Y-112329495D01*
X221262634Y-112322499D01*
X221288085Y-112329970D01*
X221416260Y-112383062D01*
X221416264Y-112383062D01*
X221416265Y-112383063D01*
X221556422Y-112410943D01*
X221556425Y-112410943D01*
X221699337Y-112410943D01*
X221793631Y-112392185D01*
X221839500Y-112383062D01*
X221971533Y-112328372D01*
X222090359Y-112248975D01*
X222191412Y-112147922D01*
X222270809Y-112029096D01*
X222325499Y-111897063D01*
X222335932Y-111844614D01*
X222353380Y-111756900D01*
X222353380Y-111613985D01*
X222325500Y-111473828D01*
X222325499Y-111473827D01*
X222325499Y-111473823D01*
X222270809Y-111341790D01*
X222226148Y-111274950D01*
X222205271Y-111208275D01*
X222207634Y-111181869D01*
X222208102Y-111179519D01*
X222219524Y-111122095D01*
X222230500Y-111066919D01*
X222230500Y-110924004D01*
X222202620Y-110783847D01*
X222202619Y-110783846D01*
X222202619Y-110783842D01*
X222147929Y-110651809D01*
X222147928Y-110651808D01*
X222147925Y-110651802D01*
X222068532Y-110532983D01*
X222068529Y-110532979D01*
X221967482Y-110431932D01*
X221967478Y-110431929D01*
X221848659Y-110352536D01*
X221848650Y-110352531D01*
X221716620Y-110297843D01*
X221716614Y-110297841D01*
X221576457Y-110269962D01*
X221576455Y-110269962D01*
X221433545Y-110269962D01*
X221433543Y-110269962D01*
X221293385Y-110297841D01*
X221293379Y-110297843D01*
X221161349Y-110352531D01*
X221161340Y-110352536D01*
X221078182Y-110408102D01*
X221011505Y-110428980D01*
X221009291Y-110429000D01*
X220393000Y-110429000D01*
X220393000Y-109929000D01*
X221093000Y-109929000D01*
X221093000Y-109530508D01*
X221092999Y-109530504D01*
X221054572Y-109337318D01*
X221054569Y-109337306D01*
X220979192Y-109155328D01*
X220979185Y-109155315D01*
X220869751Y-108991537D01*
X220869748Y-108991533D01*
X220730466Y-108852251D01*
X220730462Y-108852248D01*
X220566684Y-108742814D01*
X220566671Y-108742807D01*
X220384691Y-108667429D01*
X220384683Y-108667427D01*
X220343000Y-108659135D01*
X220343000Y-109462011D01*
X220333060Y-109444795D01*
X220277205Y-109388940D01*
X220208796Y-109349444D01*
X220132496Y-109329000D01*
X220053504Y-109329000D01*
X219977204Y-109349444D01*
X219908795Y-109388940D01*
X219852940Y-109444795D01*
X219843000Y-109462011D01*
X219843000Y-108659136D01*
X219842999Y-108659135D01*
X219801316Y-108667427D01*
X219801308Y-108667429D01*
X219619328Y-108742807D01*
X219619315Y-108742814D01*
X219455537Y-108852248D01*
X219455533Y-108852251D01*
X219316251Y-108991533D01*
X219316248Y-108991537D01*
X219206814Y-109155315D01*
X219206807Y-109155328D01*
X219131430Y-109337306D01*
X219131427Y-109337318D01*
X219093000Y-109530504D01*
X219093000Y-109929000D01*
X219793000Y-109929000D01*
X219793000Y-110429000D01*
X219136821Y-110429000D01*
X219069782Y-110409315D01*
X219049140Y-110392681D01*
X218954965Y-110298506D01*
X218954964Y-110298505D01*
X218846536Y-110235905D01*
X218846537Y-110235905D01*
X218776210Y-110217061D01*
X218725601Y-110203500D01*
X218600399Y-110203500D01*
X218549790Y-110217061D01*
X218479463Y-110235905D01*
X218371037Y-110298504D01*
X218371034Y-110298506D01*
X218282506Y-110387034D01*
X218282504Y-110387037D01*
X218219905Y-110495463D01*
X218219905Y-110495464D01*
X218187500Y-110616399D01*
X217240403Y-110616399D01*
X217224110Y-110577066D01*
X217221609Y-110571027D01*
X217221607Y-110571024D01*
X217221605Y-110571020D01*
X217142212Y-110452201D01*
X217142209Y-110452197D01*
X217041162Y-110351150D01*
X217041158Y-110351147D01*
X216922339Y-110271754D01*
X216922330Y-110271749D01*
X216790300Y-110217061D01*
X216790294Y-110217059D01*
X216650137Y-110189180D01*
X216650135Y-110189180D01*
X216507225Y-110189180D01*
X216507223Y-110189180D01*
X216367065Y-110217059D01*
X216367059Y-110217061D01*
X216235029Y-110271749D01*
X216235020Y-110271754D01*
X216116201Y-110351147D01*
X216116197Y-110351150D01*
X216015150Y-110452197D01*
X216015147Y-110452201D01*
X215949712Y-110550131D01*
X215896099Y-110594936D01*
X215826774Y-110603643D01*
X215763747Y-110573488D01*
X215743508Y-110550131D01*
X215682107Y-110458237D01*
X215581057Y-110357187D01*
X215581053Y-110357184D01*
X215462234Y-110277791D01*
X215462225Y-110277786D01*
X215330195Y-110223098D01*
X215330189Y-110223096D01*
X215190032Y-110195217D01*
X215190030Y-110195217D01*
X215047120Y-110195217D01*
X215047118Y-110195217D01*
X214906960Y-110223096D01*
X214906954Y-110223098D01*
X214774924Y-110277786D01*
X214774915Y-110277791D01*
X214656096Y-110357184D01*
X214656092Y-110357187D01*
X214555045Y-110458234D01*
X214555042Y-110458238D01*
X214475649Y-110577057D01*
X214475644Y-110577066D01*
X214420956Y-110709096D01*
X214420954Y-110709102D01*
X214393075Y-110849259D01*
X214393075Y-110849262D01*
X214393075Y-110992172D01*
X214393075Y-110992174D01*
X214393074Y-110992174D01*
X213242285Y-110992174D01*
X213263495Y-110970964D01*
X213326095Y-110862536D01*
X213358500Y-110741601D01*
X213358500Y-110616399D01*
X213326095Y-110495464D01*
X213263495Y-110387036D01*
X213174964Y-110298505D01*
X213066536Y-110235905D01*
X213066537Y-110235905D01*
X212996210Y-110217061D01*
X212945601Y-110203500D01*
X212820399Y-110203500D01*
X212769790Y-110217061D01*
X212699463Y-110235905D01*
X212591037Y-110298504D01*
X212591034Y-110298506D01*
X212496860Y-110392681D01*
X212435537Y-110426166D01*
X212409179Y-110429000D01*
X211753000Y-110429000D01*
X211753000Y-109929000D01*
X212453000Y-109929000D01*
X212453000Y-109530508D01*
X212452999Y-109530504D01*
X212414572Y-109337318D01*
X212414569Y-109337306D01*
X212339192Y-109155328D01*
X212339185Y-109155315D01*
X212229751Y-108991537D01*
X212229748Y-108991533D01*
X212097786Y-108859571D01*
X212064301Y-108798248D01*
X212069285Y-108728556D01*
X212111157Y-108672623D01*
X212161279Y-108650272D01*
X212174620Y-108647619D01*
X212306653Y-108592929D01*
X212401646Y-108529457D01*
X217079499Y-108529457D01*
X217107379Y-108669614D01*
X217107381Y-108669620D01*
X217162069Y-108801650D01*
X217162074Y-108801659D01*
X217241467Y-108920478D01*
X217241470Y-108920482D01*
X217342517Y-109021529D01*
X217342521Y-109021532D01*
X217461340Y-109100925D01*
X217461346Y-109100928D01*
X217461347Y-109100929D01*
X217593380Y-109155619D01*
X217593384Y-109155619D01*
X217593385Y-109155620D01*
X217733542Y-109183500D01*
X217733545Y-109183500D01*
X217876457Y-109183500D01*
X217970751Y-109164742D01*
X218016620Y-109155619D01*
X218148653Y-109100929D01*
X218267479Y-109021532D01*
X218368532Y-108920479D01*
X218447929Y-108801653D01*
X218502619Y-108669620D01*
X218526881Y-108547650D01*
X218530500Y-108529457D01*
X218530500Y-108386542D01*
X218502620Y-108246385D01*
X218502619Y-108246384D01*
X218502619Y-108246380D01*
X218447929Y-108114347D01*
X218447928Y-108114346D01*
X218447925Y-108114340D01*
X218368532Y-107995521D01*
X218368529Y-107995517D01*
X218267482Y-107894470D01*
X218267478Y-107894467D01*
X218148659Y-107815074D01*
X218148650Y-107815069D01*
X218016620Y-107760381D01*
X218016614Y-107760379D01*
X217876457Y-107732500D01*
X217876455Y-107732500D01*
X217733545Y-107732500D01*
X217733543Y-107732500D01*
X217593385Y-107760379D01*
X217593379Y-107760381D01*
X217461349Y-107815069D01*
X217461340Y-107815074D01*
X217342521Y-107894467D01*
X217342517Y-107894470D01*
X217241470Y-107995517D01*
X217241467Y-107995521D01*
X217162074Y-108114340D01*
X217162069Y-108114349D01*
X217107381Y-108246379D01*
X217107379Y-108246385D01*
X217079500Y-108386542D01*
X217079500Y-108386545D01*
X217079500Y-108529455D01*
X217079500Y-108529457D01*
X217079499Y-108529457D01*
X212401646Y-108529457D01*
X212425479Y-108513532D01*
X212526532Y-108412479D01*
X212572734Y-108343333D01*
X212593963Y-108311562D01*
X212593963Y-108311561D01*
X212605929Y-108293653D01*
X212660619Y-108161620D01*
X212670024Y-108114340D01*
X212688500Y-108021457D01*
X212688500Y-107878542D01*
X212660620Y-107738385D01*
X212660619Y-107738384D01*
X212660619Y-107738380D01*
X212605929Y-107606347D01*
X212605928Y-107606346D01*
X212605925Y-107606340D01*
X212526532Y-107487521D01*
X212526529Y-107487517D01*
X212425482Y-107386470D01*
X212425478Y-107386467D01*
X212306659Y-107307074D01*
X212306650Y-107307069D01*
X212174620Y-107252381D01*
X212174614Y-107252379D01*
X212034457Y-107224500D01*
X212034455Y-107224500D01*
X211891545Y-107224500D01*
X211891543Y-107224500D01*
X211751385Y-107252379D01*
X211751379Y-107252381D01*
X211619349Y-107307069D01*
X211619340Y-107307074D01*
X211500521Y-107386467D01*
X211500517Y-107386470D01*
X211399470Y-107487517D01*
X211399467Y-107487521D01*
X211320074Y-107606340D01*
X211320069Y-107606349D01*
X211265381Y-107738379D01*
X211265379Y-107738385D01*
X211237500Y-107878542D01*
X211237500Y-107878545D01*
X211237500Y-108021455D01*
X211237500Y-108021457D01*
X211237499Y-108021457D01*
X211265379Y-108161614D01*
X211265381Y-108161620D01*
X211320069Y-108293650D01*
X211320074Y-108293659D01*
X211399467Y-108412478D01*
X211399470Y-108412482D01*
X211500517Y-108513529D01*
X211500521Y-108513532D01*
X211619340Y-108592925D01*
X211619344Y-108592927D01*
X211619347Y-108592929D01*
X211626448Y-108595870D01*
X211680853Y-108639709D01*
X211702921Y-108706002D01*
X211703000Y-108710433D01*
X211703000Y-109462011D01*
X211693060Y-109444795D01*
X211637205Y-109388940D01*
X211568796Y-109349444D01*
X211492496Y-109329000D01*
X211413504Y-109329000D01*
X211337204Y-109349444D01*
X211268795Y-109388940D01*
X211212940Y-109444795D01*
X211203000Y-109462011D01*
X211203000Y-108659136D01*
X211202999Y-108659135D01*
X211161316Y-108667427D01*
X211161308Y-108667429D01*
X210979328Y-108742807D01*
X210979315Y-108742814D01*
X210815537Y-108852248D01*
X210815533Y-108852251D01*
X210676251Y-108991533D01*
X210676248Y-108991537D01*
X210566814Y-109155315D01*
X210566807Y-109155328D01*
X210491430Y-109337306D01*
X210491427Y-109337318D01*
X210453000Y-109530504D01*
X205703500Y-109530504D01*
X205703500Y-109402545D01*
X205703500Y-109402542D01*
X205675620Y-109262385D01*
X205675619Y-109262384D01*
X205675619Y-109262380D01*
X205631397Y-109155618D01*
X205620930Y-109130349D01*
X205620925Y-109130340D01*
X205541532Y-109011521D01*
X205541529Y-109011517D01*
X205440482Y-108910470D01*
X205440478Y-108910467D01*
X205321659Y-108831074D01*
X205321650Y-108831069D01*
X205189620Y-108776381D01*
X205189614Y-108776379D01*
X205049457Y-108748500D01*
X205049455Y-108748500D01*
X204906545Y-108748500D01*
X204906543Y-108748500D01*
X204766385Y-108776379D01*
X204766379Y-108776381D01*
X204634349Y-108831069D01*
X204634340Y-108831074D01*
X204515521Y-108910467D01*
X204515517Y-108910470D01*
X204414470Y-109011517D01*
X204414467Y-109011521D01*
X204335074Y-109130340D01*
X204335069Y-109130349D01*
X204280381Y-109262379D01*
X204280379Y-109262385D01*
X204252500Y-109402542D01*
X204252500Y-109402545D01*
X204252500Y-109545455D01*
X204252500Y-109545457D01*
X204252499Y-109545457D01*
X203962000Y-109545457D01*
X203962000Y-108966090D01*
X203981685Y-108899051D01*
X204034489Y-108853296D01*
X204038550Y-108851528D01*
X204049653Y-108846929D01*
X204168479Y-108767532D01*
X204269532Y-108666479D01*
X204348929Y-108547653D01*
X204403619Y-108415620D01*
X204427881Y-108293650D01*
X204431500Y-108275457D01*
X204431500Y-108132542D01*
X204403620Y-107992385D01*
X204403619Y-107992384D01*
X204403619Y-107992380D01*
X204356466Y-107878542D01*
X204348932Y-107860353D01*
X204348925Y-107860340D01*
X204269532Y-107741521D01*
X204269529Y-107741517D01*
X204168482Y-107640470D01*
X204168474Y-107640464D01*
X204049656Y-107561072D01*
X204049648Y-107561068D01*
X204038541Y-107556467D01*
X203984140Y-107512623D01*
X203962079Y-107446328D01*
X203962000Y-107441909D01*
X203962000Y-102373413D01*
X205614305Y-102373413D01*
X205642185Y-102513570D01*
X205642187Y-102513576D01*
X205696875Y-102645606D01*
X205696880Y-102645615D01*
X205776273Y-102764434D01*
X205776276Y-102764438D01*
X205877323Y-102865485D01*
X205877327Y-102865488D01*
X205996146Y-102944881D01*
X205996155Y-102944886D01*
X206019641Y-102954614D01*
X206128186Y-102999575D01*
X206128190Y-102999575D01*
X206128191Y-102999576D01*
X206268348Y-103027456D01*
X206268351Y-103027456D01*
X206411263Y-103027456D01*
X206505557Y-103008698D01*
X206551426Y-102999575D01*
X206683459Y-102944885D01*
X206802285Y-102865488D01*
X206903338Y-102764435D01*
X206982735Y-102645609D01*
X207037425Y-102513576D01*
X207060147Y-102399347D01*
X207065306Y-102373413D01*
X207065306Y-102230498D01*
X207037426Y-102090341D01*
X207037425Y-102090340D01*
X207037425Y-102090336D01*
X206985799Y-101965699D01*
X206982736Y-101958305D01*
X206982731Y-101958296D01*
X206903338Y-101839477D01*
X206903335Y-101839473D01*
X206838978Y-101775116D01*
X206805493Y-101713793D01*
X206810477Y-101644101D01*
X206852349Y-101588168D01*
X206917813Y-101563751D01*
X206946057Y-101564962D01*
X207018903Y-101576500D01*
X207018908Y-101576500D01*
X207255097Y-101576500D01*
X207449488Y-101545710D01*
X207488368Y-101539553D01*
X207500694Y-101535547D01*
X207570533Y-101533549D01*
X207630368Y-101569626D01*
X207661200Y-101632325D01*
X207653239Y-101701740D01*
X207642120Y-101722367D01*
X207567759Y-101833656D01*
X207567755Y-101833663D01*
X207513067Y-101965693D01*
X207513065Y-101965699D01*
X207485186Y-102105856D01*
X207485186Y-102105859D01*
X207485186Y-102248769D01*
X207485186Y-102248771D01*
X207485185Y-102248771D01*
X207513065Y-102388928D01*
X207513067Y-102388934D01*
X207567755Y-102520964D01*
X207567760Y-102520973D01*
X207647153Y-102639792D01*
X207647156Y-102639796D01*
X207748203Y-102740843D01*
X207748207Y-102740846D01*
X207867026Y-102820239D01*
X207867032Y-102820242D01*
X207867033Y-102820243D01*
X207999066Y-102874933D01*
X207999070Y-102874933D01*
X207999071Y-102874934D01*
X208081878Y-102891406D01*
X208143789Y-102923791D01*
X208178363Y-102984507D01*
X208174623Y-103054276D01*
X208172247Y-103060475D01*
X208128382Y-103166375D01*
X208128379Y-103166385D01*
X208100500Y-103306542D01*
X208100500Y-103306545D01*
X208100500Y-103449455D01*
X208100500Y-103449457D01*
X208100499Y-103449457D01*
X208128379Y-103589614D01*
X208128381Y-103589620D01*
X208183069Y-103721650D01*
X208183074Y-103721659D01*
X208262465Y-103840476D01*
X208262467Y-103840478D01*
X208262468Y-103840479D01*
X208264802Y-103842813D01*
X208265635Y-103844339D01*
X208266333Y-103845189D01*
X208266171Y-103845321D01*
X208298290Y-103904132D01*
X208293311Y-103973824D01*
X208264808Y-104018179D01*
X208224471Y-104058516D01*
X208224467Y-104058521D01*
X208145074Y-104177340D01*
X208145069Y-104177349D01*
X208090381Y-104309379D01*
X208090379Y-104309385D01*
X208062500Y-104449542D01*
X208062500Y-104449545D01*
X208062500Y-104592455D01*
X208062500Y-104592457D01*
X208062499Y-104592457D01*
X208090379Y-104732614D01*
X208090381Y-104732620D01*
X208145069Y-104864650D01*
X208145074Y-104864659D01*
X208195806Y-104940584D01*
X208201156Y-104957672D01*
X208211086Y-104972574D01*
X208211379Y-104990322D01*
X208216684Y-105007262D01*
X208211946Y-105024531D01*
X208212243Y-105042434D01*
X208199234Y-105070871D01*
X208198200Y-105074642D01*
X208198116Y-105074777D01*
X208196979Y-105076611D01*
X208155206Y-105139130D01*
X208149064Y-105153956D01*
X208143766Y-105162509D01*
X208124932Y-105179382D01*
X208109068Y-105199067D01*
X208093433Y-105207604D01*
X208091727Y-105209133D01*
X208090177Y-105209382D01*
X208085808Y-105211768D01*
X207961349Y-105263321D01*
X207961343Y-105263324D01*
X207842524Y-105342717D01*
X207842520Y-105342720D01*
X207741473Y-105443767D01*
X207741470Y-105443771D01*
X207662077Y-105562590D01*
X207662072Y-105562599D01*
X207607384Y-105694629D01*
X207607382Y-105694635D01*
X207579503Y-105834792D01*
X207579503Y-105834795D01*
X207579503Y-105977705D01*
X207579503Y-105977707D01*
X207579502Y-105977707D01*
X207607382Y-106117864D01*
X207607384Y-106117870D01*
X207662072Y-106249900D01*
X207662077Y-106249909D01*
X207741470Y-106368728D01*
X207741473Y-106368732D01*
X207842520Y-106469779D01*
X207842524Y-106469782D01*
X207961343Y-106549175D01*
X207961349Y-106549178D01*
X207961350Y-106549179D01*
X208093383Y-106603869D01*
X208093387Y-106603869D01*
X208093388Y-106603870D01*
X208233545Y-106631750D01*
X208233548Y-106631750D01*
X208376460Y-106631750D01*
X208470754Y-106612992D01*
X208516623Y-106603869D01*
X208648656Y-106549179D01*
X208767482Y-106469782D01*
X208868535Y-106368729D01*
X208947932Y-106249903D01*
X208950221Y-106244377D01*
X208984032Y-106202415D01*
X212617252Y-106202415D01*
X212645132Y-106342572D01*
X212645134Y-106342578D01*
X212699822Y-106474608D01*
X212699827Y-106474617D01*
X212779220Y-106593436D01*
X212779223Y-106593440D01*
X212880270Y-106694487D01*
X212880274Y-106694490D01*
X212999093Y-106773883D01*
X212999102Y-106773888D01*
X213010186Y-106778479D01*
X213131133Y-106828577D01*
X213131137Y-106828577D01*
X213131138Y-106828578D01*
X213271295Y-106856458D01*
X213271298Y-106856458D01*
X213414210Y-106856458D01*
X213508504Y-106837700D01*
X213554373Y-106828577D01*
X213686406Y-106773887D01*
X213805232Y-106694490D01*
X213906285Y-106593437D01*
X213985682Y-106474611D01*
X214040372Y-106342578D01*
X214058095Y-106253479D01*
X214068253Y-106202415D01*
X214068253Y-106059500D01*
X214040373Y-105919343D01*
X214040372Y-105919342D01*
X214040372Y-105919338D01*
X214016811Y-105862457D01*
X215809499Y-105862457D01*
X215837379Y-106002614D01*
X215837381Y-106002620D01*
X215892069Y-106134650D01*
X215892074Y-106134659D01*
X215971467Y-106253478D01*
X215971470Y-106253482D01*
X216072517Y-106354529D01*
X216072521Y-106354532D01*
X216191340Y-106433925D01*
X216191346Y-106433928D01*
X216191347Y-106433929D01*
X216323380Y-106488619D01*
X216323384Y-106488619D01*
X216323385Y-106488620D01*
X216463542Y-106516500D01*
X216463545Y-106516500D01*
X216606457Y-106516500D01*
X216700751Y-106497742D01*
X216746620Y-106488619D01*
X216878653Y-106433929D01*
X216878659Y-106433925D01*
X217002544Y-106351148D01*
X217004104Y-106353483D01*
X217057228Y-106330814D01*
X217104815Y-106335032D01*
X217104818Y-106335019D01*
X217104940Y-106335043D01*
X217107790Y-106335296D01*
X217110787Y-106336205D01*
X217110792Y-106336207D01*
X217110796Y-106336207D01*
X217110797Y-106336208D01*
X217250954Y-106364088D01*
X217250957Y-106364088D01*
X217393869Y-106364088D01*
X217502033Y-106342572D01*
X217534032Y-106336207D01*
X217666065Y-106281517D01*
X217784891Y-106202120D01*
X217885944Y-106101067D01*
X217900068Y-106079929D01*
X217953679Y-106035123D01*
X218023004Y-106026414D01*
X218042653Y-106031993D01*
X218042759Y-106031645D01*
X218048581Y-106033411D01*
X218048586Y-106033413D01*
X218048590Y-106033413D01*
X218048591Y-106033414D01*
X218188748Y-106061294D01*
X218188751Y-106061294D01*
X218331663Y-106061294D01*
X218425957Y-106042536D01*
X218471826Y-106033413D01*
X218603859Y-105978723D01*
X218722685Y-105899326D01*
X218823738Y-105798273D01*
X218903135Y-105679447D01*
X218932540Y-105608457D01*
X219365499Y-105608457D01*
X219393379Y-105748614D01*
X219393381Y-105748620D01*
X219448069Y-105880650D01*
X219448074Y-105880659D01*
X219527467Y-105999478D01*
X219527470Y-105999482D01*
X219628517Y-106100529D01*
X219628521Y-106100532D01*
X219747340Y-106179925D01*
X219747349Y-106179930D01*
X219765777Y-106187563D01*
X219879380Y-106234619D01*
X219879384Y-106234619D01*
X219879385Y-106234620D01*
X220019542Y-106262500D01*
X220019545Y-106262500D01*
X220162457Y-106262500D01*
X220258134Y-106243468D01*
X220302620Y-106234619D01*
X220434653Y-106179929D01*
X220445816Y-106172469D01*
X220459608Y-106163255D01*
X220526285Y-106142376D01*
X220593665Y-106160860D01*
X220640356Y-106212838D01*
X220652500Y-106266356D01*
X220652500Y-106387455D01*
X220652500Y-106387457D01*
X220652499Y-106387457D01*
X220680379Y-106527614D01*
X220680381Y-106527620D01*
X220735069Y-106659650D01*
X220735074Y-106659659D01*
X220814467Y-106778478D01*
X220814470Y-106778482D01*
X220915517Y-106879529D01*
X220915521Y-106879532D01*
X221034340Y-106958925D01*
X221034346Y-106958928D01*
X221034347Y-106958929D01*
X221166380Y-107013619D01*
X221166384Y-107013619D01*
X221166385Y-107013620D01*
X221306542Y-107041500D01*
X221306545Y-107041500D01*
X221449457Y-107041500D01*
X221543751Y-107022742D01*
X221589620Y-107013619D01*
X221669405Y-106980570D01*
X221738872Y-106973102D01*
X221801351Y-107004377D01*
X221831417Y-107047679D01*
X221874069Y-107150649D01*
X221874074Y-107150659D01*
X221953467Y-107269478D01*
X221953470Y-107269482D01*
X222054517Y-107370529D01*
X222054521Y-107370532D01*
X222173340Y-107449925D01*
X222173346Y-107449928D01*
X222173347Y-107449929D01*
X222305380Y-107504619D01*
X222369190Y-107517311D01*
X222405175Y-107524470D01*
X222467086Y-107556855D01*
X222501660Y-107617570D01*
X222497921Y-107687340D01*
X222457054Y-107744012D01*
X222449878Y-107749187D01*
X222422522Y-107767466D01*
X222422517Y-107767470D01*
X222321470Y-107868517D01*
X222321467Y-107868521D01*
X222242074Y-107987340D01*
X222242069Y-107987349D01*
X222187381Y-108119379D01*
X222187379Y-108119385D01*
X222159500Y-108259542D01*
X222159500Y-108259545D01*
X222159500Y-108402455D01*
X222159500Y-108402457D01*
X222159499Y-108402457D01*
X222187379Y-108542614D01*
X222187381Y-108542620D01*
X222242069Y-108674650D01*
X222242074Y-108674659D01*
X222321467Y-108793478D01*
X222321470Y-108793482D01*
X222422517Y-108894529D01*
X222422521Y-108894532D01*
X222541340Y-108973925D01*
X222541346Y-108973928D01*
X222541347Y-108973929D01*
X222673380Y-109028619D01*
X222673384Y-109028619D01*
X222673385Y-109028620D01*
X222813542Y-109056500D01*
X222813545Y-109056500D01*
X222956457Y-109056500D01*
X223050751Y-109037742D01*
X223096620Y-109028619D01*
X223228653Y-108973929D01*
X223347479Y-108894532D01*
X223448532Y-108793479D01*
X223527929Y-108674653D01*
X223582619Y-108542620D01*
X223606881Y-108420650D01*
X223610500Y-108402457D01*
X223610500Y-108259542D01*
X223582620Y-108119385D01*
X223582619Y-108119384D01*
X223582619Y-108119380D01*
X223527929Y-107987347D01*
X223527928Y-107987346D01*
X223527925Y-107987340D01*
X223465862Y-107894457D01*
X223792499Y-107894457D01*
X223820379Y-108034614D01*
X223820381Y-108034620D01*
X223875069Y-108166650D01*
X223875074Y-108166659D01*
X223954467Y-108285478D01*
X223954470Y-108285482D01*
X224055517Y-108386529D01*
X224055521Y-108386532D01*
X224174340Y-108465925D01*
X224174346Y-108465928D01*
X224174347Y-108465929D01*
X224306380Y-108520619D01*
X224306384Y-108520619D01*
X224306385Y-108520620D01*
X224446542Y-108548500D01*
X224446545Y-108548500D01*
X224589457Y-108548500D01*
X224685199Y-108529455D01*
X224729620Y-108520619D01*
X224861653Y-108465929D01*
X224980479Y-108386532D01*
X225081532Y-108285479D01*
X225160929Y-108166653D01*
X225215619Y-108034620D01*
X225230874Y-107957929D01*
X225243500Y-107894457D01*
X225243500Y-107751542D01*
X225215620Y-107611385D01*
X225215619Y-107611384D01*
X225215619Y-107611380D01*
X225160929Y-107479347D01*
X225160928Y-107479346D01*
X225160925Y-107479340D01*
X225081532Y-107360521D01*
X225081529Y-107360517D01*
X224980482Y-107259470D01*
X224980478Y-107259467D01*
X224861659Y-107180074D01*
X224861650Y-107180069D01*
X224729620Y-107125381D01*
X224729614Y-107125379D01*
X224589457Y-107097500D01*
X224589455Y-107097500D01*
X224446545Y-107097500D01*
X224446543Y-107097500D01*
X224306385Y-107125379D01*
X224306379Y-107125381D01*
X224174349Y-107180069D01*
X224174340Y-107180074D01*
X224055521Y-107259467D01*
X224055517Y-107259470D01*
X223954470Y-107360517D01*
X223954467Y-107360521D01*
X223875074Y-107479340D01*
X223875069Y-107479349D01*
X223820381Y-107611379D01*
X223820379Y-107611385D01*
X223792500Y-107751542D01*
X223792500Y-107751545D01*
X223792500Y-107894455D01*
X223792500Y-107894457D01*
X223792499Y-107894457D01*
X223465862Y-107894457D01*
X223448532Y-107868521D01*
X223448529Y-107868517D01*
X223347482Y-107767470D01*
X223347478Y-107767467D01*
X223228659Y-107688074D01*
X223228650Y-107688069D01*
X223096620Y-107633381D01*
X223096614Y-107633379D01*
X222996823Y-107613529D01*
X222934912Y-107581144D01*
X222900338Y-107520428D01*
X222904079Y-107450658D01*
X222944945Y-107393986D01*
X222952118Y-107388813D01*
X222979479Y-107370532D01*
X223080532Y-107269479D01*
X223159929Y-107150653D01*
X223214619Y-107018620D01*
X223226492Y-106958930D01*
X223242500Y-106878457D01*
X223242500Y-106819300D01*
X223262185Y-106752261D01*
X223314989Y-106706506D01*
X223384147Y-106696562D01*
X223431598Y-106713763D01*
X223438166Y-106717814D01*
X223604703Y-106772999D01*
X223707491Y-106783500D01*
X225307508Y-106783499D01*
X225410297Y-106772999D01*
X225576834Y-106717814D01*
X225726156Y-106625712D01*
X225850212Y-106501656D01*
X225942314Y-106352334D01*
X225997499Y-106185797D01*
X226008000Y-106083009D01*
X226007999Y-104482992D01*
X225997499Y-104380203D01*
X225942314Y-104213666D01*
X225850212Y-104064344D01*
X225726156Y-103940288D01*
X225726155Y-103940287D01*
X225677842Y-103910487D01*
X225631118Y-103858539D01*
X225619897Y-103789576D01*
X225647741Y-103725494D01*
X225648881Y-103724249D01*
X225648848Y-103724221D01*
X225652011Y-103720516D01*
X225652011Y-103720515D01*
X225652017Y-103720510D01*
X225790843Y-103529433D01*
X225898068Y-103318992D01*
X225971053Y-103094368D01*
X225980090Y-103037313D01*
X226008000Y-102861097D01*
X226008000Y-102624902D01*
X225979762Y-102446620D01*
X225971053Y-102391632D01*
X225970176Y-102388934D01*
X225918697Y-102230498D01*
X225898068Y-102167008D01*
X225898066Y-102167005D01*
X225898066Y-102167003D01*
X225824885Y-102023379D01*
X225790843Y-101956567D01*
X225652017Y-101765490D01*
X225485010Y-101598483D01*
X225450372Y-101573317D01*
X225407707Y-101517989D01*
X225401728Y-101448375D01*
X225434333Y-101386580D01*
X225450373Y-101372682D01*
X225485010Y-101347517D01*
X225652017Y-101180510D01*
X225790843Y-100989433D01*
X225898068Y-100778992D01*
X225971053Y-100554368D01*
X225987828Y-100448454D01*
X226008000Y-100321097D01*
X226008000Y-100084902D01*
X225971053Y-99851631D01*
X225924962Y-99709779D01*
X225898068Y-99627008D01*
X225898066Y-99627005D01*
X225898066Y-99627003D01*
X225806935Y-99448150D01*
X225790843Y-99416567D01*
X225652017Y-99225490D01*
X225485010Y-99058483D01*
X225450372Y-99033317D01*
X225407707Y-98977989D01*
X225401728Y-98908375D01*
X225434333Y-98846580D01*
X225450373Y-98832682D01*
X225485010Y-98807517D01*
X225652017Y-98640510D01*
X225790843Y-98449433D01*
X225898068Y-98238992D01*
X225971053Y-98014368D01*
X225977195Y-97975588D01*
X226008000Y-97781097D01*
X226008000Y-97544902D01*
X225971053Y-97311631D01*
X225902117Y-97099470D01*
X225898068Y-97087008D01*
X225898066Y-97087005D01*
X225898066Y-97087003D01*
X225821890Y-96937500D01*
X225790843Y-96876567D01*
X225652017Y-96685490D01*
X225485010Y-96518483D01*
X225293933Y-96379657D01*
X225253205Y-96358905D01*
X225083496Y-96272433D01*
X224858868Y-96199446D01*
X224625597Y-96162500D01*
X224625592Y-96162500D01*
X224423374Y-96162500D01*
X224356335Y-96142815D01*
X224310580Y-96090011D01*
X224300636Y-96020853D01*
X224329661Y-95957297D01*
X224335693Y-95950819D01*
X224398529Y-95887982D01*
X224398532Y-95887979D01*
X224477929Y-95769153D01*
X224532619Y-95637120D01*
X224560500Y-95496955D01*
X224560500Y-95354045D01*
X224560500Y-95354042D01*
X224532620Y-95213885D01*
X224532619Y-95213884D01*
X224532619Y-95213880D01*
X224477929Y-95081847D01*
X224477928Y-95081846D01*
X224477925Y-95081840D01*
X224398532Y-94963021D01*
X224398529Y-94963017D01*
X224297482Y-94861970D01*
X224297478Y-94861967D01*
X224178659Y-94782574D01*
X224178650Y-94782569D01*
X224046620Y-94727881D01*
X224046614Y-94727879D01*
X223906457Y-94700000D01*
X223906455Y-94700000D01*
X223763545Y-94700000D01*
X223763543Y-94700000D01*
X223623385Y-94727879D01*
X223623379Y-94727881D01*
X223491349Y-94782569D01*
X223491340Y-94782574D01*
X223372521Y-94861967D01*
X223372517Y-94861970D01*
X223271470Y-94963017D01*
X223271467Y-94963021D01*
X223192074Y-95081840D01*
X223192069Y-95081849D01*
X223137381Y-95213879D01*
X223137379Y-95213885D01*
X223109500Y-95354042D01*
X223109500Y-95354045D01*
X223109500Y-95496955D01*
X223109500Y-95496957D01*
X223109499Y-95496957D01*
X223137379Y-95637114D01*
X223137381Y-95637120D01*
X223192069Y-95769150D01*
X223192074Y-95769159D01*
X223271467Y-95887978D01*
X223271470Y-95887982D01*
X223372517Y-95989029D01*
X223372521Y-95989032D01*
X223491340Y-96068425D01*
X223491346Y-96068428D01*
X223491347Y-96068429D01*
X223623380Y-96123119D01*
X223623384Y-96123119D01*
X223623385Y-96123120D01*
X223705041Y-96139363D01*
X223766952Y-96171748D01*
X223801526Y-96232464D01*
X223797786Y-96302233D01*
X223756919Y-96358905D01*
X223737146Y-96371464D01*
X223721066Y-96379657D01*
X223612050Y-96458862D01*
X223529990Y-96518483D01*
X223529988Y-96518485D01*
X223529987Y-96518485D01*
X223362985Y-96685487D01*
X223362985Y-96685488D01*
X223362983Y-96685490D01*
X223309775Y-96758724D01*
X223224157Y-96876566D01*
X223116933Y-97087003D01*
X223043946Y-97311631D01*
X223007000Y-97544902D01*
X223007000Y-97781097D01*
X223043946Y-98014368D01*
X223116933Y-98238996D01*
X223203315Y-98408528D01*
X223216211Y-98477197D01*
X223189935Y-98541938D01*
X223132828Y-98582195D01*
X223089547Y-98587202D01*
X223089547Y-98588500D01*
X222940543Y-98588500D01*
X222800385Y-98616379D01*
X222800379Y-98616381D01*
X222668349Y-98671069D01*
X222668340Y-98671074D01*
X222549521Y-98750467D01*
X222549517Y-98750470D01*
X222448470Y-98851517D01*
X222448467Y-98851521D01*
X222369074Y-98970340D01*
X222369069Y-98970349D01*
X222314381Y-99102379D01*
X222314379Y-99102385D01*
X222286500Y-99242542D01*
X222286500Y-99242545D01*
X222286500Y-99385455D01*
X222286500Y-99385457D01*
X222286499Y-99385457D01*
X222314379Y-99525614D01*
X222314381Y-99525620D01*
X222369069Y-99657650D01*
X222369074Y-99657659D01*
X222448467Y-99776478D01*
X222448470Y-99776482D01*
X222549517Y-99877529D01*
X222549521Y-99877532D01*
X222668340Y-99956925D01*
X222668349Y-99956930D01*
X222698258Y-99969318D01*
X222800380Y-100011619D01*
X222800384Y-100011619D01*
X222800385Y-100011620D01*
X222907192Y-100032866D01*
X222969103Y-100065251D01*
X223003677Y-100125967D01*
X223007000Y-100154483D01*
X223007000Y-100321097D01*
X223043946Y-100554368D01*
X223116933Y-100778996D01*
X223188334Y-100919127D01*
X223224157Y-100989433D01*
X223362983Y-101180510D01*
X223529990Y-101347517D01*
X223564627Y-101372683D01*
X223607292Y-101428013D01*
X223613271Y-101497626D01*
X223580665Y-101559421D01*
X223564630Y-101573315D01*
X223560247Y-101576500D01*
X223529988Y-101598484D01*
X223362985Y-101765487D01*
X223362980Y-101765493D01*
X223344362Y-101791118D01*
X223289031Y-101833782D01*
X223219417Y-101839760D01*
X223196594Y-101832791D01*
X223096624Y-101791382D01*
X223096614Y-101791379D01*
X222956457Y-101763500D01*
X222956455Y-101763500D01*
X222813545Y-101763500D01*
X222813543Y-101763500D01*
X222673385Y-101791379D01*
X222673379Y-101791381D01*
X222541349Y-101846069D01*
X222541340Y-101846074D01*
X222422521Y-101925467D01*
X222422517Y-101925470D01*
X222321470Y-102026517D01*
X222321467Y-102026521D01*
X222242074Y-102145340D01*
X222242069Y-102145349D01*
X222187381Y-102277379D01*
X222187379Y-102277385D01*
X222159500Y-102417542D01*
X222159500Y-102417545D01*
X222159500Y-102560455D01*
X222159500Y-102560457D01*
X222159499Y-102560457D01*
X222187379Y-102700614D01*
X222187381Y-102700620D01*
X222242069Y-102832650D01*
X222242074Y-102832659D01*
X222321467Y-102951478D01*
X222321470Y-102951482D01*
X222405045Y-103035057D01*
X222438530Y-103096380D01*
X222433546Y-103166072D01*
X222391674Y-103222005D01*
X222386256Y-103225840D01*
X222295517Y-103286470D01*
X222194470Y-103387517D01*
X222194467Y-103387521D01*
X222115074Y-103506340D01*
X222115069Y-103506349D01*
X222060381Y-103638379D01*
X222060379Y-103638385D01*
X222032500Y-103778542D01*
X222032500Y-103778545D01*
X222032500Y-103921455D01*
X222032500Y-103921457D01*
X222032499Y-103921457D01*
X222060379Y-104061614D01*
X222060381Y-104061620D01*
X222115069Y-104193650D01*
X222115074Y-104193659D01*
X222194467Y-104312478D01*
X222194470Y-104312482D01*
X222295517Y-104413529D01*
X222295521Y-104413532D01*
X222414340Y-104492925D01*
X222414346Y-104492928D01*
X222414347Y-104492929D01*
X222546380Y-104547619D01*
X222546384Y-104547619D01*
X222546385Y-104547620D01*
X222686542Y-104575500D01*
X222686545Y-104575500D01*
X222829455Y-104575500D01*
X222858808Y-104569661D01*
X222928398Y-104575887D01*
X222983576Y-104618749D01*
X223006822Y-104684638D01*
X223007000Y-104691278D01*
X223007000Y-106039111D01*
X222987315Y-106106150D01*
X222934511Y-106151905D01*
X222865353Y-106161849D01*
X222835548Y-106153672D01*
X222728620Y-106109381D01*
X222728614Y-106109379D01*
X222588457Y-106081500D01*
X222588455Y-106081500D01*
X222445545Y-106081500D01*
X222445543Y-106081500D01*
X222305385Y-106109379D01*
X222305375Y-106109382D01*
X222225595Y-106142428D01*
X222156125Y-106149897D01*
X222093646Y-106118621D01*
X222063582Y-106075320D01*
X222020930Y-105972349D01*
X222020925Y-105972340D01*
X221941532Y-105853521D01*
X221941529Y-105853517D01*
X221840482Y-105752470D01*
X221840478Y-105752467D01*
X221721659Y-105673074D01*
X221721650Y-105673069D01*
X221589620Y-105618381D01*
X221589614Y-105618379D01*
X221449457Y-105590500D01*
X221449455Y-105590500D01*
X221306545Y-105590500D01*
X221306543Y-105590500D01*
X221166385Y-105618379D01*
X221166379Y-105618381D01*
X221034349Y-105673069D01*
X221034342Y-105673073D01*
X221009390Y-105689746D01*
X220942712Y-105710623D01*
X220875332Y-105692138D01*
X220828643Y-105640159D01*
X220816500Y-105586643D01*
X220816500Y-105465542D01*
X220788620Y-105325385D01*
X220788619Y-105325384D01*
X220788619Y-105325380D01*
X220740260Y-105208631D01*
X220733930Y-105193349D01*
X220733925Y-105193340D01*
X220654532Y-105074521D01*
X220654529Y-105074517D01*
X220553482Y-104973470D01*
X220553478Y-104973467D01*
X220434659Y-104894074D01*
X220434650Y-104894069D01*
X220302620Y-104839381D01*
X220302614Y-104839379D01*
X220162457Y-104811500D01*
X220162455Y-104811500D01*
X220019545Y-104811500D01*
X220019543Y-104811500D01*
X219879385Y-104839379D01*
X219879379Y-104839381D01*
X219747349Y-104894069D01*
X219747340Y-104894074D01*
X219628521Y-104973467D01*
X219628517Y-104973470D01*
X219527470Y-105074517D01*
X219527467Y-105074521D01*
X219448074Y-105193340D01*
X219448069Y-105193349D01*
X219393381Y-105325379D01*
X219393379Y-105325385D01*
X219365500Y-105465542D01*
X219365500Y-105465545D01*
X219365500Y-105608455D01*
X219365500Y-105608457D01*
X219365499Y-105608457D01*
X218932540Y-105608457D01*
X218957825Y-105547414D01*
X218985706Y-105407249D01*
X218985706Y-105264339D01*
X218985706Y-105264336D01*
X218957826Y-105124179D01*
X218957825Y-105124178D01*
X218957825Y-105124174D01*
X218903135Y-104992141D01*
X218903134Y-104992140D01*
X218903131Y-104992134D01*
X218823738Y-104873315D01*
X218823735Y-104873311D01*
X218790635Y-104840211D01*
X218757150Y-104778888D01*
X218762134Y-104709196D01*
X218804006Y-104653263D01*
X218869470Y-104628846D01*
X218902508Y-104630913D01*
X219022255Y-104654733D01*
X219022258Y-104654733D01*
X219165170Y-104654733D01*
X219284917Y-104630913D01*
X219305333Y-104626852D01*
X219437366Y-104572162D01*
X219556192Y-104492765D01*
X219657245Y-104391712D01*
X219736642Y-104272886D01*
X219791332Y-104140853D01*
X219806551Y-104064342D01*
X219819213Y-104000690D01*
X219819213Y-103857776D01*
X219813652Y-103829822D01*
X219819879Y-103760230D01*
X219862741Y-103705052D01*
X219928630Y-103681807D01*
X219959461Y-103684012D01*
X219986416Y-103689374D01*
X219986419Y-103689374D01*
X220129331Y-103689374D01*
X220223625Y-103670616D01*
X220269494Y-103661493D01*
X220401527Y-103606803D01*
X220520353Y-103527406D01*
X220621406Y-103426353D01*
X220700803Y-103307527D01*
X220755493Y-103175494D01*
X220772660Y-103089191D01*
X220783374Y-103035331D01*
X220783374Y-102892416D01*
X220755494Y-102752259D01*
X220755493Y-102752258D01*
X220755493Y-102752254D01*
X220705484Y-102631521D01*
X220700804Y-102620223D01*
X220700799Y-102620214D01*
X220621406Y-102501395D01*
X220621403Y-102501391D01*
X220520356Y-102400344D01*
X220520352Y-102400341D01*
X220401533Y-102320948D01*
X220401524Y-102320943D01*
X220269494Y-102266255D01*
X220269488Y-102266253D01*
X220129331Y-102238374D01*
X220129329Y-102238374D01*
X219986419Y-102238374D01*
X219986417Y-102238374D01*
X219846259Y-102266253D01*
X219846253Y-102266255D01*
X219714223Y-102320943D01*
X219714214Y-102320948D01*
X219595395Y-102400341D01*
X219595391Y-102400344D01*
X219494344Y-102501391D01*
X219494341Y-102501395D01*
X219414948Y-102620214D01*
X219414943Y-102620223D01*
X219360255Y-102752253D01*
X219360253Y-102752259D01*
X219332374Y-102892416D01*
X219332374Y-102892419D01*
X219332374Y-103035329D01*
X219332769Y-103037313D01*
X219337935Y-103063287D01*
X219335720Y-103088028D01*
X219337707Y-103112783D01*
X219332660Y-103122219D01*
X219331706Y-103132878D01*
X219316470Y-103152490D01*
X219304756Y-103174394D01*
X219295407Y-103179604D01*
X219288843Y-103188055D01*
X219265422Y-103196316D01*
X219243726Y-103208410D01*
X219230650Y-103208583D01*
X219222953Y-103211299D01*
X219208545Y-103211233D01*
X219200255Y-103210712D01*
X219165168Y-103203733D01*
X219089125Y-103203733D01*
X219085240Y-103203489D01*
X219055910Y-103192838D01*
X219025973Y-103184048D01*
X219023342Y-103181012D01*
X219019566Y-103179641D01*
X219000648Y-103154821D01*
X218980218Y-103131244D01*
X218979646Y-103127268D01*
X218977211Y-103124073D01*
X218974715Y-103092974D01*
X218970274Y-103062086D01*
X218971792Y-103056551D01*
X218971622Y-103054427D01*
X218973168Y-103051535D01*
X218978451Y-103032280D01*
X218980449Y-103027456D01*
X219010619Y-102954620D01*
X219023193Y-102891406D01*
X219038500Y-102814457D01*
X219038500Y-102671542D01*
X219010620Y-102531385D01*
X219010619Y-102531384D01*
X219010619Y-102531380D01*
X218955929Y-102399347D01*
X218955928Y-102399346D01*
X218955925Y-102399340D01*
X218877915Y-102282591D01*
X218857037Y-102215914D01*
X218875521Y-102148534D01*
X218927500Y-102101843D01*
X218956824Y-102092083D01*
X219049620Y-102073625D01*
X219181653Y-102018935D01*
X219300479Y-101939538D01*
X219401532Y-101838485D01*
X219480929Y-101719659D01*
X219535619Y-101587626D01*
X219549471Y-101517989D01*
X219563500Y-101447463D01*
X219563500Y-101304548D01*
X219543807Y-101205550D01*
X219550034Y-101135959D01*
X219562317Y-101112475D01*
X219590929Y-101069656D01*
X219645619Y-100937623D01*
X219658175Y-100874500D01*
X219673500Y-100797460D01*
X219673500Y-100654545D01*
X219645620Y-100514388D01*
X219645619Y-100514387D01*
X219645619Y-100514383D01*
X219618310Y-100448453D01*
X219610841Y-100378985D01*
X219618308Y-100353551D01*
X219645619Y-100287620D01*
X219673500Y-100147455D01*
X219673500Y-100004545D01*
X219673500Y-100004542D01*
X219645620Y-99864385D01*
X219645619Y-99864384D01*
X219645619Y-99864380D01*
X219590929Y-99732347D01*
X219590928Y-99732346D01*
X219590925Y-99732340D01*
X219511532Y-99613521D01*
X219511529Y-99613517D01*
X219410482Y-99512470D01*
X219410478Y-99512467D01*
X219291659Y-99433074D01*
X219291650Y-99433069D01*
X219159620Y-99378381D01*
X219159614Y-99378379D01*
X219019457Y-99350500D01*
X219019455Y-99350500D01*
X218876545Y-99350500D01*
X218876543Y-99350500D01*
X218736385Y-99378379D01*
X218736379Y-99378381D01*
X218604349Y-99433069D01*
X218604340Y-99433074D01*
X218485521Y-99512467D01*
X218485517Y-99512470D01*
X218384470Y-99613517D01*
X218384467Y-99613521D01*
X218305074Y-99732340D01*
X218305069Y-99732349D01*
X218250381Y-99864379D01*
X218250379Y-99864385D01*
X218222500Y-100004542D01*
X218222500Y-100004545D01*
X218222500Y-100147455D01*
X218222500Y-100147457D01*
X218222499Y-100147457D01*
X218250379Y-100287614D01*
X218250382Y-100287624D01*
X218277689Y-100353549D01*
X218285158Y-100423018D01*
X218277690Y-100448452D01*
X218250381Y-100514383D01*
X218250380Y-100514386D01*
X218250380Y-100514387D01*
X218250379Y-100514388D01*
X218222500Y-100654545D01*
X218222500Y-100654548D01*
X218222500Y-100797458D01*
X218222500Y-100797460D01*
X218222499Y-100797460D01*
X218242192Y-100896457D01*
X218235965Y-100966049D01*
X218223678Y-100989539D01*
X218195070Y-101032354D01*
X218140381Y-101164385D01*
X218140379Y-101164391D01*
X218112500Y-101304548D01*
X218112500Y-101304551D01*
X218112500Y-101447461D01*
X218112500Y-101447463D01*
X218112499Y-101447463D01*
X218140379Y-101587620D01*
X218140381Y-101587626D01*
X218195069Y-101719656D01*
X218195074Y-101719665D01*
X218273084Y-101836414D01*
X218293962Y-101903091D01*
X218275478Y-101970472D01*
X218223499Y-102017162D01*
X218194174Y-102026922D01*
X218101385Y-102045379D01*
X218101379Y-102045381D01*
X217969349Y-102100069D01*
X217969340Y-102100074D01*
X217850521Y-102179467D01*
X217850517Y-102179470D01*
X217749470Y-102280517D01*
X217749467Y-102280521D01*
X217670074Y-102399340D01*
X217670069Y-102399349D01*
X217615381Y-102531379D01*
X217615379Y-102531385D01*
X217587500Y-102671542D01*
X217587500Y-102671545D01*
X217587500Y-102814455D01*
X217587500Y-102814457D01*
X217587499Y-102814457D01*
X217615379Y-102954614D01*
X217615381Y-102954620D01*
X217670069Y-103086650D01*
X217670074Y-103086659D01*
X217749467Y-103205478D01*
X217749470Y-103205482D01*
X217850517Y-103306529D01*
X217850521Y-103306532D01*
X217969340Y-103385925D01*
X217969349Y-103385930D01*
X217973190Y-103387521D01*
X218101380Y-103440619D01*
X218101384Y-103440619D01*
X218101385Y-103440620D01*
X218241542Y-103468500D01*
X218313701Y-103468500D01*
X218380740Y-103488185D01*
X218426495Y-103540989D01*
X218436439Y-103610147D01*
X218428262Y-103639953D01*
X218396094Y-103717612D01*
X218396092Y-103717618D01*
X218368213Y-103857775D01*
X218368213Y-103857776D01*
X218368213Y-103857778D01*
X218368213Y-104000688D01*
X218368213Y-104000690D01*
X218368212Y-104000690D01*
X218396092Y-104140847D01*
X218396094Y-104140853D01*
X218450782Y-104272883D01*
X218450787Y-104272892D01*
X218530180Y-104391711D01*
X218530183Y-104391715D01*
X218563283Y-104424815D01*
X218596768Y-104486138D01*
X218591784Y-104555830D01*
X218549912Y-104611763D01*
X218484448Y-104636180D01*
X218451411Y-104634113D01*
X218331665Y-104610294D01*
X218331661Y-104610294D01*
X218188751Y-104610294D01*
X218188749Y-104610294D01*
X218048591Y-104638173D01*
X218048585Y-104638175D01*
X217916555Y-104692863D01*
X217916546Y-104692868D01*
X217797727Y-104772261D01*
X217797723Y-104772264D01*
X217696680Y-104873308D01*
X217696675Y-104873313D01*
X217682546Y-104894458D01*
X217628932Y-104939262D01*
X217559607Y-104947967D01*
X217553668Y-104946855D01*
X217542524Y-104944486D01*
X217534032Y-104940969D01*
X217408230Y-104915945D01*
X217407430Y-104915775D01*
X217377364Y-104899544D01*
X217347105Y-104883716D01*
X217346558Y-104882914D01*
X217345947Y-104882584D01*
X217344288Y-104879581D01*
X217318647Y-104841937D01*
X217305405Y-104809967D01*
X217305401Y-104809960D01*
X217226008Y-104691141D01*
X217226005Y-104691137D01*
X217124958Y-104590090D01*
X217124954Y-104590087D01*
X217006135Y-104510694D01*
X217006126Y-104510689D01*
X216874096Y-104456001D01*
X216874090Y-104455999D01*
X216733933Y-104428120D01*
X216733931Y-104428120D01*
X216591021Y-104428120D01*
X216591019Y-104428120D01*
X216450861Y-104455999D01*
X216450855Y-104456001D01*
X216318825Y-104510689D01*
X216318816Y-104510694D01*
X216199997Y-104590087D01*
X216199993Y-104590090D01*
X216098946Y-104691137D01*
X216098943Y-104691141D01*
X216019550Y-104809960D01*
X216019545Y-104809969D01*
X215964857Y-104941999D01*
X215964855Y-104942005D01*
X215936976Y-105082162D01*
X215936976Y-105082165D01*
X215936976Y-105225075D01*
X215936976Y-105225077D01*
X215936975Y-105225077D01*
X215950724Y-105294191D01*
X215944497Y-105363783D01*
X215932210Y-105387272D01*
X215892071Y-105447345D01*
X215837381Y-105579379D01*
X215837379Y-105579385D01*
X215809500Y-105719542D01*
X215809500Y-105719545D01*
X215809500Y-105862455D01*
X215809500Y-105862457D01*
X215809499Y-105862457D01*
X214016811Y-105862457D01*
X213985682Y-105787305D01*
X213985679Y-105787300D01*
X213982367Y-105782343D01*
X213982366Y-105782342D01*
X213906285Y-105668479D01*
X213906282Y-105668475D01*
X213805235Y-105567428D01*
X213805231Y-105567425D01*
X213686412Y-105488032D01*
X213686403Y-105488027D01*
X213554373Y-105433339D01*
X213554367Y-105433337D01*
X213414210Y-105405458D01*
X213414208Y-105405458D01*
X213271298Y-105405458D01*
X213271296Y-105405458D01*
X213131138Y-105433337D01*
X213131132Y-105433339D01*
X212999102Y-105488027D01*
X212999093Y-105488032D01*
X212880274Y-105567425D01*
X212880270Y-105567428D01*
X212779223Y-105668475D01*
X212779220Y-105668479D01*
X212699827Y-105787298D01*
X212699822Y-105787307D01*
X212645134Y-105919337D01*
X212645132Y-105919343D01*
X212617253Y-106059500D01*
X212617253Y-106059503D01*
X212617253Y-106202413D01*
X212617253Y-106202415D01*
X212617252Y-106202415D01*
X208984032Y-106202415D01*
X208994059Y-106189971D01*
X209017328Y-106177265D01*
X209141788Y-106125712D01*
X209260614Y-106046315D01*
X209280515Y-106026414D01*
X209341200Y-105965730D01*
X209361664Y-105945265D01*
X209361667Y-105945262D01*
X209441064Y-105826436D01*
X209495754Y-105694403D01*
X209512850Y-105608457D01*
X209523635Y-105554240D01*
X209523635Y-105411325D01*
X209495755Y-105271168D01*
X209495754Y-105271167D01*
X209495754Y-105271163D01*
X209441064Y-105139130D01*
X209441063Y-105139129D01*
X209441060Y-105139123D01*
X209390328Y-105063198D01*
X209369450Y-104996521D01*
X209387934Y-104929141D01*
X209390329Y-104925415D01*
X209430924Y-104864661D01*
X209430925Y-104864658D01*
X209430929Y-104864653D01*
X209485619Y-104732620D01*
X209504406Y-104638173D01*
X209513500Y-104592457D01*
X209513500Y-104449542D01*
X209485620Y-104309385D01*
X209485619Y-104309384D01*
X209485619Y-104309380D01*
X209443318Y-104207258D01*
X209430930Y-104177349D01*
X209430925Y-104177340D01*
X209351532Y-104058521D01*
X209351529Y-104058517D01*
X209349192Y-104056180D01*
X209348358Y-104054653D01*
X209347667Y-104053811D01*
X209347826Y-104053679D01*
X209315707Y-103994857D01*
X209320691Y-103925165D01*
X209349192Y-103880818D01*
X209389532Y-103840479D01*
X209468929Y-103721653D01*
X209523619Y-103589620D01*
X209551500Y-103449455D01*
X209551500Y-103306545D01*
X209551500Y-103306542D01*
X209523620Y-103166385D01*
X209523619Y-103166384D01*
X209523619Y-103166380D01*
X209477184Y-103054276D01*
X209468930Y-103034349D01*
X209468925Y-103034340D01*
X209389532Y-102915521D01*
X209389529Y-102915517D01*
X209288482Y-102814470D01*
X209288478Y-102814467D01*
X209169659Y-102735074D01*
X209169650Y-102735069D01*
X209037620Y-102680381D01*
X209037615Y-102680379D01*
X208954806Y-102663907D01*
X208892896Y-102631521D01*
X208858322Y-102570805D01*
X208862063Y-102501036D01*
X208864438Y-102494837D01*
X208908305Y-102388934D01*
X208924711Y-102306455D01*
X208930745Y-102276124D01*
X208963130Y-102214213D01*
X209016374Y-102181652D01*
X209020892Y-102180280D01*
X209020907Y-102180278D01*
X209152940Y-102125588D01*
X209271766Y-102046191D01*
X209372819Y-101945138D01*
X209452216Y-101826312D01*
X209506906Y-101694279D01*
X209511446Y-101671457D01*
X212634499Y-101671457D01*
X212662379Y-101811614D01*
X212662381Y-101811620D01*
X212717069Y-101943650D01*
X212717074Y-101943659D01*
X212796466Y-102062477D01*
X212796467Y-102062478D01*
X212796468Y-102062479D01*
X212852182Y-102118193D01*
X212885666Y-102179514D01*
X212888500Y-102205873D01*
X212888500Y-102306455D01*
X212888500Y-102306457D01*
X212888499Y-102306457D01*
X212916379Y-102446614D01*
X212916381Y-102446620D01*
X212971069Y-102578650D01*
X212971074Y-102578659D01*
X213050467Y-102697478D01*
X213050470Y-102697482D01*
X213151517Y-102798529D01*
X213151521Y-102798532D01*
X213270340Y-102877925D01*
X213270353Y-102877932D01*
X213389244Y-102927178D01*
X213443648Y-102971019D01*
X213465713Y-103037313D01*
X213456353Y-103089191D01*
X213424382Y-103166375D01*
X213424379Y-103166385D01*
X213396500Y-103306542D01*
X213396500Y-103306545D01*
X213396500Y-103449455D01*
X213396500Y-103449457D01*
X213396499Y-103449457D01*
X213424379Y-103589614D01*
X213424381Y-103589620D01*
X213479069Y-103721650D01*
X213479074Y-103721659D01*
X213558467Y-103840478D01*
X213558470Y-103840482D01*
X213569807Y-103851819D01*
X213603292Y-103913142D01*
X213598308Y-103982834D01*
X213569807Y-104027181D01*
X213521470Y-104075517D01*
X213521467Y-104075521D01*
X213442074Y-104194340D01*
X213442069Y-104194349D01*
X213387381Y-104326379D01*
X213387379Y-104326385D01*
X213359500Y-104466542D01*
X213359500Y-104466545D01*
X213359500Y-104609455D01*
X213359500Y-104609457D01*
X213359499Y-104609457D01*
X213387379Y-104749614D01*
X213387381Y-104749620D01*
X213442069Y-104881650D01*
X213442074Y-104881659D01*
X213521467Y-105000478D01*
X213521470Y-105000482D01*
X213622517Y-105101529D01*
X213622521Y-105101532D01*
X213741340Y-105180925D01*
X213741346Y-105180928D01*
X213741347Y-105180929D01*
X213873380Y-105235619D01*
X213873384Y-105235619D01*
X213873385Y-105235620D01*
X214013542Y-105263500D01*
X214013545Y-105263500D01*
X214156457Y-105263500D01*
X214250751Y-105244742D01*
X214296620Y-105235619D01*
X214428653Y-105180929D01*
X214547479Y-105101532D01*
X214648532Y-105000479D01*
X214727929Y-104881653D01*
X214782619Y-104749620D01*
X214806643Y-104628846D01*
X214810500Y-104609457D01*
X214810500Y-104466542D01*
X214782620Y-104326385D01*
X214782619Y-104326384D01*
X214782619Y-104326380D01*
X214727929Y-104194347D01*
X214727928Y-104194346D01*
X214727925Y-104194340D01*
X214648532Y-104075521D01*
X214648529Y-104075517D01*
X214637192Y-104064180D01*
X214603707Y-104002857D01*
X214608691Y-103933165D01*
X214637189Y-103888821D01*
X214685532Y-103840479D01*
X214764929Y-103721653D01*
X214819619Y-103589620D01*
X214847500Y-103449455D01*
X214847500Y-103306545D01*
X214847500Y-103306542D01*
X214819620Y-103166385D01*
X214819619Y-103166384D01*
X214819619Y-103166380D01*
X214773184Y-103054276D01*
X214764930Y-103034349D01*
X214764925Y-103034340D01*
X214685532Y-102915521D01*
X214685529Y-102915517D01*
X214584482Y-102814470D01*
X214584478Y-102814467D01*
X214465659Y-102735074D01*
X214465649Y-102735069D01*
X214346754Y-102685821D01*
X214292351Y-102641980D01*
X214270286Y-102575686D01*
X214279644Y-102523812D01*
X214311619Y-102446620D01*
X214326181Y-102373413D01*
X214339500Y-102306457D01*
X214339500Y-102163542D01*
X214317403Y-102052457D01*
X215428499Y-102052457D01*
X215456379Y-102192614D01*
X215456381Y-102192620D01*
X215511069Y-102324650D01*
X215511074Y-102324659D01*
X215590467Y-102443478D01*
X215590470Y-102443482D01*
X215691517Y-102544529D01*
X215691521Y-102544532D01*
X215810340Y-102623925D01*
X215810349Y-102623930D01*
X215828676Y-102631521D01*
X215942380Y-102678619D01*
X215942384Y-102678619D01*
X215942385Y-102678620D01*
X216082542Y-102706500D01*
X216082545Y-102706500D01*
X216225457Y-102706500D01*
X216319751Y-102687742D01*
X216365620Y-102678619D01*
X216497653Y-102623929D01*
X216616479Y-102544532D01*
X216717532Y-102443479D01*
X216796929Y-102324653D01*
X216851619Y-102192620D01*
X216870028Y-102100074D01*
X216879500Y-102052457D01*
X216879500Y-101909542D01*
X216851620Y-101769385D01*
X216851619Y-101769384D01*
X216851619Y-101769380D01*
X216796929Y-101637347D01*
X216796928Y-101637346D01*
X216796925Y-101637340D01*
X216717532Y-101518521D01*
X216717529Y-101518517D01*
X216616482Y-101417470D01*
X216616478Y-101417467D01*
X216497659Y-101338074D01*
X216497650Y-101338069D01*
X216365620Y-101283381D01*
X216365614Y-101283379D01*
X216225457Y-101255500D01*
X216225455Y-101255500D01*
X216082545Y-101255500D01*
X216082543Y-101255500D01*
X215942385Y-101283379D01*
X215942379Y-101283381D01*
X215810349Y-101338069D01*
X215810340Y-101338074D01*
X215691521Y-101417467D01*
X215691517Y-101417470D01*
X215590470Y-101518517D01*
X215590467Y-101518521D01*
X215511074Y-101637340D01*
X215511069Y-101637349D01*
X215456381Y-101769379D01*
X215456379Y-101769385D01*
X215428500Y-101909542D01*
X215428500Y-101909545D01*
X215428500Y-102052455D01*
X215428500Y-102052457D01*
X215428499Y-102052457D01*
X214317403Y-102052457D01*
X214311620Y-102023385D01*
X214311619Y-102023384D01*
X214311619Y-102023380D01*
X214261794Y-101903091D01*
X214256932Y-101891353D01*
X214256925Y-101891340D01*
X214177532Y-101772521D01*
X214177529Y-101772517D01*
X214121819Y-101716807D01*
X214088334Y-101655484D01*
X214085500Y-101629126D01*
X214085500Y-101528542D01*
X214057620Y-101388385D01*
X214057619Y-101388384D01*
X214057619Y-101388380D01*
X214002929Y-101256347D01*
X214002928Y-101256346D01*
X214002925Y-101256340D01*
X213923532Y-101137521D01*
X213923529Y-101137517D01*
X213822482Y-101036470D01*
X213822478Y-101036467D01*
X213703659Y-100957074D01*
X213703650Y-100957069D01*
X213571620Y-100902381D01*
X213571614Y-100902379D01*
X213431457Y-100874500D01*
X213431455Y-100874500D01*
X213288545Y-100874500D01*
X213288543Y-100874500D01*
X213148385Y-100902379D01*
X213148379Y-100902381D01*
X213016349Y-100957069D01*
X213016340Y-100957074D01*
X212897521Y-101036467D01*
X212897517Y-101036470D01*
X212796470Y-101137517D01*
X212796467Y-101137521D01*
X212717074Y-101256340D01*
X212717069Y-101256349D01*
X212662381Y-101388379D01*
X212662379Y-101388385D01*
X212634500Y-101528542D01*
X212634500Y-101528545D01*
X212634500Y-101671455D01*
X212634500Y-101671457D01*
X212634499Y-101671457D01*
X209511446Y-101671457D01*
X209525961Y-101598484D01*
X209534787Y-101554116D01*
X209534787Y-101411201D01*
X209506907Y-101271044D01*
X209506906Y-101271043D01*
X209506906Y-101271039D01*
X209452216Y-101139006D01*
X209452215Y-101139005D01*
X209452212Y-101138999D01*
X209372819Y-101020180D01*
X209372816Y-101020176D01*
X209271769Y-100919129D01*
X209271765Y-100919126D01*
X209152946Y-100839733D01*
X209152937Y-100839728D01*
X209020907Y-100785040D01*
X209020901Y-100785038D01*
X208880744Y-100757159D01*
X208880742Y-100757159D01*
X208737832Y-100757159D01*
X208737829Y-100757159D01*
X208684006Y-100767865D01*
X208614415Y-100761638D01*
X208559237Y-100718775D01*
X208535993Y-100652885D01*
X208541883Y-100607934D01*
X208600553Y-100427368D01*
X208617385Y-100321097D01*
X208637500Y-100194097D01*
X208637500Y-99957902D01*
X208612826Y-99802120D01*
X208600553Y-99724632D01*
X208600552Y-99724628D01*
X208600552Y-99724627D01*
X208572878Y-99639457D01*
X210729499Y-99639457D01*
X210757379Y-99779614D01*
X210757381Y-99779620D01*
X210812069Y-99911650D01*
X210812074Y-99911659D01*
X210891467Y-100030478D01*
X210891470Y-100030482D01*
X210992517Y-100131529D01*
X210992521Y-100131532D01*
X211111340Y-100210925D01*
X211111346Y-100210928D01*
X211111347Y-100210929D01*
X211243380Y-100265619D01*
X211243384Y-100265619D01*
X211243385Y-100265620D01*
X211383542Y-100293500D01*
X211383545Y-100293500D01*
X211526457Y-100293500D01*
X211620751Y-100274742D01*
X211666620Y-100265619D01*
X211798653Y-100210929D01*
X211917479Y-100131532D01*
X212018532Y-100030479D01*
X212097929Y-99911653D01*
X212152619Y-99779620D01*
X212164961Y-99717574D01*
X212180500Y-99639457D01*
X212180500Y-99496542D01*
X212152620Y-99356385D01*
X212152619Y-99356384D01*
X212152619Y-99356380D01*
X212103061Y-99236736D01*
X212097930Y-99224349D01*
X212097925Y-99224340D01*
X212018532Y-99105521D01*
X212018529Y-99105517D01*
X211917482Y-99004470D01*
X211917478Y-99004467D01*
X211798659Y-98925074D01*
X211798650Y-98925069D01*
X211666620Y-98870381D01*
X211666614Y-98870379D01*
X211526457Y-98842500D01*
X211526455Y-98842500D01*
X211383545Y-98842500D01*
X211383543Y-98842500D01*
X211243385Y-98870379D01*
X211243379Y-98870381D01*
X211111349Y-98925069D01*
X211111340Y-98925074D01*
X210992521Y-99004467D01*
X210992517Y-99004470D01*
X210891470Y-99105517D01*
X210891467Y-99105521D01*
X210812074Y-99224340D01*
X210812069Y-99224349D01*
X210757381Y-99356379D01*
X210757379Y-99356385D01*
X210729500Y-99496542D01*
X210729500Y-99496545D01*
X210729500Y-99639455D01*
X210729500Y-99639457D01*
X210729499Y-99639457D01*
X208572878Y-99639457D01*
X208536914Y-99528771D01*
X208536913Y-99528769D01*
X208527568Y-99500007D01*
X208461747Y-99370827D01*
X208420343Y-99289567D01*
X208281517Y-99098490D01*
X208281508Y-99098481D01*
X208278353Y-99094786D01*
X208280022Y-99093360D01*
X208250910Y-99040045D01*
X208255894Y-98970353D01*
X208297766Y-98914420D01*
X208306980Y-98908148D01*
X208355343Y-98878317D01*
X208479315Y-98754345D01*
X208485286Y-98744664D01*
X213656292Y-98744664D01*
X213684172Y-98884821D01*
X213684174Y-98884827D01*
X213738862Y-99016857D01*
X213738867Y-99016866D01*
X213818260Y-99135685D01*
X213818263Y-99135689D01*
X213919310Y-99236736D01*
X213919314Y-99236739D01*
X214038133Y-99316132D01*
X214038139Y-99316135D01*
X214038140Y-99316136D01*
X214170173Y-99370826D01*
X214170177Y-99370826D01*
X214170178Y-99370827D01*
X214310335Y-99398707D01*
X214310338Y-99398707D01*
X214453250Y-99398707D01*
X214555442Y-99378379D01*
X214593413Y-99370826D01*
X214725446Y-99316136D01*
X214844272Y-99236739D01*
X214945325Y-99135686D01*
X215024722Y-99016860D01*
X215026170Y-99013362D01*
X215027419Y-99011812D01*
X215027592Y-99011490D01*
X215027653Y-99011522D01*
X215070004Y-98958959D01*
X215136296Y-98936887D01*
X215188184Y-98946246D01*
X215307380Y-98995619D01*
X215307384Y-98995619D01*
X215307385Y-98995620D01*
X215447542Y-99023500D01*
X215447545Y-99023500D01*
X215450500Y-99023500D01*
X215451992Y-99023938D01*
X215453605Y-99024097D01*
X215453574Y-99024402D01*
X215517539Y-99043185D01*
X215563294Y-99095989D01*
X215574500Y-99147500D01*
X215574500Y-99175955D01*
X215574500Y-99175957D01*
X215574499Y-99175957D01*
X215602379Y-99316114D01*
X215602381Y-99316120D01*
X215657069Y-99448150D01*
X215657074Y-99448159D01*
X215736467Y-99566978D01*
X215736470Y-99566982D01*
X215837517Y-99668029D01*
X215837521Y-99668032D01*
X215956340Y-99747425D01*
X215956346Y-99747428D01*
X215956347Y-99747429D01*
X216088380Y-99802119D01*
X216088384Y-99802119D01*
X216088385Y-99802120D01*
X216228542Y-99830000D01*
X216228545Y-99830000D01*
X216371457Y-99830000D01*
X216465751Y-99811242D01*
X216511620Y-99802119D01*
X216643653Y-99747429D01*
X216643652Y-99747429D01*
X216649281Y-99745098D01*
X216649985Y-99746799D01*
X216709941Y-99734312D01*
X216750280Y-99746156D01*
X216750719Y-99745098D01*
X216756347Y-99747429D01*
X216888380Y-99802119D01*
X216888384Y-99802119D01*
X216888385Y-99802120D01*
X217028542Y-99830000D01*
X217028545Y-99830000D01*
X217171457Y-99830000D01*
X217265751Y-99811242D01*
X217311620Y-99802119D01*
X217443653Y-99747429D01*
X217562479Y-99668032D01*
X217663532Y-99566979D01*
X217742929Y-99448153D01*
X217797619Y-99316120D01*
X217815647Y-99225488D01*
X217825500Y-99175957D01*
X217825500Y-99146106D01*
X219671257Y-99146106D01*
X219699137Y-99286263D01*
X219699139Y-99286269D01*
X219753827Y-99418299D01*
X219753832Y-99418308D01*
X219833225Y-99537127D01*
X219833228Y-99537131D01*
X219934275Y-99638178D01*
X219934279Y-99638181D01*
X220053098Y-99717574D01*
X220053104Y-99717577D01*
X220053105Y-99717578D01*
X220185138Y-99772268D01*
X220185142Y-99772268D01*
X220185143Y-99772269D01*
X220325300Y-99800149D01*
X220325303Y-99800149D01*
X220468215Y-99800149D01*
X220562509Y-99781391D01*
X220608378Y-99772268D01*
X220740411Y-99717578D01*
X220859237Y-99638181D01*
X220960290Y-99537128D01*
X221039687Y-99418302D01*
X221094377Y-99286269D01*
X221106467Y-99225488D01*
X221122258Y-99146106D01*
X221122258Y-99003191D01*
X221094378Y-98863034D01*
X221094377Y-98863033D01*
X221094377Y-98863029D01*
X221052049Y-98760840D01*
X221039688Y-98730998D01*
X221039683Y-98730989D01*
X220960290Y-98612170D01*
X220960287Y-98612166D01*
X220859240Y-98511119D01*
X220859236Y-98511116D01*
X220740417Y-98431723D01*
X220740408Y-98431718D01*
X220608378Y-98377030D01*
X220608372Y-98377028D01*
X220468215Y-98349149D01*
X220468213Y-98349149D01*
X220325303Y-98349149D01*
X220325301Y-98349149D01*
X220185143Y-98377028D01*
X220185137Y-98377030D01*
X220053107Y-98431718D01*
X220053098Y-98431723D01*
X219934279Y-98511116D01*
X219934275Y-98511119D01*
X219833228Y-98612166D01*
X219833225Y-98612170D01*
X219753832Y-98730989D01*
X219753827Y-98730998D01*
X219699139Y-98863028D01*
X219699137Y-98863034D01*
X219671258Y-99003191D01*
X219671258Y-99003194D01*
X219671258Y-99146104D01*
X219671258Y-99146106D01*
X219671257Y-99146106D01*
X217825500Y-99146106D01*
X217825500Y-99033042D01*
X217823163Y-99021294D01*
X217797620Y-98892885D01*
X217797619Y-98892884D01*
X217797619Y-98892880D01*
X217742929Y-98760847D01*
X217742928Y-98760846D01*
X217742925Y-98760840D01*
X217663532Y-98642021D01*
X217663529Y-98642017D01*
X217562482Y-98540970D01*
X217562478Y-98540967D01*
X217443659Y-98461574D01*
X217443649Y-98461569D01*
X217350548Y-98423005D01*
X217336520Y-98411700D01*
X217319899Y-98404756D01*
X217309882Y-98390234D01*
X217296145Y-98379164D01*
X217290456Y-98362071D01*
X217280227Y-98347242D01*
X217279651Y-98329608D01*
X217274080Y-98312869D01*
X217278534Y-98295414D01*
X217277947Y-98277409D01*
X217286996Y-98262263D01*
X217291359Y-98245170D01*
X217304543Y-98232894D01*
X217313784Y-98217430D01*
X217337402Y-98202303D01*
X217342497Y-98197560D01*
X217342837Y-98197390D01*
X217346615Y-98195513D01*
X217386653Y-98178929D01*
X217405922Y-98166053D01*
X217413036Y-98162520D01*
X217439923Y-98157754D01*
X217465981Y-98149594D01*
X217473824Y-98151745D01*
X217481833Y-98150326D01*
X217507028Y-98160852D01*
X217533362Y-98168076D01*
X217543484Y-98176084D01*
X217546302Y-98177262D01*
X217547899Y-98179578D01*
X217555881Y-98185893D01*
X217596517Y-98226529D01*
X217596521Y-98226532D01*
X217715340Y-98305925D01*
X217715349Y-98305930D01*
X217735836Y-98314416D01*
X217847380Y-98360619D01*
X217847384Y-98360619D01*
X217847385Y-98360620D01*
X217987542Y-98388500D01*
X217987545Y-98388500D01*
X218130457Y-98388500D01*
X218263320Y-98362071D01*
X218270620Y-98360619D01*
X218402653Y-98305929D01*
X218521479Y-98226532D01*
X218622532Y-98125479D01*
X218701929Y-98006653D01*
X218756619Y-97874620D01*
X218774498Y-97784739D01*
X218784500Y-97734457D01*
X218784500Y-97591542D01*
X218756620Y-97451385D01*
X218756619Y-97451384D01*
X218756619Y-97451380D01*
X218701929Y-97319347D01*
X218701928Y-97319346D01*
X218701925Y-97319340D01*
X218622532Y-97200521D01*
X218622529Y-97200517D01*
X218521482Y-97099470D01*
X218521478Y-97099467D01*
X218402659Y-97020074D01*
X218402650Y-97020069D01*
X218270620Y-96965381D01*
X218270614Y-96965379D01*
X218130457Y-96937500D01*
X218130455Y-96937500D01*
X217987545Y-96937500D01*
X217987543Y-96937500D01*
X217847385Y-96965379D01*
X217847379Y-96965381D01*
X217715345Y-97020071D01*
X217702685Y-97028530D01*
X217636007Y-97049405D01*
X217568627Y-97030918D01*
X217546118Y-97013106D01*
X217505482Y-96972470D01*
X217505478Y-96972467D01*
X217386659Y-96893074D01*
X217386650Y-96893069D01*
X217254620Y-96838381D01*
X217254614Y-96838379D01*
X217114457Y-96810500D01*
X217114455Y-96810500D01*
X216971545Y-96810500D01*
X216971543Y-96810500D01*
X216831385Y-96838379D01*
X216831379Y-96838381D01*
X216699349Y-96893069D01*
X216699340Y-96893074D01*
X216580521Y-96972467D01*
X216580517Y-96972470D01*
X216479470Y-97073517D01*
X216479467Y-97073521D01*
X216400074Y-97192340D01*
X216400069Y-97192349D01*
X216345381Y-97324379D01*
X216345379Y-97324385D01*
X216317500Y-97464542D01*
X216317500Y-97464545D01*
X216317500Y-97607455D01*
X216317500Y-97607457D01*
X216317499Y-97607457D01*
X216345379Y-97747614D01*
X216345381Y-97747620D01*
X216400069Y-97879650D01*
X216400074Y-97879659D01*
X216479467Y-97998478D01*
X216479470Y-97998482D01*
X216580517Y-98099529D01*
X216580521Y-98099532D01*
X216699340Y-98178925D01*
X216699349Y-98178930D01*
X216792451Y-98217494D01*
X216809345Y-98231108D01*
X216828818Y-98240676D01*
X216836011Y-98252597D01*
X216846854Y-98261335D01*
X216853706Y-98281923D01*
X216864915Y-98300499D01*
X216864521Y-98314416D01*
X216868919Y-98327629D01*
X216863553Y-98348651D01*
X216862940Y-98370340D01*
X216855083Y-98381836D01*
X216851640Y-98395328D01*
X216835759Y-98410113D01*
X216823518Y-98428027D01*
X216803932Y-98439746D01*
X216800503Y-98442939D01*
X216793299Y-98446261D01*
X216792846Y-98446452D01*
X216756347Y-98461571D01*
X216755049Y-98462437D01*
X216748301Y-98465292D01*
X216718947Y-98468668D01*
X216690029Y-98474684D01*
X216683447Y-98472751D01*
X216678889Y-98473276D01*
X216669466Y-98468646D01*
X216649717Y-98462847D01*
X216649281Y-98463902D01*
X216511620Y-98406881D01*
X216511614Y-98406879D01*
X216371457Y-98379000D01*
X216371455Y-98379000D01*
X216368500Y-98379000D01*
X216367007Y-98378561D01*
X216365395Y-98378403D01*
X216365425Y-98378097D01*
X216301461Y-98359315D01*
X216255706Y-98306511D01*
X216244500Y-98255000D01*
X216244500Y-98226542D01*
X216216620Y-98086385D01*
X216216619Y-98086384D01*
X216216619Y-98086380D01*
X216161929Y-97954347D01*
X216161928Y-97954346D01*
X216161925Y-97954340D01*
X216082532Y-97835521D01*
X216082529Y-97835517D01*
X215981482Y-97734470D01*
X215981478Y-97734467D01*
X215862659Y-97655074D01*
X215862650Y-97655069D01*
X215730620Y-97600381D01*
X215730614Y-97600379D01*
X215590457Y-97572500D01*
X215590455Y-97572500D01*
X215447545Y-97572500D01*
X215447543Y-97572500D01*
X215307385Y-97600379D01*
X215307379Y-97600381D01*
X215175349Y-97655069D01*
X215175340Y-97655074D01*
X215056521Y-97734467D01*
X215056517Y-97734470D01*
X214955470Y-97835517D01*
X214955467Y-97835521D01*
X214876074Y-97954340D01*
X214876066Y-97954354D01*
X214874617Y-97957855D01*
X214873367Y-97959405D01*
X214873201Y-97959717D01*
X214873141Y-97959685D01*
X214830774Y-98012257D01*
X214764479Y-98034319D01*
X214712605Y-98024959D01*
X214593413Y-97975588D01*
X214593407Y-97975586D01*
X214453250Y-97947707D01*
X214453248Y-97947707D01*
X214310338Y-97947707D01*
X214310336Y-97947707D01*
X214170178Y-97975586D01*
X214170172Y-97975588D01*
X214038142Y-98030276D01*
X214038133Y-98030281D01*
X213919314Y-98109674D01*
X213919310Y-98109677D01*
X213818263Y-98210724D01*
X213818260Y-98210728D01*
X213738867Y-98329547D01*
X213738862Y-98329556D01*
X213684174Y-98461586D01*
X213684172Y-98461592D01*
X213656293Y-98601749D01*
X213656293Y-98601752D01*
X213656293Y-98744662D01*
X213656293Y-98744664D01*
X213656292Y-98744664D01*
X208485286Y-98744664D01*
X208571356Y-98605124D01*
X208571357Y-98605121D01*
X208587418Y-98556655D01*
X208587418Y-98556654D01*
X208626505Y-98438697D01*
X208626506Y-98438690D01*
X208636999Y-98335986D01*
X208637000Y-98335973D01*
X208637000Y-97786000D01*
X207685482Y-97786000D01*
X207696111Y-97767591D01*
X207737000Y-97614991D01*
X207737000Y-97457009D01*
X207696111Y-97304409D01*
X207689330Y-97292664D01*
X212643673Y-97292664D01*
X212671553Y-97432821D01*
X212671555Y-97432827D01*
X212726243Y-97564857D01*
X212726248Y-97564866D01*
X212805641Y-97683685D01*
X212805644Y-97683689D01*
X212906691Y-97784736D01*
X212906695Y-97784739D01*
X213025514Y-97864132D01*
X213025523Y-97864137D01*
X213055432Y-97876525D01*
X213157554Y-97918826D01*
X213157558Y-97918826D01*
X213157559Y-97918827D01*
X213297716Y-97946707D01*
X213297719Y-97946707D01*
X213440631Y-97946707D01*
X213534925Y-97927949D01*
X213580794Y-97918826D01*
X213712827Y-97864136D01*
X213831653Y-97784739D01*
X213932706Y-97683686D01*
X214012103Y-97564860D01*
X214066793Y-97432827D01*
X214089366Y-97319347D01*
X214094674Y-97292664D01*
X214094674Y-97149749D01*
X214066794Y-97009592D01*
X214066793Y-97009591D01*
X214066793Y-97009587D01*
X214012103Y-96877554D01*
X214012102Y-96877553D01*
X214012099Y-96877547D01*
X213932706Y-96758728D01*
X213932703Y-96758724D01*
X213831656Y-96657677D01*
X213831652Y-96657674D01*
X213712833Y-96578281D01*
X213712824Y-96578276D01*
X213580794Y-96523588D01*
X213580788Y-96523586D01*
X213440631Y-96495707D01*
X213440629Y-96495707D01*
X213297719Y-96495707D01*
X213297717Y-96495707D01*
X213157559Y-96523586D01*
X213157553Y-96523588D01*
X213025523Y-96578276D01*
X213025514Y-96578281D01*
X212906695Y-96657674D01*
X212906691Y-96657677D01*
X212805644Y-96758724D01*
X212805641Y-96758728D01*
X212726248Y-96877547D01*
X212726243Y-96877556D01*
X212671555Y-97009586D01*
X212671553Y-97009592D01*
X212643674Y-97149749D01*
X212643674Y-97149752D01*
X212643674Y-97292662D01*
X212643674Y-97292664D01*
X212643673Y-97292664D01*
X207689330Y-97292664D01*
X207685482Y-97286000D01*
X208636999Y-97286000D01*
X208636999Y-96736028D01*
X208636998Y-96736013D01*
X208626505Y-96633302D01*
X208571358Y-96466880D01*
X208571356Y-96466875D01*
X208479315Y-96317654D01*
X208355345Y-96193684D01*
X208206124Y-96101643D01*
X208206119Y-96101641D01*
X208151243Y-96083457D01*
X220000499Y-96083457D01*
X220028379Y-96223614D01*
X220028381Y-96223620D01*
X220083069Y-96355650D01*
X220083074Y-96355659D01*
X220162467Y-96474478D01*
X220162470Y-96474482D01*
X220263517Y-96575529D01*
X220263521Y-96575532D01*
X220382340Y-96654925D01*
X220382346Y-96654928D01*
X220382347Y-96654929D01*
X220514380Y-96709619D01*
X220514384Y-96709619D01*
X220514385Y-96709620D01*
X220654542Y-96737500D01*
X220654545Y-96737500D01*
X220797457Y-96737500D01*
X220891751Y-96718742D01*
X220937620Y-96709619D01*
X221069653Y-96654929D01*
X221188479Y-96575532D01*
X221289532Y-96474479D01*
X221368929Y-96355653D01*
X221423619Y-96223620D01*
X221438064Y-96151000D01*
X221451500Y-96083457D01*
X221451500Y-95940542D01*
X221423620Y-95800385D01*
X221423619Y-95800384D01*
X221423619Y-95800380D01*
X221368929Y-95668347D01*
X221368928Y-95668346D01*
X221368925Y-95668340D01*
X221289532Y-95549521D01*
X221289529Y-95549517D01*
X221188482Y-95448470D01*
X221188478Y-95448467D01*
X221069659Y-95369074D01*
X221069650Y-95369069D01*
X220937620Y-95314381D01*
X220937614Y-95314379D01*
X220797457Y-95286500D01*
X220797455Y-95286500D01*
X220654545Y-95286500D01*
X220654543Y-95286500D01*
X220514385Y-95314379D01*
X220514379Y-95314381D01*
X220382349Y-95369069D01*
X220382340Y-95369074D01*
X220263521Y-95448467D01*
X220263517Y-95448470D01*
X220162470Y-95549517D01*
X220162467Y-95549521D01*
X220083074Y-95668340D01*
X220083069Y-95668349D01*
X220028381Y-95800379D01*
X220028379Y-95800385D01*
X220000500Y-95940542D01*
X220000500Y-95940545D01*
X220000500Y-96083455D01*
X220000500Y-96083457D01*
X220000499Y-96083457D01*
X208151243Y-96083457D01*
X208056791Y-96052159D01*
X208039697Y-96046494D01*
X208039690Y-96046493D01*
X207936986Y-96036000D01*
X207387000Y-96036000D01*
X207387000Y-96987517D01*
X207368591Y-96976889D01*
X207215991Y-96936000D01*
X207058009Y-96936000D01*
X206905409Y-96976889D01*
X206887000Y-96987517D01*
X206887000Y-96036000D01*
X206337028Y-96036000D01*
X206337012Y-96036001D01*
X206234302Y-96046494D01*
X206067880Y-96101641D01*
X206067875Y-96101643D01*
X205918654Y-96193684D01*
X205794684Y-96317654D01*
X205702643Y-96466875D01*
X205702641Y-96466880D01*
X205647494Y-96633302D01*
X205647493Y-96633309D01*
X205637000Y-96736013D01*
X205637000Y-97286000D01*
X206588518Y-97286000D01*
X206577889Y-97304409D01*
X206537000Y-97457009D01*
X206537000Y-97614991D01*
X206577889Y-97767591D01*
X206588518Y-97786000D01*
X205637001Y-97786000D01*
X205637001Y-98335986D01*
X205647494Y-98438697D01*
X205702641Y-98605119D01*
X205702643Y-98605124D01*
X205794684Y-98754345D01*
X205918655Y-98878316D01*
X205918659Y-98878319D01*
X205967020Y-98908149D01*
X206013745Y-98960097D01*
X206024966Y-99029059D01*
X205997123Y-99093141D01*
X205995632Y-99094773D01*
X205995647Y-99094786D01*
X205992485Y-99098488D01*
X205992483Y-99098490D01*
X205957888Y-99146106D01*
X205853657Y-99289566D01*
X205746433Y-99500003D01*
X205673446Y-99724631D01*
X205636500Y-99957902D01*
X205636500Y-100194097D01*
X205673446Y-100427368D01*
X205746433Y-100651996D01*
X205842088Y-100839728D01*
X205853657Y-100862433D01*
X205992483Y-101053510D01*
X206159490Y-101220517D01*
X206275153Y-101304551D01*
X206340650Y-101352138D01*
X206383315Y-101407468D01*
X206389294Y-101477082D01*
X206356688Y-101538877D01*
X206295849Y-101573234D01*
X206274394Y-101575695D01*
X206274411Y-101575859D01*
X206268348Y-101576455D01*
X206128191Y-101604335D01*
X206128185Y-101604337D01*
X205996155Y-101659025D01*
X205996146Y-101659030D01*
X205877327Y-101738423D01*
X205877323Y-101738426D01*
X205776276Y-101839473D01*
X205776273Y-101839477D01*
X205696880Y-101958296D01*
X205696875Y-101958305D01*
X205642187Y-102090335D01*
X205642185Y-102090341D01*
X205614306Y-102230498D01*
X205614306Y-102230501D01*
X205614306Y-102373411D01*
X205614306Y-102373413D01*
X205614305Y-102373413D01*
X203962000Y-102373413D01*
X203962000Y-92205457D01*
X204258499Y-92205457D01*
X204286379Y-92345614D01*
X204286381Y-92345620D01*
X204341069Y-92477650D01*
X204341074Y-92477659D01*
X204420467Y-92596478D01*
X204420470Y-92596482D01*
X204505307Y-92681319D01*
X204538792Y-92742642D01*
X204533808Y-92812334D01*
X204505307Y-92856681D01*
X204420470Y-92941517D01*
X204420467Y-92941521D01*
X204341074Y-93060340D01*
X204341069Y-93060349D01*
X204286381Y-93192379D01*
X204286379Y-93192385D01*
X204258500Y-93332542D01*
X204258500Y-93332545D01*
X204258500Y-93475455D01*
X204258500Y-93475457D01*
X204258499Y-93475457D01*
X204286379Y-93615614D01*
X204286381Y-93615620D01*
X204341069Y-93747650D01*
X204341074Y-93747659D01*
X204420467Y-93866478D01*
X204420470Y-93866482D01*
X204505307Y-93951319D01*
X204538792Y-94012642D01*
X204533808Y-94082334D01*
X204505307Y-94126681D01*
X204420470Y-94211517D01*
X204420467Y-94211521D01*
X204341074Y-94330340D01*
X204341069Y-94330349D01*
X204286381Y-94462379D01*
X204286379Y-94462385D01*
X204258500Y-94602542D01*
X204258500Y-94602545D01*
X204258500Y-94745455D01*
X204258500Y-94745457D01*
X204258499Y-94745457D01*
X204286379Y-94885614D01*
X204286381Y-94885620D01*
X204341069Y-95017650D01*
X204341074Y-95017659D01*
X204420467Y-95136478D01*
X204420470Y-95136482D01*
X204521517Y-95237529D01*
X204521521Y-95237532D01*
X204640340Y-95316925D01*
X204640346Y-95316928D01*
X204640347Y-95316929D01*
X204772380Y-95371619D01*
X204772384Y-95371619D01*
X204772385Y-95371620D01*
X204912542Y-95399500D01*
X204912545Y-95399500D01*
X205055457Y-95399500D01*
X205149751Y-95380742D01*
X205195620Y-95371619D01*
X205327653Y-95316929D01*
X205446479Y-95237532D01*
X205547532Y-95136479D01*
X205626929Y-95017653D01*
X205681619Y-94885620D01*
X205699142Y-94797529D01*
X205709500Y-94745457D01*
X205709500Y-94602542D01*
X205681620Y-94462385D01*
X205681619Y-94462384D01*
X205681619Y-94462380D01*
X205626929Y-94330347D01*
X205626928Y-94330346D01*
X205626925Y-94330340D01*
X205547532Y-94211521D01*
X205547529Y-94211517D01*
X205462693Y-94126681D01*
X205429208Y-94065358D01*
X205434192Y-93995666D01*
X205462693Y-93951319D01*
X205547529Y-93866482D01*
X205547532Y-93866479D01*
X205626929Y-93747653D01*
X205681619Y-93615620D01*
X205697381Y-93536379D01*
X205709500Y-93475457D01*
X205709500Y-93332542D01*
X205681620Y-93192385D01*
X205681619Y-93192384D01*
X205681619Y-93192380D01*
X205626929Y-93060347D01*
X205626928Y-93060346D01*
X205626925Y-93060340D01*
X205547532Y-92941521D01*
X205547529Y-92941517D01*
X205462693Y-92856681D01*
X205429208Y-92795358D01*
X205434192Y-92725666D01*
X205462693Y-92681319D01*
X205547529Y-92596482D01*
X205547532Y-92596479D01*
X205626929Y-92477653D01*
X205681619Y-92345620D01*
X205707725Y-92214379D01*
X205709500Y-92205457D01*
X205709500Y-92062542D01*
X205681620Y-91922385D01*
X205681619Y-91922384D01*
X205681619Y-91922380D01*
X205626929Y-91790347D01*
X205626928Y-91790346D01*
X205626925Y-91790340D01*
X205547532Y-91671521D01*
X205547529Y-91671517D01*
X205446482Y-91570470D01*
X205446478Y-91570467D01*
X205327659Y-91491074D01*
X205327650Y-91491069D01*
X205195620Y-91436381D01*
X205195614Y-91436379D01*
X205055457Y-91408500D01*
X205055455Y-91408500D01*
X204912545Y-91408500D01*
X204912543Y-91408500D01*
X204772385Y-91436379D01*
X204772379Y-91436381D01*
X204640349Y-91491069D01*
X204640340Y-91491074D01*
X204521521Y-91570467D01*
X204521517Y-91570470D01*
X204420470Y-91671517D01*
X204420467Y-91671521D01*
X204341074Y-91790340D01*
X204341069Y-91790349D01*
X204286381Y-91922379D01*
X204286379Y-91922385D01*
X204258500Y-92062542D01*
X204258500Y-92062545D01*
X204258500Y-92205455D01*
X204258500Y-92205457D01*
X204258499Y-92205457D01*
X203962000Y-92205457D01*
X203962000Y-90935457D01*
X209658499Y-90935457D01*
X209686379Y-91075614D01*
X209686381Y-91075620D01*
X209741069Y-91207650D01*
X209741074Y-91207659D01*
X209820467Y-91326478D01*
X209820470Y-91326482D01*
X209905307Y-91411319D01*
X209938792Y-91472642D01*
X209933808Y-91542334D01*
X209905307Y-91586681D01*
X209820470Y-91671517D01*
X209820467Y-91671521D01*
X209741074Y-91790340D01*
X209741069Y-91790349D01*
X209686381Y-91922379D01*
X209686379Y-91922385D01*
X209658500Y-92062542D01*
X209658500Y-92062545D01*
X209658500Y-92205455D01*
X209658500Y-92205457D01*
X209658499Y-92205457D01*
X209686379Y-92345614D01*
X209686381Y-92345620D01*
X209741069Y-92477650D01*
X209741074Y-92477659D01*
X209820467Y-92596478D01*
X209820470Y-92596482D01*
X209905307Y-92681319D01*
X209938792Y-92742642D01*
X209933808Y-92812334D01*
X209905307Y-92856681D01*
X209820470Y-92941517D01*
X209820467Y-92941521D01*
X209741074Y-93060340D01*
X209741069Y-93060349D01*
X209686381Y-93192379D01*
X209686379Y-93192385D01*
X209658500Y-93332542D01*
X209658500Y-93332545D01*
X209658500Y-93475455D01*
X209658500Y-93475457D01*
X209658499Y-93475457D01*
X209686379Y-93615614D01*
X209686381Y-93615620D01*
X209741069Y-93747650D01*
X209741074Y-93747659D01*
X209820467Y-93866478D01*
X209820470Y-93866482D01*
X209905307Y-93951319D01*
X209938792Y-94012642D01*
X209933808Y-94082334D01*
X209905307Y-94126681D01*
X209820470Y-94211517D01*
X209820467Y-94211521D01*
X209741074Y-94330340D01*
X209741069Y-94330349D01*
X209686381Y-94462379D01*
X209686379Y-94462385D01*
X209658500Y-94602542D01*
X209658500Y-94602545D01*
X209658500Y-94745455D01*
X209658500Y-94745457D01*
X209658499Y-94745457D01*
X209686379Y-94885614D01*
X209686381Y-94885620D01*
X209741069Y-95017650D01*
X209741074Y-95017659D01*
X209820467Y-95136478D01*
X209820470Y-95136482D01*
X209921517Y-95237529D01*
X209921521Y-95237532D01*
X210040340Y-95316925D01*
X210040346Y-95316928D01*
X210040347Y-95316929D01*
X210172380Y-95371619D01*
X210172384Y-95371619D01*
X210172385Y-95371620D01*
X210312542Y-95399500D01*
X210312545Y-95399500D01*
X210455457Y-95399500D01*
X210549751Y-95380742D01*
X210595620Y-95371619D01*
X210727653Y-95316929D01*
X210846479Y-95237532D01*
X210947532Y-95136479D01*
X211026929Y-95017653D01*
X211081619Y-94885620D01*
X211099142Y-94797529D01*
X211109500Y-94745457D01*
X211109500Y-94602542D01*
X211081620Y-94462385D01*
X211081619Y-94462384D01*
X211081619Y-94462380D01*
X211026929Y-94330347D01*
X211026928Y-94330346D01*
X211026925Y-94330340D01*
X211010299Y-94305457D01*
X217841499Y-94305457D01*
X217869379Y-94445614D01*
X217869381Y-94445620D01*
X217924069Y-94577650D01*
X217924074Y-94577659D01*
X218003467Y-94696478D01*
X218003470Y-94696482D01*
X218104517Y-94797529D01*
X218104521Y-94797532D01*
X218223340Y-94876925D01*
X218223346Y-94876928D01*
X218223347Y-94876929D01*
X218355380Y-94931619D01*
X218355384Y-94931619D01*
X218355385Y-94931620D01*
X218495542Y-94959500D01*
X218495545Y-94959500D01*
X218638457Y-94959500D01*
X218732751Y-94940742D01*
X218778620Y-94931619D01*
X218910653Y-94876929D01*
X219029479Y-94797532D01*
X219130532Y-94696479D01*
X219209929Y-94577653D01*
X219264619Y-94445620D01*
X219292500Y-94305455D01*
X219292500Y-94162545D01*
X219292500Y-94162542D01*
X219264620Y-94022385D01*
X219264619Y-94022384D01*
X219264619Y-94022380D01*
X219209929Y-93890347D01*
X219209928Y-93890346D01*
X219209925Y-93890340D01*
X219130532Y-93771521D01*
X219130529Y-93771517D01*
X219029482Y-93670470D01*
X219029478Y-93670467D01*
X218910659Y-93591074D01*
X218910650Y-93591069D01*
X218778620Y-93536381D01*
X218778614Y-93536379D01*
X218638457Y-93508500D01*
X218638455Y-93508500D01*
X218495545Y-93508500D01*
X218495543Y-93508500D01*
X218355385Y-93536379D01*
X218355379Y-93536381D01*
X218223349Y-93591069D01*
X218223340Y-93591074D01*
X218104521Y-93670467D01*
X218104517Y-93670470D01*
X218003470Y-93771517D01*
X218003467Y-93771521D01*
X217924074Y-93890340D01*
X217924069Y-93890349D01*
X217869381Y-94022379D01*
X217869379Y-94022385D01*
X217841500Y-94162542D01*
X217841500Y-94162545D01*
X217841500Y-94305455D01*
X217841500Y-94305457D01*
X217841499Y-94305457D01*
X211010299Y-94305457D01*
X210947532Y-94211521D01*
X210947529Y-94211517D01*
X210862693Y-94126681D01*
X210829208Y-94065358D01*
X210834192Y-93995666D01*
X210862693Y-93951319D01*
X210947529Y-93866482D01*
X210947532Y-93866479D01*
X211026929Y-93747653D01*
X211081619Y-93615620D01*
X211097381Y-93536379D01*
X211109500Y-93475457D01*
X211109500Y-93446457D01*
X213224499Y-93446457D01*
X213252379Y-93586614D01*
X213252381Y-93586620D01*
X213307069Y-93718650D01*
X213307074Y-93718659D01*
X213386467Y-93837478D01*
X213386470Y-93837482D01*
X213487517Y-93938529D01*
X213487521Y-93938532D01*
X213606340Y-94017925D01*
X213606349Y-94017930D01*
X213636258Y-94030318D01*
X213738380Y-94072619D01*
X213738384Y-94072619D01*
X213738385Y-94072620D01*
X213878542Y-94100500D01*
X213878545Y-94100500D01*
X214021457Y-94100500D01*
X214115751Y-94081742D01*
X214161620Y-94072619D01*
X214293653Y-94017929D01*
X214412479Y-93938532D01*
X214513532Y-93837479D01*
X214592929Y-93718653D01*
X214647619Y-93586620D01*
X214669731Y-93475457D01*
X214675500Y-93446457D01*
X214675500Y-93303542D01*
X214647620Y-93163385D01*
X214647619Y-93163384D01*
X214647619Y-93163380D01*
X214647237Y-93162457D01*
X220000499Y-93162457D01*
X220028379Y-93302614D01*
X220028381Y-93302620D01*
X220083069Y-93434650D01*
X220083074Y-93434659D01*
X220162467Y-93553478D01*
X220162470Y-93553482D01*
X220263517Y-93654529D01*
X220263521Y-93654532D01*
X220382340Y-93733925D01*
X220382346Y-93733928D01*
X220382347Y-93733929D01*
X220514380Y-93788619D01*
X220514384Y-93788619D01*
X220514385Y-93788620D01*
X220654542Y-93816500D01*
X220654545Y-93816500D01*
X220797457Y-93816500D01*
X220891751Y-93797742D01*
X220937620Y-93788619D01*
X221069653Y-93733929D01*
X221164646Y-93670457D01*
X223429499Y-93670457D01*
X223457379Y-93810614D01*
X223457381Y-93810620D01*
X223512069Y-93942650D01*
X223512074Y-93942659D01*
X223591467Y-94061478D01*
X223591470Y-94061482D01*
X223692517Y-94162529D01*
X223692521Y-94162532D01*
X223811340Y-94241925D01*
X223811346Y-94241928D01*
X223811347Y-94241929D01*
X223943380Y-94296619D01*
X223943384Y-94296619D01*
X223943385Y-94296620D01*
X224083542Y-94324500D01*
X224083545Y-94324500D01*
X224226457Y-94324500D01*
X224322199Y-94305455D01*
X224366620Y-94296619D01*
X224498653Y-94241929D01*
X224617479Y-94162532D01*
X224718532Y-94061479D01*
X224797929Y-93942653D01*
X224852619Y-93810620D01*
X224867875Y-93733925D01*
X224880500Y-93670457D01*
X224880500Y-93527542D01*
X224852620Y-93387385D01*
X224852619Y-93387384D01*
X224852619Y-93387380D01*
X224797929Y-93255347D01*
X224797928Y-93255346D01*
X224797925Y-93255340D01*
X224718532Y-93136521D01*
X224718529Y-93136517D01*
X224617482Y-93035470D01*
X224617478Y-93035467D01*
X224498659Y-92956074D01*
X224498650Y-92956069D01*
X224366620Y-92901381D01*
X224366614Y-92901379D01*
X224226457Y-92873500D01*
X224226455Y-92873500D01*
X224083545Y-92873500D01*
X224083543Y-92873500D01*
X223943385Y-92901379D01*
X223943379Y-92901381D01*
X223811349Y-92956069D01*
X223811340Y-92956074D01*
X223692521Y-93035467D01*
X223692517Y-93035470D01*
X223591470Y-93136517D01*
X223591467Y-93136521D01*
X223512074Y-93255340D01*
X223512069Y-93255349D01*
X223457381Y-93387379D01*
X223457379Y-93387385D01*
X223429500Y-93527542D01*
X223429500Y-93527545D01*
X223429500Y-93670455D01*
X223429500Y-93670457D01*
X223429499Y-93670457D01*
X221164646Y-93670457D01*
X221188479Y-93654532D01*
X221289532Y-93553479D01*
X221368929Y-93434653D01*
X221423619Y-93302620D01*
X221435420Y-93243294D01*
X221467804Y-93181383D01*
X221528520Y-93146809D01*
X221581229Y-93145868D01*
X221609542Y-93151500D01*
X221609545Y-93151500D01*
X221752457Y-93151500D01*
X221846751Y-93132742D01*
X221892620Y-93123619D01*
X222024653Y-93068929D01*
X222143479Y-92989532D01*
X222244532Y-92888479D01*
X222323929Y-92769653D01*
X222378619Y-92637620D01*
X222406500Y-92497455D01*
X222406500Y-92354545D01*
X222406500Y-92354542D01*
X222378620Y-92214385D01*
X222378619Y-92214384D01*
X222378619Y-92214380D01*
X222334546Y-92107978D01*
X222323930Y-92082349D01*
X222323925Y-92082340D01*
X222244532Y-91963521D01*
X222244529Y-91963517D01*
X222143482Y-91862470D01*
X222143478Y-91862467D01*
X222024659Y-91783074D01*
X222024650Y-91783069D01*
X221892620Y-91728381D01*
X221892614Y-91728379D01*
X221835192Y-91716957D01*
X223622499Y-91716957D01*
X223650379Y-91857114D01*
X223650381Y-91857120D01*
X223705069Y-91989150D01*
X223705074Y-91989159D01*
X223784467Y-92107978D01*
X223784470Y-92107982D01*
X223885517Y-92209029D01*
X223885521Y-92209032D01*
X224004340Y-92288425D01*
X224004346Y-92288428D01*
X224004347Y-92288429D01*
X224136380Y-92343119D01*
X224136384Y-92343119D01*
X224136385Y-92343120D01*
X224276542Y-92371000D01*
X224276545Y-92371000D01*
X224419457Y-92371000D01*
X224513751Y-92352242D01*
X224559620Y-92343119D01*
X224691653Y-92288429D01*
X224810479Y-92209032D01*
X224911532Y-92107979D01*
X224990929Y-91989153D01*
X225045619Y-91857120D01*
X225060348Y-91783074D01*
X225073500Y-91716957D01*
X225073500Y-91574042D01*
X225045620Y-91433885D01*
X225045619Y-91433884D01*
X225045619Y-91433880D01*
X224990929Y-91301847D01*
X224990928Y-91301846D01*
X224990925Y-91301840D01*
X224911532Y-91183021D01*
X224911529Y-91183017D01*
X224810482Y-91081970D01*
X224810478Y-91081967D01*
X224691659Y-91002574D01*
X224691650Y-91002569D01*
X224559620Y-90947881D01*
X224559614Y-90947879D01*
X224419457Y-90920000D01*
X224419455Y-90920000D01*
X224276545Y-90920000D01*
X224276543Y-90920000D01*
X224136385Y-90947879D01*
X224136379Y-90947881D01*
X224004349Y-91002569D01*
X224004340Y-91002574D01*
X223885521Y-91081967D01*
X223885517Y-91081970D01*
X223784470Y-91183017D01*
X223784467Y-91183021D01*
X223705074Y-91301840D01*
X223705069Y-91301849D01*
X223650381Y-91433879D01*
X223650379Y-91433885D01*
X223622500Y-91574042D01*
X223622500Y-91574045D01*
X223622500Y-91716955D01*
X223622500Y-91716957D01*
X223622499Y-91716957D01*
X221835192Y-91716957D01*
X221752457Y-91700500D01*
X221752455Y-91700500D01*
X221609545Y-91700500D01*
X221609543Y-91700500D01*
X221469385Y-91728379D01*
X221469379Y-91728381D01*
X221337349Y-91783069D01*
X221337340Y-91783074D01*
X221218521Y-91862467D01*
X221218517Y-91862470D01*
X221117470Y-91963517D01*
X221117467Y-91963521D01*
X221038074Y-92082340D01*
X221038069Y-92082349D01*
X220983381Y-92214379D01*
X220983379Y-92214384D01*
X220971579Y-92273707D01*
X220939193Y-92335618D01*
X220878477Y-92370191D01*
X220825773Y-92371132D01*
X220797456Y-92365500D01*
X220797455Y-92365500D01*
X220654545Y-92365500D01*
X220654543Y-92365500D01*
X220514385Y-92393379D01*
X220514379Y-92393381D01*
X220382349Y-92448069D01*
X220382340Y-92448074D01*
X220263521Y-92527467D01*
X220263517Y-92527470D01*
X220162470Y-92628517D01*
X220162467Y-92628521D01*
X220083074Y-92747340D01*
X220083069Y-92747349D01*
X220028381Y-92879379D01*
X220028379Y-92879385D01*
X220000500Y-93019542D01*
X220000500Y-93019545D01*
X220000500Y-93162455D01*
X220000500Y-93162457D01*
X220000499Y-93162457D01*
X214647237Y-93162457D01*
X214631150Y-93123620D01*
X214605173Y-93060905D01*
X214594636Y-93035468D01*
X214592929Y-93031347D01*
X214592927Y-93031344D01*
X214592925Y-93031340D01*
X214513532Y-92912521D01*
X214513529Y-92912517D01*
X214412482Y-92811470D01*
X214412478Y-92811467D01*
X214293659Y-92732074D01*
X214293650Y-92732069D01*
X214161620Y-92677381D01*
X214161614Y-92677379D01*
X214021457Y-92649500D01*
X214021455Y-92649500D01*
X213878545Y-92649500D01*
X213878543Y-92649500D01*
X213738385Y-92677379D01*
X213738379Y-92677381D01*
X213606349Y-92732069D01*
X213606340Y-92732074D01*
X213487521Y-92811467D01*
X213487517Y-92811470D01*
X213386470Y-92912517D01*
X213386467Y-92912521D01*
X213307074Y-93031340D01*
X213307069Y-93031349D01*
X213252381Y-93163379D01*
X213252379Y-93163385D01*
X213224500Y-93303542D01*
X213224500Y-93303545D01*
X213224500Y-93446455D01*
X213224500Y-93446457D01*
X213224499Y-93446457D01*
X211109500Y-93446457D01*
X211109500Y-93332545D01*
X211107332Y-93321647D01*
X211107332Y-93321644D01*
X211094706Y-93258176D01*
X211081619Y-93192380D01*
X211026929Y-93060347D01*
X211026928Y-93060346D01*
X211026925Y-93060340D01*
X210947532Y-92941521D01*
X210947529Y-92941517D01*
X210862693Y-92856681D01*
X210829208Y-92795358D01*
X210834192Y-92725666D01*
X210862693Y-92681319D01*
X210947529Y-92596482D01*
X210947532Y-92596479D01*
X211026929Y-92477653D01*
X211081619Y-92345620D01*
X211107725Y-92214379D01*
X211109500Y-92205457D01*
X211109500Y-92062542D01*
X211081620Y-91922385D01*
X211081619Y-91922384D01*
X211081619Y-91922380D01*
X211026929Y-91790347D01*
X211026928Y-91790346D01*
X211026925Y-91790340D01*
X210947532Y-91671521D01*
X210947529Y-91671517D01*
X210862693Y-91586681D01*
X210829208Y-91525358D01*
X210834192Y-91455666D01*
X210862693Y-91411319D01*
X210947529Y-91326482D01*
X210947532Y-91326479D01*
X211026929Y-91207653D01*
X211081619Y-91075620D01*
X211096150Y-91002569D01*
X211109500Y-90935457D01*
X211109500Y-90891457D01*
X211969499Y-90891457D01*
X211997379Y-91031613D01*
X211997380Y-91031616D01*
X211997381Y-91031620D01*
X212024191Y-91096347D01*
X212024689Y-91097548D01*
X212032158Y-91167017D01*
X212024689Y-91192452D01*
X211997381Y-91258378D01*
X211997379Y-91258386D01*
X211969500Y-91398542D01*
X211969500Y-91398545D01*
X211969500Y-91541455D01*
X211969500Y-91541457D01*
X211969499Y-91541457D01*
X211997379Y-91681614D01*
X211997381Y-91681620D01*
X212052069Y-91813650D01*
X212052074Y-91813659D01*
X212131467Y-91932478D01*
X212131470Y-91932482D01*
X212232517Y-92033529D01*
X212232521Y-92033532D01*
X212351340Y-92112925D01*
X212351346Y-92112928D01*
X212351347Y-92112929D01*
X212483380Y-92167619D01*
X212483384Y-92167619D01*
X212483385Y-92167620D01*
X212623542Y-92195500D01*
X212623545Y-92195500D01*
X212766457Y-92195500D01*
X212860751Y-92176742D01*
X212906620Y-92167619D01*
X213038653Y-92112929D01*
X213157479Y-92033532D01*
X213258532Y-91932479D01*
X213337929Y-91813653D01*
X213392619Y-91681620D01*
X213411504Y-91586681D01*
X213420500Y-91541457D01*
X213420500Y-91511457D01*
X216444499Y-91511457D01*
X216472379Y-91651614D01*
X216472381Y-91651620D01*
X216527069Y-91783650D01*
X216527074Y-91783659D01*
X216606467Y-91902478D01*
X216606470Y-91902482D01*
X216707517Y-92003529D01*
X216707521Y-92003532D01*
X216826340Y-92082925D01*
X216826346Y-92082928D01*
X216826347Y-92082929D01*
X216958380Y-92137619D01*
X216958384Y-92137619D01*
X216958385Y-92137620D01*
X217098542Y-92165500D01*
X217098545Y-92165500D01*
X217241457Y-92165500D01*
X217335751Y-92146742D01*
X217381620Y-92137619D01*
X217513653Y-92082929D01*
X217632479Y-92003532D01*
X217733532Y-91902479D01*
X217812929Y-91783653D01*
X217867619Y-91651620D01*
X217883050Y-91574045D01*
X217889074Y-91543762D01*
X217889074Y-91543760D01*
X217895500Y-91511456D01*
X217895500Y-91368542D01*
X217867620Y-91228385D01*
X217867619Y-91228384D01*
X217867619Y-91228380D01*
X217823963Y-91122985D01*
X217812930Y-91096349D01*
X217812925Y-91096340D01*
X217733532Y-90977521D01*
X217733529Y-90977517D01*
X217632482Y-90876470D01*
X217632478Y-90876467D01*
X217513659Y-90797074D01*
X217513650Y-90797069D01*
X217381620Y-90742381D01*
X217381614Y-90742379D01*
X217241457Y-90714500D01*
X217241455Y-90714500D01*
X217098545Y-90714500D01*
X217098543Y-90714500D01*
X216958385Y-90742379D01*
X216958379Y-90742381D01*
X216826349Y-90797069D01*
X216826340Y-90797074D01*
X216707521Y-90876467D01*
X216707517Y-90876470D01*
X216606470Y-90977517D01*
X216606467Y-90977521D01*
X216527074Y-91096340D01*
X216527069Y-91096349D01*
X216472381Y-91228379D01*
X216472379Y-91228385D01*
X216444500Y-91368542D01*
X216444500Y-91368545D01*
X216444500Y-91511455D01*
X216444500Y-91511457D01*
X216444499Y-91511457D01*
X213420500Y-91511457D01*
X213420500Y-91398545D01*
X213419007Y-91391041D01*
X213392619Y-91258380D01*
X213362363Y-91185337D01*
X213360321Y-91177920D01*
X213360786Y-91150378D01*
X213357841Y-91122985D01*
X213361456Y-91110669D01*
X213361501Y-91108060D01*
X213362791Y-91106125D01*
X213365306Y-91097556D01*
X213392619Y-91031620D01*
X213409276Y-90947881D01*
X213420500Y-90891457D01*
X213420500Y-90748542D01*
X213395419Y-90622457D01*
X220005499Y-90622457D01*
X220033379Y-90762614D01*
X220033381Y-90762620D01*
X220088069Y-90894650D01*
X220088074Y-90894659D01*
X220167467Y-91013478D01*
X220167470Y-91013482D01*
X220268517Y-91114529D01*
X220268521Y-91114532D01*
X220387340Y-91193925D01*
X220387346Y-91193928D01*
X220387347Y-91193929D01*
X220519380Y-91248619D01*
X220519384Y-91248619D01*
X220519385Y-91248620D01*
X220659542Y-91276500D01*
X220659545Y-91276500D01*
X220802457Y-91276500D01*
X220896751Y-91257742D01*
X220942620Y-91248619D01*
X221074653Y-91193929D01*
X221193479Y-91114532D01*
X221294532Y-91013479D01*
X221373929Y-90894653D01*
X221428619Y-90762620D01*
X221438191Y-90714500D01*
X221456500Y-90622457D01*
X221456500Y-90479542D01*
X221428620Y-90339385D01*
X221428619Y-90339384D01*
X221428619Y-90339380D01*
X221373929Y-90207347D01*
X221373928Y-90207346D01*
X221373925Y-90207340D01*
X221294532Y-90088521D01*
X221294529Y-90088517D01*
X221193482Y-89987470D01*
X221193478Y-89987467D01*
X221074659Y-89908074D01*
X221074650Y-89908069D01*
X220942620Y-89853381D01*
X220942614Y-89853379D01*
X220802457Y-89825500D01*
X220802455Y-89825500D01*
X220659545Y-89825500D01*
X220659543Y-89825500D01*
X220519385Y-89853379D01*
X220519379Y-89853381D01*
X220387349Y-89908069D01*
X220387340Y-89908074D01*
X220268521Y-89987467D01*
X220268517Y-89987470D01*
X220167470Y-90088517D01*
X220167467Y-90088521D01*
X220088074Y-90207340D01*
X220088069Y-90207349D01*
X220033381Y-90339379D01*
X220033379Y-90339385D01*
X220005500Y-90479542D01*
X220005500Y-90479545D01*
X220005500Y-90622455D01*
X220005500Y-90622457D01*
X220005499Y-90622457D01*
X213395419Y-90622457D01*
X213392620Y-90608385D01*
X213392619Y-90608384D01*
X213392619Y-90608380D01*
X213339254Y-90479545D01*
X213337932Y-90476353D01*
X213337925Y-90476340D01*
X213258532Y-90357521D01*
X213258529Y-90357517D01*
X213157482Y-90256470D01*
X213157478Y-90256467D01*
X213038659Y-90177074D01*
X213038650Y-90177069D01*
X212906620Y-90122381D01*
X212906614Y-90122379D01*
X212766457Y-90094500D01*
X212766455Y-90094500D01*
X212623545Y-90094500D01*
X212623543Y-90094500D01*
X212483385Y-90122379D01*
X212483379Y-90122381D01*
X212351349Y-90177069D01*
X212351340Y-90177074D01*
X212232521Y-90256467D01*
X212232517Y-90256470D01*
X212131470Y-90357517D01*
X212131467Y-90357521D01*
X212052074Y-90476340D01*
X212052069Y-90476349D01*
X211997381Y-90608379D01*
X211997379Y-90608385D01*
X211969500Y-90748542D01*
X211969500Y-90748545D01*
X211969500Y-90891455D01*
X211969500Y-90891457D01*
X211969499Y-90891457D01*
X211109500Y-90891457D01*
X211109500Y-90792545D01*
X211104348Y-90766643D01*
X211104348Y-90766640D01*
X211081620Y-90652385D01*
X211081619Y-90652384D01*
X211081619Y-90652380D01*
X211026929Y-90520347D01*
X211026928Y-90520346D01*
X211026925Y-90520340D01*
X210947532Y-90401521D01*
X210947529Y-90401517D01*
X210846482Y-90300470D01*
X210846478Y-90300467D01*
X210727659Y-90221074D01*
X210727650Y-90221069D01*
X210595620Y-90166381D01*
X210595614Y-90166379D01*
X210455457Y-90138500D01*
X210455455Y-90138500D01*
X210312545Y-90138500D01*
X210312543Y-90138500D01*
X210172385Y-90166379D01*
X210172379Y-90166381D01*
X210040349Y-90221069D01*
X210040340Y-90221074D01*
X209921521Y-90300467D01*
X209921517Y-90300470D01*
X209820470Y-90401517D01*
X209820467Y-90401521D01*
X209741074Y-90520340D01*
X209741069Y-90520349D01*
X209686381Y-90652379D01*
X209686379Y-90652385D01*
X209658500Y-90792542D01*
X209658500Y-90792545D01*
X209658500Y-90935455D01*
X209658500Y-90935457D01*
X209658499Y-90935457D01*
X203962000Y-90935457D01*
X203962000Y-88166577D01*
X204489500Y-88166577D01*
X204489500Y-88363422D01*
X204520290Y-88557826D01*
X204581117Y-88745029D01*
X204670476Y-88920405D01*
X204786172Y-89079646D01*
X204925354Y-89218828D01*
X205084595Y-89334524D01*
X205167455Y-89376743D01*
X205259970Y-89423882D01*
X205259972Y-89423882D01*
X205259975Y-89423884D01*
X205360317Y-89456487D01*
X205447173Y-89484709D01*
X205641578Y-89515500D01*
X205641583Y-89515500D01*
X205838422Y-89515500D01*
X206032826Y-89484709D01*
X206111950Y-89459000D01*
X224983000Y-89459000D01*
X226883000Y-89459000D01*
X226883000Y-87369000D01*
X224983000Y-87369000D01*
X224983000Y-89459000D01*
X206111950Y-89459000D01*
X206220025Y-89423884D01*
X206395405Y-89334524D01*
X206554646Y-89218828D01*
X206693828Y-89079646D01*
X206809524Y-88920405D01*
X206898884Y-88745025D01*
X206959709Y-88557826D01*
X206990500Y-88363422D01*
X206990500Y-88166577D01*
X206959709Y-87972173D01*
X206931487Y-87885317D01*
X206898884Y-87784975D01*
X206898882Y-87784972D01*
X206898882Y-87784970D01*
X206809523Y-87609594D01*
X206797554Y-87593120D01*
X206695719Y-87452957D01*
X208636499Y-87452957D01*
X208664379Y-87593114D01*
X208664381Y-87593120D01*
X208719069Y-87725150D01*
X208719074Y-87725159D01*
X208798467Y-87843978D01*
X208798470Y-87843982D01*
X208899517Y-87945029D01*
X208899521Y-87945032D01*
X209018340Y-88024425D01*
X209018346Y-88024428D01*
X209018347Y-88024429D01*
X209150380Y-88079119D01*
X209150384Y-88079119D01*
X209150385Y-88079120D01*
X209290542Y-88107000D01*
X209290545Y-88107000D01*
X209433457Y-88107000D01*
X209527751Y-88088242D01*
X209573620Y-88079119D01*
X209705653Y-88024429D01*
X209824479Y-87945032D01*
X209925532Y-87843979D01*
X210004929Y-87725153D01*
X210059619Y-87593120D01*
X210087500Y-87452957D01*
X210536499Y-87452957D01*
X210564379Y-87593114D01*
X210564381Y-87593120D01*
X210619069Y-87725150D01*
X210619074Y-87725159D01*
X210698467Y-87843978D01*
X210698470Y-87843982D01*
X210799517Y-87945029D01*
X210799521Y-87945032D01*
X210918340Y-88024425D01*
X210918346Y-88024428D01*
X210918347Y-88024429D01*
X211050380Y-88079119D01*
X211050384Y-88079119D01*
X211050385Y-88079120D01*
X211190542Y-88107000D01*
X211190545Y-88107000D01*
X211333457Y-88107000D01*
X211427751Y-88088242D01*
X211473620Y-88079119D01*
X211605653Y-88024429D01*
X211724479Y-87945032D01*
X211825532Y-87843979D01*
X211904929Y-87725153D01*
X211959619Y-87593120D01*
X211987500Y-87452955D01*
X211987500Y-87310045D01*
X211987500Y-87310042D01*
X211959620Y-87169885D01*
X211959619Y-87169884D01*
X211959619Y-87169880D01*
X211917318Y-87067758D01*
X211904930Y-87037849D01*
X211904925Y-87037840D01*
X211825532Y-86919021D01*
X211825529Y-86919017D01*
X211724482Y-86817970D01*
X211724478Y-86817967D01*
X211605659Y-86738574D01*
X211605650Y-86738569D01*
X211473620Y-86683881D01*
X211473614Y-86683879D01*
X211333457Y-86656000D01*
X211333455Y-86656000D01*
X211190545Y-86656000D01*
X211190543Y-86656000D01*
X211050385Y-86683879D01*
X211050379Y-86683881D01*
X210918349Y-86738569D01*
X210918340Y-86738574D01*
X210799521Y-86817967D01*
X210799517Y-86817970D01*
X210698470Y-86919017D01*
X210698467Y-86919021D01*
X210619074Y-87037840D01*
X210619069Y-87037849D01*
X210564381Y-87169879D01*
X210564379Y-87169885D01*
X210536500Y-87310042D01*
X210536500Y-87310045D01*
X210536500Y-87452955D01*
X210536500Y-87452957D01*
X210536499Y-87452957D01*
X210087500Y-87452957D01*
X210087500Y-87452955D01*
X210087500Y-87310045D01*
X210087500Y-87310042D01*
X210059620Y-87169885D01*
X210059619Y-87169884D01*
X210059619Y-87169880D01*
X210017318Y-87067758D01*
X210004930Y-87037849D01*
X210004925Y-87037840D01*
X209925532Y-86919021D01*
X209925529Y-86919017D01*
X209824482Y-86817970D01*
X209824478Y-86817967D01*
X209705659Y-86738574D01*
X209705650Y-86738569D01*
X209573620Y-86683881D01*
X209573614Y-86683879D01*
X209433457Y-86656000D01*
X209433455Y-86656000D01*
X209290545Y-86656000D01*
X209290543Y-86656000D01*
X209150385Y-86683879D01*
X209150379Y-86683881D01*
X209018349Y-86738569D01*
X209018340Y-86738574D01*
X208899521Y-86817967D01*
X208899517Y-86817970D01*
X208798470Y-86919017D01*
X208798467Y-86919021D01*
X208719074Y-87037840D01*
X208719069Y-87037849D01*
X208664381Y-87169879D01*
X208664379Y-87169885D01*
X208636500Y-87310042D01*
X208636500Y-87310045D01*
X208636500Y-87452955D01*
X208636500Y-87452957D01*
X208636499Y-87452957D01*
X206695719Y-87452957D01*
X206693828Y-87450354D01*
X206554646Y-87311172D01*
X206395405Y-87195476D01*
X206345168Y-87169879D01*
X206220029Y-87106117D01*
X206032826Y-87045290D01*
X205838422Y-87014500D01*
X205838417Y-87014500D01*
X205641583Y-87014500D01*
X205641578Y-87014500D01*
X205447173Y-87045290D01*
X205259970Y-87106117D01*
X205084594Y-87195476D01*
X204993741Y-87261485D01*
X204925354Y-87311172D01*
X204925352Y-87311174D01*
X204925351Y-87311174D01*
X204786174Y-87450351D01*
X204786174Y-87450352D01*
X204786172Y-87450354D01*
X204784281Y-87452957D01*
X204670476Y-87609594D01*
X204581117Y-87784970D01*
X204520290Y-87972173D01*
X204489500Y-88166577D01*
X203962000Y-88166577D01*
X203962000Y-86484000D01*
X203981685Y-86416961D01*
X204034489Y-86371206D01*
X204086000Y-86360000D01*
X227714000Y-86360000D01*
X227781039Y-86379685D01*
G37*
%TD.AperFunction*%
%TD*%
M02*
