%TF.GenerationSoftware,KiCad,Pcbnew,9.0.3+dfsg-1*%
%TF.CreationDate,2026-05-09T19:23:04-05:00*%
%TF.ProjectId,RocketryFlightComputer_v0.1,526f636b-6574-4727-9946-6c6967687443,rev?*%
%TF.SameCoordinates,Original*%
%TF.FileFunction,Soldermask,Bot*%
%TF.FilePolarity,Negative*%
%FSLAX46Y46*%
G04 Gerber Fmt 4.6, Leading zero omitted, Abs format (unit mm)*
G04 Created by KiCad (PCBNEW 9.0.3+dfsg-1) date 2026-05-09 19:23:04*
%MOMM*%
%LPD*%
G01*
G04 APERTURE LIST*
G04 Aperture macros list*
%AMRoundRect*
0 Rectangle with rounded corners*
0 $1 Rounding radius*
0 $2 $3 $4 $5 $6 $7 $8 $9 X,Y pos of 4 corners*
0 Add a 4 corners polygon primitive as box body*
4,1,4,$2,$3,$4,$5,$6,$7,$8,$9,$2,$3,0*
0 Add four circle primitives for the rounded corners*
1,1,$1+$1,$2,$3*
1,1,$1+$1,$4,$5*
1,1,$1+$1,$6,$7*
1,1,$1+$1,$8,$9*
0 Add four rect primitives between the rounded corners*
20,1,$1+$1,$2,$3,$4,$5,0*
20,1,$1+$1,$4,$5,$6,$7,0*
20,1,$1+$1,$6,$7,$8,$9,0*
20,1,$1+$1,$8,$9,$2,$3,0*%
G04 Aperture macros list end*
%ADD10C,0.304800*%
%ADD11RoundRect,0.100000X0.130000X0.100000X-0.130000X0.100000X-0.130000X-0.100000X0.130000X-0.100000X0*%
%ADD12RoundRect,0.100000X-0.100000X0.130000X-0.100000X-0.130000X0.100000X-0.130000X0.100000X0.130000X0*%
%ADD13RoundRect,0.150000X-0.150000X0.587500X-0.150000X-0.587500X0.150000X-0.587500X0.150000X0.587500X0*%
%ADD14RoundRect,0.150000X0.150000X-0.587500X0.150000X0.587500X-0.150000X0.587500X-0.150000X-0.587500X0*%
%ADD15RoundRect,0.140000X0.170000X-0.140000X0.170000X0.140000X-0.170000X0.140000X-0.170000X-0.140000X0*%
%ADD16R,1.750000X0.600000*%
%ADD17RoundRect,0.102000X-0.625000X-0.300000X0.625000X-0.300000X0.625000X0.300000X-0.625000X0.300000X0*%
%ADD18RoundRect,0.102000X-0.500000X-0.250000X0.500000X-0.250000X0.500000X0.250000X-0.500000X0.250000X0*%
%ADD19RoundRect,0.140000X0.140000X0.170000X-0.140000X0.170000X-0.140000X-0.170000X0.140000X-0.170000X0*%
%ADD20RoundRect,0.200000X-0.200000X0.300000X-0.200000X-0.300000X0.200000X-0.300000X0.200000X0.300000X0*%
%ADD21RoundRect,0.135000X0.135000X0.185000X-0.135000X0.185000X-0.135000X-0.185000X0.135000X-0.185000X0*%
%ADD22RoundRect,0.135000X0.185000X-0.135000X0.185000X0.135000X-0.185000X0.135000X-0.185000X-0.135000X0*%
%ADD23C,2.200000*%
%ADD24RoundRect,0.250000X-0.750000X0.750000X-0.750000X-0.750000X0.750000X-0.750000X0.750000X0.750000X0*%
%ADD25C,2.000000*%
%ADD26RoundRect,0.250000X0.750000X-0.750000X0.750000X0.750000X-0.750000X0.750000X-0.750000X-0.750000X0*%
%ADD27RoundRect,0.075000X-0.075000X0.700000X-0.075000X-0.700000X0.075000X-0.700000X0.075000X0.700000X0*%
%ADD28RoundRect,0.075000X-0.700000X0.075000X-0.700000X-0.075000X0.700000X-0.075000X0.700000X0.075000X0*%
%ADD29RoundRect,0.250000X0.475000X-0.250000X0.475000X0.250000X-0.475000X0.250000X-0.475000X-0.250000X0*%
%ADD30RoundRect,0.125000X-0.250000X-0.125000X0.250000X-0.125000X0.250000X0.125000X-0.250000X0.125000X0*%
%ADD31R,3.400000X4.300000*%
%ADD32C,0.650000*%
%ADD33RoundRect,0.150000X0.150000X0.425000X-0.150000X0.425000X-0.150000X-0.425000X0.150000X-0.425000X0*%
%ADD34RoundRect,0.075000X0.075000X0.500000X-0.075000X0.500000X-0.075000X-0.500000X0.075000X-0.500000X0*%
%ADD35O,1.000000X1.800000*%
%ADD36O,1.000000X2.100000*%
%ADD37C,0.250000*%
G04 APERTURE END LIST*
D10*
%TO.C,XTAL1*%
X214875999Y-94361000D03*
X213876001Y-94361000D03*
X213876001Y-93951000D03*
X214875999Y-93951000D03*
%TD*%
D11*
%TO.C,L5*%
X222189000Y-112649000D03*
X221549000Y-112649000D03*
%TD*%
D12*
%TO.C,C21*%
X224409000Y-114234000D03*
X224409000Y-114874000D03*
%TD*%
D11*
%TO.C,C19*%
X222758000Y-114300000D03*
X222118000Y-114300000D03*
%TD*%
%TO.C,C18*%
X222225000Y-113538000D03*
X221585000Y-113538000D03*
%TD*%
D13*
%TO.C,Q3*%
X225298000Y-93520500D03*
X226248000Y-91645500D03*
X224348000Y-91645500D03*
%TD*%
D14*
%TO.C,Q2*%
X222885000Y-93550500D03*
X221935000Y-95425500D03*
X223835000Y-95425500D03*
%TD*%
D13*
%TO.C,Q1*%
X221681000Y-92426000D03*
X222631000Y-90551000D03*
X220731000Y-90551000D03*
%TD*%
D15*
%TO.C,C13*%
X227076000Y-106779000D03*
X227076000Y-105819000D03*
%TD*%
D16*
%TO.C,J1*%
X206375000Y-102299000D03*
X204625000Y-103299000D03*
X206375000Y-104299000D03*
X204625000Y-105299000D03*
X206375000Y-106299000D03*
X204625000Y-107299000D03*
%TD*%
D17*
%TO.C,S1*%
X206147000Y-112506000D03*
X206147000Y-110506000D03*
X209397000Y-112506000D03*
X209397000Y-110506000D03*
D18*
X207772000Y-113156000D03*
X207772000Y-109856000D03*
%TD*%
D19*
%TO.C,R15*%
X207038000Y-108839000D03*
X207998000Y-108839000D03*
%TD*%
D20*
%TO.C,Y2*%
X223706000Y-109474000D03*
X225806000Y-109474000D03*
X225806000Y-110874000D03*
X223706000Y-110874000D03*
%TD*%
D21*
%TO.C,R13*%
X226062000Y-112141000D03*
X225042000Y-112141000D03*
%TD*%
%TO.C,C12*%
X226951000Y-108077000D03*
X225931000Y-108077000D03*
%TD*%
D22*
%TO.C,C11*%
X227076000Y-111508000D03*
X227076000Y-110488000D03*
%TD*%
D23*
%TO.C,REF\u002A\u002A*%
X205740000Y-114935000D03*
%TD*%
%TO.C,REF\u002A\u002A*%
X205740000Y-88265000D03*
%TD*%
D24*
%TO.C,J4*%
X207137000Y-97536000D03*
D25*
X207137000Y-100076000D03*
%TD*%
D26*
%TO.C,J3*%
X224507500Y-105283000D03*
D25*
X224507500Y-102743000D03*
X224507500Y-100203000D03*
X224507500Y-97663000D03*
%TD*%
D27*
%TO.C,U1*%
X212150000Y-95925000D03*
X212650000Y-95925000D03*
X213150000Y-95925000D03*
X213650000Y-95925000D03*
X214150000Y-95925000D03*
X214650000Y-95925000D03*
X215150000Y-95925000D03*
X215650000Y-95925000D03*
X216150000Y-95925000D03*
X216650000Y-95925000D03*
X217150000Y-95925000D03*
X217650000Y-95925000D03*
X218150000Y-95925000D03*
X218650000Y-95925000D03*
X219150000Y-95925000D03*
X219650000Y-95925000D03*
D28*
X221575000Y-97850000D03*
X221575000Y-98350000D03*
X221575000Y-98850000D03*
X221575000Y-99350000D03*
X221575000Y-99850000D03*
X221575000Y-100350000D03*
X221575000Y-100850000D03*
X221575000Y-101350000D03*
X221575000Y-101850000D03*
X221575000Y-102350000D03*
X221575000Y-102850000D03*
X221575000Y-103350000D03*
X221575000Y-103850000D03*
X221575000Y-104350000D03*
X221575000Y-104850000D03*
X221575000Y-105350000D03*
D27*
X219650000Y-107275000D03*
X219150000Y-107275000D03*
X218650000Y-107275000D03*
X218150000Y-107275000D03*
X217650000Y-107275000D03*
X217150000Y-107275000D03*
X216650000Y-107275000D03*
X216150000Y-107275000D03*
X215650000Y-107275000D03*
X215150000Y-107275000D03*
X214650000Y-107275000D03*
X214150000Y-107275000D03*
X213650000Y-107275000D03*
X213150000Y-107275000D03*
X212650000Y-107275000D03*
X212150000Y-107275000D03*
D28*
X210225000Y-105350000D03*
X210225000Y-104850000D03*
X210225000Y-104350000D03*
X210225000Y-103850000D03*
X210225000Y-103350000D03*
X210225000Y-102850000D03*
X210225000Y-102350000D03*
X210225000Y-101850000D03*
X210225000Y-101350000D03*
X210225000Y-100850000D03*
X210225000Y-100350000D03*
X210225000Y-99850000D03*
X210225000Y-99350000D03*
X210225000Y-98850000D03*
X210225000Y-98350000D03*
X210225000Y-97850000D03*
%TD*%
D29*
%TO.C,L2*%
X209423000Y-108519000D03*
X209423000Y-106619000D03*
%TD*%
D22*
%TO.C,C10*%
X208915000Y-97030000D03*
X208915000Y-96010000D03*
%TD*%
D30*
%TO.C,U3*%
X204984000Y-94674000D03*
X204984000Y-93404000D03*
X204984000Y-92134000D03*
X204984000Y-90864000D03*
X210384000Y-90864000D03*
X210384000Y-92134000D03*
X210384000Y-93404000D03*
X210384000Y-94674000D03*
D31*
X207684000Y-92769000D03*
%TD*%
D32*
%TO.C,J5*%
X218663000Y-110679000D03*
X212883000Y-110679000D03*
D33*
X218973000Y-109604000D03*
X218173000Y-109604000D03*
D34*
X217023000Y-109604000D03*
X216023000Y-109604000D03*
X215523000Y-109604000D03*
X214523000Y-109604000D03*
D33*
X213373000Y-109604000D03*
X212573000Y-109604000D03*
X212573000Y-109604000D03*
X213373000Y-109604000D03*
D34*
X214023000Y-109604000D03*
X215023000Y-109604000D03*
X216523000Y-109604000D03*
X217523000Y-109604000D03*
D33*
X218173000Y-109604000D03*
X218973000Y-109604000D03*
D35*
X220093000Y-114359000D03*
D36*
X220093000Y-110179000D03*
D35*
X211453000Y-114359000D03*
D36*
X211453000Y-110179000D03*
%TD*%
D37*
%TO.C,U5*%
X216100000Y-89970000D03*
X215700000Y-89970000D03*
X216100000Y-90370000D03*
X215700000Y-90370000D03*
%TD*%
D21*
%TO.C,C9*%
X221871000Y-107569000D03*
X220851000Y-107569000D03*
%TD*%
M02*
